G04 #@! TF.GenerationSoftware,KiCad,Pcbnew,7.0.7*
G04 #@! TF.CreationDate,2023-10-16T19:16:16+02:00*
G04 #@! TF.ProjectId,WaterValve,57617465-7256-4616-9c76-652e6b696361,Rev 6.1*
G04 #@! TF.SameCoordinates,Original*
G04 #@! TF.FileFunction,Copper,L1,Top*
G04 #@! TF.FilePolarity,Positive*
%FSLAX46Y46*%
G04 Gerber Fmt 4.6, Leading zero omitted, Abs format (unit mm)*
G04 Created by KiCad (PCBNEW 7.0.7) date 2023-10-16 19:16:16*
%MOMM*%
%LPD*%
G01*
G04 APERTURE LIST*
G04 Aperture macros list*
%AMRoundRect*
0 Rectangle with rounded corners*
0 $1 Rounding radius*
0 $2 $3 $4 $5 $6 $7 $8 $9 X,Y pos of 4 corners*
0 Add a 4 corners polygon primitive as box body*
4,1,4,$2,$3,$4,$5,$6,$7,$8,$9,$2,$3,0*
0 Add four circle primitives for the rounded corners*
1,1,$1+$1,$2,$3*
1,1,$1+$1,$4,$5*
1,1,$1+$1,$6,$7*
1,1,$1+$1,$8,$9*
0 Add four rect primitives between the rounded corners*
20,1,$1+$1,$2,$3,$4,$5,0*
20,1,$1+$1,$4,$5,$6,$7,0*
20,1,$1+$1,$6,$7,$8,$9,0*
20,1,$1+$1,$8,$9,$2,$3,0*%
G04 Aperture macros list end*
G04 #@! TA.AperFunction,ComponentPad*
%ADD10R,1.800000X1.800000*%
G04 #@! TD*
G04 #@! TA.AperFunction,ComponentPad*
%ADD11C,1.800000*%
G04 #@! TD*
G04 #@! TA.AperFunction,SMDPad,CuDef*
%ADD12RoundRect,0.250000X0.350000X0.450000X-0.350000X0.450000X-0.350000X-0.450000X0.350000X-0.450000X0*%
G04 #@! TD*
G04 #@! TA.AperFunction,SMDPad,CuDef*
%ADD13RoundRect,0.250000X-0.400000X-0.600000X0.400000X-0.600000X0.400000X0.600000X-0.400000X0.600000X0*%
G04 #@! TD*
G04 #@! TA.AperFunction,ComponentPad*
%ADD14R,1.700000X1.700000*%
G04 #@! TD*
G04 #@! TA.AperFunction,SMDPad,CuDef*
%ADD15RoundRect,0.250000X-0.537500X-0.425000X0.537500X-0.425000X0.537500X0.425000X-0.537500X0.425000X0*%
G04 #@! TD*
G04 #@! TA.AperFunction,SMDPad,CuDef*
%ADD16RoundRect,0.250000X-0.350000X-0.450000X0.350000X-0.450000X0.350000X0.450000X-0.350000X0.450000X0*%
G04 #@! TD*
G04 #@! TA.AperFunction,SMDPad,CuDef*
%ADD17RoundRect,0.250000X0.400000X0.600000X-0.400000X0.600000X-0.400000X-0.600000X0.400000X-0.600000X0*%
G04 #@! TD*
G04 #@! TA.AperFunction,ComponentPad*
%ADD18R,2.400000X2.400000*%
G04 #@! TD*
G04 #@! TA.AperFunction,ComponentPad*
%ADD19C,2.400000*%
G04 #@! TD*
G04 #@! TA.AperFunction,ComponentPad*
%ADD20R,1.905000X2.000000*%
G04 #@! TD*
G04 #@! TA.AperFunction,ComponentPad*
%ADD21O,1.905000X2.000000*%
G04 #@! TD*
G04 #@! TA.AperFunction,ComponentPad*
%ADD22R,1.400000X1.400000*%
G04 #@! TD*
G04 #@! TA.AperFunction,ComponentPad*
%ADD23C,1.400000*%
G04 #@! TD*
G04 #@! TA.AperFunction,SMDPad,CuDef*
%ADD24RoundRect,0.250000X0.450000X-0.350000X0.450000X0.350000X-0.450000X0.350000X-0.450000X-0.350000X0*%
G04 #@! TD*
G04 #@! TA.AperFunction,SMDPad,CuDef*
%ADD25RoundRect,0.250000X1.500000X0.900000X-1.500000X0.900000X-1.500000X-0.900000X1.500000X-0.900000X0*%
G04 #@! TD*
G04 #@! TA.AperFunction,ComponentPad*
%ADD26C,1.500000*%
G04 #@! TD*
G04 #@! TA.AperFunction,ComponentPad*
%ADD27C,5.500000*%
G04 #@! TD*
G04 #@! TA.AperFunction,SMDPad,CuDef*
%ADD28RoundRect,0.250000X-0.450000X0.350000X-0.450000X-0.350000X0.450000X-0.350000X0.450000X0.350000X0*%
G04 #@! TD*
G04 #@! TA.AperFunction,SMDPad,CuDef*
%ADD29RoundRect,0.250000X-1.500000X-0.900000X1.500000X-0.900000X1.500000X0.900000X-1.500000X0.900000X0*%
G04 #@! TD*
G04 #@! TA.AperFunction,SMDPad,CuDef*
%ADD30R,1.900000X0.800000*%
G04 #@! TD*
G04 #@! TA.AperFunction,ComponentPad*
%ADD31O,1.700000X1.700000*%
G04 #@! TD*
G04 #@! TA.AperFunction,SMDPad,CuDef*
%ADD32R,0.800000X1.900000*%
G04 #@! TD*
G04 #@! TA.AperFunction,SMDPad,CuDef*
%ADD33RoundRect,0.250000X0.337500X0.475000X-0.337500X0.475000X-0.337500X-0.475000X0.337500X-0.475000X0*%
G04 #@! TD*
G04 #@! TA.AperFunction,SMDPad,CuDef*
%ADD34RoundRect,0.250000X-0.425000X0.537500X-0.425000X-0.537500X0.425000X-0.537500X0.425000X0.537500X0*%
G04 #@! TD*
G04 #@! TA.AperFunction,ViaPad*
%ADD35C,0.600000*%
G04 #@! TD*
G04 #@! TA.AperFunction,Conductor*
%ADD36C,1.000000*%
G04 #@! TD*
G04 #@! TA.AperFunction,Conductor*
%ADD37C,0.500000*%
G04 #@! TD*
G04 APERTURE END LIST*
D10*
X151643000Y-94361000D03*
D11*
X149103000Y-94361000D03*
D12*
X174752000Y-89789000D03*
X172752000Y-89789000D03*
D13*
X163350000Y-106553000D03*
X166850000Y-106553000D03*
D14*
X164084000Y-109672000D03*
D15*
X154518500Y-95631000D03*
X157393500Y-95631000D03*
D16*
X180118000Y-88900000D03*
X182118000Y-88900000D03*
D13*
X167160000Y-90170000D03*
X170660000Y-90170000D03*
D14*
X151638000Y-103505000D03*
D16*
X149114000Y-97917000D03*
X151114000Y-97917000D03*
D14*
X149352000Y-100782000D03*
D17*
X172228000Y-113665000D03*
X168728000Y-113665000D03*
D18*
X176220000Y-119253000D03*
D19*
X179720000Y-119253000D03*
X183220000Y-119253000D03*
X186720000Y-119253000D03*
D20*
X154178000Y-103505000D03*
D21*
X156718000Y-103505000D03*
X159258000Y-103505000D03*
D15*
X154518500Y-98933000D03*
X157393500Y-98933000D03*
D22*
X146050000Y-109347000D03*
D23*
X146050000Y-101727000D03*
X146050000Y-96647000D03*
X146050000Y-91567000D03*
X138430000Y-91567000D03*
X138430000Y-96647000D03*
X138430000Y-101727000D03*
X138430000Y-109347000D03*
D24*
X167640000Y-95980000D03*
X167640000Y-93980000D03*
D12*
X165084000Y-104267000D03*
X163084000Y-104267000D03*
D16*
X174530000Y-113665000D03*
X176530000Y-113665000D03*
D25*
X149766000Y-113665000D03*
X144366000Y-113665000D03*
D18*
X149606000Y-86487000D03*
D19*
X146106000Y-86487000D03*
D26*
X187198000Y-93439700D03*
X184658000Y-93439700D03*
X182118000Y-93439700D03*
X179578000Y-93439700D03*
X177038000Y-93439700D03*
X174498000Y-93439700D03*
X171958000Y-93439700D03*
X171958000Y-109604700D03*
X174498000Y-109604700D03*
X177038000Y-109604700D03*
X179578000Y-109604700D03*
X182118000Y-109604700D03*
X184658000Y-109604700D03*
X187198000Y-109604700D03*
D14*
X164084000Y-100782000D03*
D24*
X153924000Y-93075000D03*
X153924000Y-91075000D03*
D25*
X158656000Y-108402000D03*
X153256000Y-108402000D03*
D27*
X139700000Y-84963000D03*
D28*
X160528000Y-91583000D03*
X160528000Y-93583000D03*
D18*
X146050000Y-119253000D03*
D19*
X149550000Y-119253000D03*
X153050000Y-119253000D03*
X156550000Y-119253000D03*
D29*
X154018000Y-113665000D03*
X159418000Y-113665000D03*
D27*
X139700000Y-120523000D03*
D30*
X162838000Y-91633000D03*
X162838000Y-93533000D03*
X165838000Y-92583000D03*
D16*
X178578000Y-113665000D03*
X180578000Y-113665000D03*
D14*
X149352000Y-109672000D03*
X169418000Y-86979000D03*
D31*
X171958000Y-86979000D03*
X174498000Y-86979000D03*
X177038000Y-86979000D03*
D12*
X188198000Y-91059000D03*
X186198000Y-91059000D03*
D16*
X164608000Y-86995000D03*
X166608000Y-86995000D03*
D10*
X183896000Y-114432000D03*
D11*
X183896000Y-111892000D03*
D32*
X138496000Y-115673000D03*
X140396000Y-115673000D03*
X139446000Y-112673000D03*
D27*
X186944000Y-85217000D03*
D18*
X160782000Y-119253000D03*
D19*
X164282000Y-119253000D03*
X167782000Y-119253000D03*
X171282000Y-119253000D03*
D28*
X167132000Y-102505000D03*
X167132000Y-104505000D03*
D24*
X157226000Y-93075000D03*
X157226000Y-91075000D03*
D33*
X164613500Y-97155000D03*
X162538500Y-97155000D03*
D18*
X161432000Y-86487000D03*
D19*
X157932000Y-86487000D03*
X154432000Y-86487000D03*
D34*
X187706000Y-111719500D03*
X187706000Y-114594500D03*
D35*
X170180000Y-94615000D03*
X171450000Y-98425000D03*
X137668000Y-115697000D03*
D36*
X159258000Y-106044000D02*
X159258000Y-103505000D01*
X187706000Y-110112700D02*
X187706000Y-111719500D01*
X187198000Y-109604700D02*
X187706000Y-110112700D01*
X158750000Y-106552000D02*
X159258000Y-106044000D01*
X152654000Y-106552000D02*
X158750000Y-106552000D01*
X151638000Y-103505000D02*
X151638000Y-105536000D01*
X151638000Y-105536000D02*
X152654000Y-106552000D01*
X158656000Y-108402000D02*
X154018000Y-113040000D01*
X154018000Y-113040000D02*
X154018000Y-113665000D01*
X146050000Y-109347000D02*
X146050000Y-109949000D01*
X146050000Y-96647000D02*
X148336000Y-94361000D01*
X154018000Y-113665000D02*
X149766000Y-113665000D01*
X146050000Y-109949000D02*
X149766000Y-113665000D01*
X148336000Y-94361000D02*
X149103000Y-94361000D01*
X138430000Y-91567000D02*
X143510000Y-96647000D01*
X143510000Y-96647000D02*
X146050000Y-96647000D01*
X138430000Y-109347000D02*
X138430000Y-111657000D01*
X138684000Y-109474000D02*
X138557000Y-109347000D01*
X143374000Y-112673000D02*
X144366000Y-113665000D01*
X138430000Y-111657000D02*
X139446000Y-112673000D01*
X138557000Y-109347000D02*
X138557000Y-107207100D01*
X139446000Y-112673000D02*
X143374000Y-112673000D01*
X138557000Y-109347000D02*
X138430000Y-109347000D01*
X147847100Y-97917000D02*
X149114000Y-97917000D01*
X138557000Y-107207100D02*
X147847100Y-97917000D01*
X166038300Y-85379000D02*
X174498000Y-85379000D01*
X164882300Y-86535000D02*
X162872300Y-84525000D01*
X188695900Y-91556900D02*
X188695900Y-94060600D01*
X153749700Y-93075000D02*
X153924000Y-93075000D01*
X179400200Y-103356300D02*
X178548900Y-102505000D01*
X157226000Y-93075000D02*
X156631500Y-93669500D01*
X164608000Y-88408000D02*
X166370000Y-90170000D01*
X188198000Y-90856100D02*
X188198000Y-91059000D01*
X154518500Y-95631000D02*
X154518500Y-93669500D01*
X188695900Y-94060600D02*
X179400200Y-103356300D01*
X164608000Y-86995000D02*
X164608000Y-88408000D01*
X174498000Y-86979000D02*
X174498000Y-88579000D01*
X174498000Y-86979000D02*
X174498000Y-85395200D01*
X184686800Y-89436800D02*
X183419200Y-88169200D01*
X186778700Y-89436800D02*
X188198000Y-90856100D01*
X183419200Y-88057697D02*
X183419200Y-88169200D01*
X152522900Y-91848200D02*
X153749700Y-93075000D01*
X166370000Y-90170000D02*
X167160000Y-90170000D01*
X174498000Y-85395200D02*
X174498000Y-85379000D01*
X153644100Y-84525000D02*
X152522900Y-85646200D01*
X184686800Y-89436800D02*
X186778700Y-89436800D01*
X154518500Y-93669500D02*
X153924000Y-93075000D01*
X174752000Y-88833000D02*
X174752000Y-89789000D01*
X182118000Y-110114000D02*
X182118000Y-109604700D01*
X178548900Y-102505000D02*
X167132000Y-102505000D01*
X188198000Y-91059000D02*
X188695900Y-91556900D01*
X183896000Y-111892000D02*
X182118000Y-110114000D01*
X164882300Y-86535000D02*
X166038300Y-85379000D01*
X156631500Y-93669500D02*
X154518500Y-93669500D01*
X180740503Y-85379000D02*
X183419200Y-88057697D01*
X174498000Y-88579000D02*
X174752000Y-88833000D01*
X179400200Y-106886900D02*
X179400200Y-103356300D01*
X182118000Y-109604700D02*
X179400200Y-106886900D01*
X164608000Y-86809300D02*
X164882300Y-86535000D01*
X152522900Y-85646200D02*
X152522900Y-91848200D01*
X162872300Y-84525000D02*
X153644100Y-84525000D01*
X174498000Y-85379000D02*
X180740503Y-85379000D01*
X164608000Y-86995000D02*
X164608000Y-86809300D01*
D37*
X160882400Y-112200600D02*
X159418000Y-113665000D01*
X160882400Y-93583000D02*
X160528000Y-93583000D01*
X162838000Y-93533000D02*
X161388000Y-93533000D01*
X160882400Y-93583000D02*
X160882400Y-112200600D01*
X156550000Y-116533000D02*
X156550000Y-119253000D01*
X159418000Y-113665000D02*
X156550000Y-116533000D01*
X161338000Y-93583000D02*
X160882400Y-93583000D01*
X161388000Y-93533000D02*
X161338000Y-93583000D01*
X183896000Y-114432000D02*
X181345000Y-114432000D01*
X181345000Y-114432000D02*
X180578000Y-113665000D01*
X171958000Y-86979000D02*
X171958000Y-88329000D01*
X171958000Y-88329000D02*
X172752000Y-89123000D01*
X172752000Y-89123000D02*
X172752000Y-89789000D01*
D36*
X154178000Y-103505000D02*
X154178000Y-99273500D01*
X154178000Y-99273500D02*
X154518500Y-98933000D01*
X152222000Y-108402000D02*
X150952000Y-109672000D01*
X149352000Y-109672000D02*
X150952000Y-109672000D01*
X153256000Y-108402000D02*
X152222000Y-108402000D01*
D37*
X166624000Y-86979000D02*
X166608000Y-86995000D01*
X169418000Y-86979000D02*
X166624000Y-86979000D01*
X171958000Y-109604700D02*
X168977300Y-106624000D01*
X167132000Y-106624000D02*
X166850000Y-106624000D01*
X167132000Y-106624000D02*
X167132000Y-104505000D01*
X168977300Y-106624000D02*
X167132000Y-106624000D01*
X151114000Y-97917000D02*
X151643000Y-97388000D01*
X151643000Y-97388000D02*
X151643000Y-94361000D01*
X160114000Y-88187000D02*
X157226000Y-91075000D01*
X161432000Y-86487000D02*
X161432000Y-88187000D01*
X161432000Y-88187000D02*
X160114000Y-88187000D01*
X170204700Y-94639700D02*
X178378000Y-94639700D01*
X154432000Y-86487000D02*
X153924000Y-86995000D01*
X170180000Y-94615000D02*
X170204700Y-94639700D01*
X153924000Y-86995000D02*
X153924000Y-91075000D01*
X178378000Y-94639700D02*
X179578000Y-93439700D01*
X160782000Y-117553000D02*
X162248900Y-116086100D01*
X167132000Y-100219000D02*
X163084000Y-104267000D01*
X168910000Y-98425000D02*
X171450000Y-98425000D01*
X162248900Y-105102100D02*
X163084000Y-104267000D01*
X170660000Y-90170000D02*
X170660000Y-92141700D01*
X160782000Y-119253000D02*
X160782000Y-117553000D01*
X162248900Y-116086100D02*
X162248900Y-105102100D01*
X167132000Y-100203000D02*
X168910000Y-98425000D01*
X167132000Y-100219000D02*
X167132000Y-100203000D01*
X170660000Y-92141700D02*
X171958000Y-93439700D01*
X176220000Y-117553000D02*
X174530000Y-115863000D01*
X174530000Y-115863000D02*
X174530000Y-113665000D01*
X172228000Y-113665000D02*
X174530000Y-113665000D01*
X176220000Y-119253000D02*
X176220000Y-117553000D01*
X138472000Y-115697000D02*
X138496000Y-115673000D01*
X179720000Y-116855000D02*
X176530000Y-113665000D01*
X137668000Y-115697000D02*
X138472000Y-115697000D01*
X179720000Y-119253000D02*
X179720000Y-116855000D01*
X187198000Y-93439700D02*
X186198000Y-92439700D01*
X187198000Y-93439700D02*
X183482700Y-97155000D01*
X186198000Y-92439700D02*
X186198000Y-91059000D01*
X183482700Y-97155000D02*
X164613500Y-97155000D01*
X165384200Y-118150800D02*
X165384200Y-108573600D01*
X164282000Y-119253000D02*
X165384200Y-118150800D01*
X163434600Y-106624000D02*
X163350000Y-106624000D01*
X165384200Y-108573600D02*
X163434600Y-106624000D01*
X164239500Y-95454000D02*
X164239500Y-92909500D01*
X162538500Y-97155000D02*
X164239500Y-95454000D01*
X162838000Y-92083000D02*
X161028000Y-92083000D01*
X164239500Y-92909500D02*
X163413000Y-92083000D01*
X162838000Y-91633000D02*
X162838000Y-92083000D01*
X163413000Y-92083000D02*
X162838000Y-92083000D01*
X161028000Y-92083000D02*
X160528000Y-91583000D01*
X179578000Y-109604700D02*
X178371400Y-108398100D01*
X169635100Y-113665000D02*
X168728000Y-113665000D01*
X173228000Y-109159800D02*
X173228000Y-110072100D01*
X178371400Y-108398100D02*
X173989700Y-108398100D01*
X173989700Y-108398100D02*
X173228000Y-109159800D01*
X173228000Y-110072100D02*
X169635100Y-113665000D01*
X167782000Y-119253000D02*
X167626800Y-119097800D01*
X165084000Y-107283100D02*
X165084000Y-104267000D01*
X167626800Y-119097800D02*
X167626800Y-109825900D01*
X167626800Y-109825900D02*
X165084000Y-107283100D01*
X166243000Y-92583000D02*
X167640000Y-93980000D01*
X165838000Y-92583000D02*
X166243000Y-92583000D01*
X184658000Y-94361000D02*
X184658000Y-93439700D01*
X182880000Y-96139000D02*
X184658000Y-94361000D01*
X182118000Y-90043000D02*
X184658000Y-92583000D01*
X182118000Y-88900000D02*
X182118000Y-90043000D01*
X167640000Y-95980000D02*
X167799000Y-96139000D01*
X167751150Y-95868850D02*
X167640000Y-95980000D01*
X184658000Y-92583000D02*
X184658000Y-93439700D01*
X167799000Y-96139000D02*
X182880000Y-96139000D01*
X177038000Y-109604700D02*
X177038000Y-112125000D01*
X177038000Y-112125000D02*
X178578000Y-113665000D01*
G04 #@! TA.AperFunction,Conductor*
G36*
X138438427Y-121533531D02*
G01*
X138489381Y-121569179D01*
X138565130Y-121657870D01*
X138628855Y-121712296D01*
X138653816Y-121733615D01*
X138692009Y-121792122D01*
X138692507Y-121861990D01*
X138660965Y-121915586D01*
X137582625Y-122993926D01*
X137582625Y-122993928D01*
X137592900Y-123003660D01*
X137732504Y-123109785D01*
X137773961Y-123166026D01*
X137778430Y-123235753D01*
X137744493Y-123296827D01*
X137682924Y-123329858D01*
X137657462Y-123332500D01*
X137014500Y-123332500D01*
X136947461Y-123312815D01*
X136901706Y-123260011D01*
X136890500Y-123208500D01*
X136890500Y-122573110D01*
X136910185Y-122506071D01*
X136962989Y-122460316D01*
X137032147Y-122450372D01*
X137095703Y-122479397D01*
X137109009Y-122492835D01*
X137231914Y-122637532D01*
X138307413Y-121562032D01*
X138368736Y-121528547D01*
X138438427Y-121533531D01*
G37*
G04 #@! TD.AperFunction*
G04 #@! TA.AperFunction,Conductor*
G36*
X185352109Y-82173185D02*
G01*
X185397864Y-82225989D01*
X185407808Y-82295147D01*
X185378783Y-82358703D01*
X185348998Y-82383751D01*
X185117464Y-82523058D01*
X185117460Y-82523061D01*
X184836906Y-82736334D01*
X184826625Y-82746071D01*
X184826625Y-82746073D01*
X185904966Y-83824413D01*
X185938451Y-83885736D01*
X185933467Y-83955428D01*
X185897817Y-84006384D01*
X185809130Y-84082130D01*
X185733384Y-84170817D01*
X185674877Y-84209010D01*
X185605009Y-84209508D01*
X185551413Y-84177966D01*
X184475914Y-83102466D01*
X184475913Y-83102466D01*
X184352896Y-83247296D01*
X184155124Y-83538988D01*
X183990052Y-83850347D01*
X183990043Y-83850365D01*
X183859602Y-84177749D01*
X183859600Y-84177756D01*
X183765325Y-84517306D01*
X183765319Y-84517332D01*
X183708308Y-84865082D01*
X183708306Y-84865099D01*
X183689227Y-85216997D01*
X183689227Y-85217002D01*
X183708306Y-85568900D01*
X183708308Y-85568917D01*
X183765319Y-85916667D01*
X183765325Y-85916693D01*
X183859600Y-86256243D01*
X183859602Y-86256250D01*
X183990043Y-86583634D01*
X183990052Y-86583652D01*
X184155124Y-86895011D01*
X184352896Y-87186702D01*
X184475914Y-87331532D01*
X185551413Y-86256032D01*
X185612736Y-86222547D01*
X185682427Y-86227531D01*
X185733381Y-86263179D01*
X185809130Y-86351870D01*
X185857310Y-86393019D01*
X185897816Y-86427615D01*
X185936009Y-86486122D01*
X185936507Y-86555990D01*
X185904965Y-86609586D01*
X184826625Y-87687926D01*
X184826625Y-87687928D01*
X184836900Y-87697660D01*
X185117460Y-87910938D01*
X185117464Y-87910941D01*
X185419445Y-88092635D01*
X185739273Y-88240603D01*
X186073256Y-88353136D01*
X186417437Y-88428896D01*
X186767788Y-88466999D01*
X186767795Y-88467000D01*
X187120205Y-88467000D01*
X187120211Y-88466999D01*
X187470562Y-88428896D01*
X187814743Y-88353136D01*
X188148726Y-88240603D01*
X188468554Y-88092635D01*
X188770535Y-87910941D01*
X188770539Y-87910938D01*
X189051093Y-87697665D01*
X189051105Y-87697654D01*
X189061373Y-87687927D01*
X189061373Y-87687926D01*
X187983033Y-86609586D01*
X187949548Y-86548263D01*
X187954532Y-86478571D01*
X187990180Y-86427617D01*
X188078870Y-86351870D01*
X188154617Y-86263180D01*
X188213121Y-86224990D01*
X188282989Y-86224490D01*
X188336586Y-86256033D01*
X189412084Y-87331532D01*
X189412085Y-87331531D01*
X189535102Y-87186704D01*
X189732875Y-86895011D01*
X189897947Y-86583652D01*
X189897956Y-86583634D01*
X190028397Y-86256250D01*
X190028399Y-86256243D01*
X190122674Y-85916693D01*
X190122680Y-85916667D01*
X190179691Y-85568917D01*
X190179693Y-85568900D01*
X190198773Y-85217002D01*
X190198773Y-85216997D01*
X190179693Y-84865099D01*
X190179691Y-84865082D01*
X190122680Y-84517332D01*
X190122674Y-84517306D01*
X190028399Y-84177756D01*
X190028397Y-84177749D01*
X189897956Y-83850365D01*
X189897947Y-83850347D01*
X189732875Y-83538988D01*
X189535099Y-83247291D01*
X189412085Y-83102467D01*
X189412084Y-83102466D01*
X188336586Y-84177965D01*
X188275263Y-84211450D01*
X188205571Y-84206466D01*
X188154615Y-84170816D01*
X188133296Y-84145855D01*
X188078870Y-84082130D01*
X187990179Y-84006381D01*
X187951989Y-83947878D01*
X187951489Y-83878010D01*
X187983032Y-83824413D01*
X189061374Y-82746072D01*
X189051099Y-82736340D01*
X189051087Y-82736330D01*
X188770539Y-82523061D01*
X188770535Y-82523058D01*
X188539002Y-82383751D01*
X188491707Y-82332321D01*
X188479724Y-82263487D01*
X188506859Y-82199101D01*
X188564495Y-82159607D01*
X188602930Y-82153500D01*
X190391500Y-82153500D01*
X190458539Y-82173185D01*
X190504294Y-82225989D01*
X190515500Y-82277500D01*
X190515500Y-123208500D01*
X190495815Y-123275539D01*
X190443011Y-123321294D01*
X190391500Y-123332500D01*
X141742538Y-123332500D01*
X141675499Y-123312815D01*
X141629744Y-123260011D01*
X141619800Y-123190853D01*
X141648825Y-123127297D01*
X141667496Y-123109785D01*
X141807093Y-123003665D01*
X141807105Y-123003654D01*
X141817373Y-122993927D01*
X141817373Y-122993926D01*
X140739033Y-121915586D01*
X140705548Y-121854263D01*
X140710532Y-121784571D01*
X140746180Y-121733617D01*
X140834870Y-121657870D01*
X140910617Y-121569180D01*
X140969121Y-121530990D01*
X141038989Y-121530490D01*
X141092586Y-121562033D01*
X142168084Y-122637532D01*
X142168085Y-122637531D01*
X142291102Y-122492704D01*
X142488875Y-122201011D01*
X142653947Y-121889652D01*
X142653956Y-121889634D01*
X142784397Y-121562250D01*
X142784399Y-121562243D01*
X142878674Y-121222693D01*
X142878680Y-121222667D01*
X142935691Y-120874917D01*
X142935693Y-120874900D01*
X142954773Y-120523002D01*
X142954773Y-120522997D01*
X142952049Y-120472752D01*
X144649500Y-120472752D01*
X144661131Y-120531229D01*
X144661132Y-120531230D01*
X144705447Y-120597552D01*
X144771769Y-120641867D01*
X144771770Y-120641868D01*
X144830247Y-120653499D01*
X144830250Y-120653500D01*
X144830252Y-120653500D01*
X147269750Y-120653500D01*
X147269751Y-120653499D01*
X147284568Y-120650552D01*
X147328229Y-120641868D01*
X147328229Y-120641867D01*
X147328231Y-120641867D01*
X147394552Y-120597552D01*
X147438867Y-120531231D01*
X147438867Y-120531229D01*
X147438868Y-120531229D01*
X147450499Y-120472752D01*
X147450500Y-120472750D01*
X147450500Y-119253004D01*
X147845233Y-119253004D01*
X147864273Y-119507079D01*
X147920968Y-119755477D01*
X147920973Y-119755494D01*
X148014058Y-119992671D01*
X148014057Y-119992671D01*
X148141457Y-120213332D01*
X148183452Y-120265993D01*
X148868590Y-119580855D01*
X148929913Y-119547370D01*
X148999604Y-119552354D01*
X149054645Y-119593049D01*
X149107019Y-119661304D01*
X149122075Y-119680925D01*
X149209948Y-119748353D01*
X149251150Y-119804781D01*
X149255305Y-119874527D01*
X149222142Y-119934409D01*
X148536813Y-120619737D01*
X148697623Y-120729375D01*
X148697624Y-120729376D01*
X148927176Y-120839921D01*
X148927174Y-120839921D01*
X149170652Y-120915024D01*
X149170658Y-120915026D01*
X149422595Y-120952999D01*
X149422604Y-120953000D01*
X149677396Y-120953000D01*
X149677404Y-120952999D01*
X149929341Y-120915026D01*
X149929347Y-120915024D01*
X150172824Y-120839921D01*
X150402381Y-120729373D01*
X150563185Y-120619737D01*
X149877856Y-119934409D01*
X149844371Y-119873086D01*
X149849355Y-119803395D01*
X149890049Y-119748353D01*
X149977925Y-119680925D01*
X150045354Y-119593048D01*
X150101779Y-119551848D01*
X150171525Y-119547693D01*
X150231409Y-119580856D01*
X150916545Y-120265993D01*
X150958545Y-120213327D01*
X151085941Y-119992671D01*
X151179026Y-119755494D01*
X151179032Y-119755475D01*
X151179108Y-119755145D01*
X151179167Y-119755038D01*
X151180400Y-119751044D01*
X151181254Y-119751307D01*
X151213214Y-119694165D01*
X151274874Y-119661304D01*
X151344511Y-119666996D01*
X151400017Y-119709433D01*
X151419090Y-119751201D01*
X151419600Y-119751044D01*
X151420809Y-119754965D01*
X151420892Y-119755145D01*
X151420967Y-119755475D01*
X151420973Y-119755494D01*
X151514058Y-119992671D01*
X151514057Y-119992671D01*
X151641457Y-120213332D01*
X151683452Y-120265993D01*
X152368590Y-119580855D01*
X152429913Y-119547370D01*
X152499604Y-119552354D01*
X152554645Y-119593049D01*
X152607019Y-119661304D01*
X152622075Y-119680925D01*
X152709948Y-119748353D01*
X152751150Y-119804781D01*
X152755305Y-119874527D01*
X152722142Y-119934409D01*
X152036813Y-120619737D01*
X152197623Y-120729375D01*
X152197624Y-120729376D01*
X152427176Y-120839921D01*
X152427174Y-120839921D01*
X152670652Y-120915024D01*
X152670658Y-120915026D01*
X152922595Y-120952999D01*
X152922604Y-120953000D01*
X153177396Y-120953000D01*
X153177404Y-120952999D01*
X153429341Y-120915026D01*
X153429347Y-120915024D01*
X153672824Y-120839921D01*
X153902381Y-120729373D01*
X154063185Y-120619737D01*
X153377856Y-119934409D01*
X153344371Y-119873086D01*
X153349355Y-119803395D01*
X153390049Y-119748353D01*
X153477925Y-119680925D01*
X153545354Y-119593048D01*
X153601779Y-119551848D01*
X153671525Y-119547693D01*
X153731409Y-119580856D01*
X154416545Y-120265993D01*
X154458545Y-120213327D01*
X154585941Y-119992671D01*
X154679026Y-119755494D01*
X154679031Y-119755477D01*
X154735726Y-119507079D01*
X154754767Y-119253004D01*
X154754767Y-119252995D01*
X154735726Y-118998920D01*
X154679031Y-118750522D01*
X154679026Y-118750505D01*
X154585941Y-118513328D01*
X154585942Y-118513328D01*
X154458544Y-118292671D01*
X154416545Y-118240005D01*
X153731409Y-118925142D01*
X153670086Y-118958627D01*
X153600394Y-118953643D01*
X153545353Y-118912948D01*
X153477925Y-118825075D01*
X153440944Y-118796699D01*
X153390049Y-118757645D01*
X153348847Y-118701219D01*
X153344692Y-118631473D01*
X153377855Y-118571590D01*
X154063185Y-117886261D01*
X153902377Y-117776624D01*
X153902376Y-117776623D01*
X153672823Y-117666078D01*
X153672825Y-117666078D01*
X153429347Y-117590975D01*
X153429341Y-117590973D01*
X153177404Y-117553000D01*
X152922595Y-117553000D01*
X152670658Y-117590973D01*
X152670652Y-117590975D01*
X152427175Y-117666078D01*
X152197624Y-117776623D01*
X152197616Y-117776628D01*
X152036813Y-117886261D01*
X152722143Y-118571590D01*
X152755628Y-118632913D01*
X152750644Y-118702604D01*
X152709949Y-118757646D01*
X152622075Y-118825074D01*
X152622074Y-118825075D01*
X152554646Y-118912949D01*
X152498218Y-118954151D01*
X152428472Y-118958306D01*
X152368590Y-118925143D01*
X151683453Y-118240006D01*
X151641455Y-118292670D01*
X151514058Y-118513328D01*
X151420973Y-118750505D01*
X151420968Y-118750522D01*
X151420891Y-118750860D01*
X151420830Y-118750968D01*
X151419600Y-118754956D01*
X151418747Y-118754692D01*
X151386782Y-118811838D01*
X151325121Y-118844696D01*
X151255484Y-118839001D01*
X151199980Y-118796561D01*
X151180907Y-118754799D01*
X151180400Y-118754956D01*
X151179192Y-118751043D01*
X151179109Y-118750860D01*
X151179031Y-118750522D01*
X151179026Y-118750505D01*
X151085941Y-118513328D01*
X151085942Y-118513328D01*
X150958544Y-118292671D01*
X150916545Y-118240005D01*
X150231409Y-118925142D01*
X150170086Y-118958627D01*
X150100394Y-118953643D01*
X150045353Y-118912948D01*
X149977925Y-118825075D01*
X149940944Y-118796699D01*
X149890049Y-118757645D01*
X149848847Y-118701219D01*
X149844692Y-118631473D01*
X149877855Y-118571590D01*
X150563185Y-117886261D01*
X150402377Y-117776624D01*
X150402376Y-117776623D01*
X150172823Y-117666078D01*
X150172825Y-117666078D01*
X149929347Y-117590975D01*
X149929341Y-117590973D01*
X149677404Y-117553000D01*
X149422595Y-117553000D01*
X149170658Y-117590973D01*
X149170652Y-117590975D01*
X148927175Y-117666078D01*
X148697624Y-117776623D01*
X148697616Y-117776628D01*
X148536813Y-117886261D01*
X149222143Y-118571590D01*
X149255628Y-118632913D01*
X149250644Y-118702604D01*
X149209949Y-118757646D01*
X149122075Y-118825074D01*
X149122074Y-118825075D01*
X149054646Y-118912949D01*
X148998218Y-118954151D01*
X148928472Y-118958306D01*
X148868590Y-118925143D01*
X148183453Y-118240006D01*
X148141455Y-118292670D01*
X148014058Y-118513328D01*
X147920973Y-118750505D01*
X147920968Y-118750522D01*
X147864273Y-118998920D01*
X147845233Y-119252995D01*
X147845233Y-119253004D01*
X147450500Y-119253004D01*
X147450500Y-118033249D01*
X147450499Y-118033247D01*
X147438868Y-117974770D01*
X147438867Y-117974769D01*
X147394552Y-117908447D01*
X147328230Y-117864132D01*
X147328229Y-117864131D01*
X147269752Y-117852500D01*
X147269748Y-117852500D01*
X144830252Y-117852500D01*
X144830247Y-117852500D01*
X144771770Y-117864131D01*
X144771769Y-117864132D01*
X144705447Y-117908447D01*
X144661132Y-117974769D01*
X144661131Y-117974770D01*
X144649500Y-118033247D01*
X144649500Y-120472752D01*
X142952049Y-120472752D01*
X142935693Y-120171099D01*
X142935691Y-120171082D01*
X142878680Y-119823332D01*
X142878674Y-119823306D01*
X142784399Y-119483756D01*
X142784397Y-119483749D01*
X142653956Y-119156365D01*
X142653947Y-119156347D01*
X142488875Y-118844988D01*
X142291099Y-118553291D01*
X142168085Y-118408467D01*
X142168084Y-118408466D01*
X141092586Y-119483965D01*
X141031263Y-119517450D01*
X140961571Y-119512466D01*
X140910615Y-119476816D01*
X140889296Y-119451855D01*
X140834870Y-119388130D01*
X140746179Y-119312381D01*
X140707989Y-119253878D01*
X140707489Y-119184010D01*
X140739032Y-119130413D01*
X141817374Y-118052072D01*
X141807099Y-118042340D01*
X141807087Y-118042330D01*
X141526539Y-117829061D01*
X141526535Y-117829058D01*
X141224554Y-117647364D01*
X140904726Y-117499396D01*
X140570743Y-117386863D01*
X140485504Y-117368101D01*
X140424263Y-117334465D01*
X140390929Y-117273060D01*
X140396085Y-117203380D01*
X140438094Y-117147550D01*
X140503619Y-117123295D01*
X140512160Y-117123000D01*
X140843828Y-117123000D01*
X140843844Y-117122999D01*
X140903372Y-117116598D01*
X140903379Y-117116596D01*
X141038086Y-117066354D01*
X141038093Y-117066350D01*
X141153187Y-116980190D01*
X141153190Y-116980187D01*
X141239350Y-116865093D01*
X141239354Y-116865086D01*
X141289596Y-116730379D01*
X141289598Y-116730372D01*
X141295999Y-116670844D01*
X141296000Y-116670827D01*
X141296000Y-115923000D01*
X139496000Y-115923000D01*
X139496000Y-116670844D01*
X139502401Y-116730372D01*
X139502403Y-116730379D01*
X139552645Y-116865086D01*
X139552649Y-116865093D01*
X139638809Y-116980187D01*
X139638812Y-116980190D01*
X139731710Y-117049734D01*
X139773581Y-117105668D01*
X139778565Y-117175359D01*
X139745079Y-117236682D01*
X139683756Y-117270166D01*
X139657399Y-117273000D01*
X139523788Y-117273000D01*
X139173437Y-117311103D01*
X138829256Y-117386863D01*
X138495273Y-117499396D01*
X138175445Y-117647364D01*
X137873464Y-117829058D01*
X137873460Y-117829061D01*
X137592906Y-118042334D01*
X137582625Y-118052071D01*
X137582625Y-118052073D01*
X138660966Y-119130413D01*
X138694451Y-119191736D01*
X138689467Y-119261428D01*
X138653817Y-119312384D01*
X138565130Y-119388130D01*
X138489384Y-119476817D01*
X138430877Y-119515010D01*
X138361009Y-119515508D01*
X138307413Y-119483966D01*
X137231914Y-118408466D01*
X137231913Y-118408466D01*
X137109009Y-118553164D01*
X137050606Y-118591516D01*
X136980740Y-118592205D01*
X136921592Y-118555012D01*
X136891942Y-118491745D01*
X136890500Y-118472889D01*
X136890500Y-115696999D01*
X137162353Y-115696999D01*
X137182834Y-115839456D01*
X137220988Y-115923000D01*
X137242623Y-115970373D01*
X137336872Y-116079143D01*
X137457947Y-116156953D01*
X137457950Y-116156954D01*
X137457949Y-116156954D01*
X137521450Y-116175599D01*
X137592827Y-116196557D01*
X137596036Y-116197499D01*
X137596038Y-116197500D01*
X137596039Y-116197500D01*
X137739962Y-116197500D01*
X137748740Y-116196238D01*
X137749064Y-116198498D01*
X137806426Y-116198494D01*
X137865207Y-116236265D01*
X137894237Y-116299818D01*
X137895500Y-116317474D01*
X137895500Y-116642752D01*
X137907131Y-116701229D01*
X137907132Y-116701230D01*
X137951447Y-116767552D01*
X138017769Y-116811867D01*
X138017770Y-116811868D01*
X138076247Y-116823499D01*
X138076250Y-116823500D01*
X138076252Y-116823500D01*
X138915750Y-116823500D01*
X138915751Y-116823499D01*
X138930568Y-116820552D01*
X138974229Y-116811868D01*
X138974229Y-116811867D01*
X138974231Y-116811867D01*
X139040552Y-116767552D01*
X139084867Y-116701231D01*
X139084867Y-116701229D01*
X139084868Y-116701229D01*
X139096499Y-116642752D01*
X139096500Y-116642750D01*
X139096500Y-115423000D01*
X139496000Y-115423000D01*
X140146000Y-115423000D01*
X140146000Y-114223000D01*
X140646000Y-114223000D01*
X140646000Y-115423000D01*
X141296000Y-115423000D01*
X141296000Y-114675172D01*
X141295999Y-114675155D01*
X141289598Y-114615627D01*
X141289596Y-114615620D01*
X141239354Y-114480913D01*
X141239350Y-114480906D01*
X141153190Y-114365812D01*
X141153187Y-114365809D01*
X141038093Y-114279649D01*
X141038086Y-114279645D01*
X140903379Y-114229403D01*
X140903372Y-114229401D01*
X140843844Y-114223000D01*
X140646000Y-114223000D01*
X140146000Y-114223000D01*
X139948155Y-114223000D01*
X139888627Y-114229401D01*
X139888620Y-114229403D01*
X139753913Y-114279645D01*
X139753906Y-114279649D01*
X139638812Y-114365809D01*
X139638809Y-114365812D01*
X139552649Y-114480906D01*
X139552645Y-114480913D01*
X139502403Y-114615620D01*
X139502401Y-114615627D01*
X139496000Y-114675155D01*
X139496000Y-115423000D01*
X139096500Y-115423000D01*
X139096500Y-114703249D01*
X139096499Y-114703247D01*
X139084868Y-114644770D01*
X139084867Y-114644769D01*
X139040552Y-114578447D01*
X138974230Y-114534132D01*
X138974229Y-114534131D01*
X138915752Y-114522500D01*
X138915748Y-114522500D01*
X138076252Y-114522500D01*
X138076247Y-114522500D01*
X138017770Y-114534131D01*
X138017769Y-114534132D01*
X137951447Y-114578447D01*
X137907132Y-114644769D01*
X137907131Y-114644770D01*
X137895500Y-114703247D01*
X137895500Y-115076525D01*
X137875815Y-115143564D01*
X137823011Y-115189319D01*
X137753853Y-115199263D01*
X137743462Y-115197003D01*
X137739962Y-115196500D01*
X137739961Y-115196500D01*
X137596039Y-115196500D01*
X137596036Y-115196500D01*
X137457949Y-115237045D01*
X137336873Y-115314856D01*
X137242623Y-115423626D01*
X137242622Y-115423628D01*
X137182834Y-115554543D01*
X137162353Y-115696999D01*
X136890500Y-115696999D01*
X136890500Y-109347000D01*
X137524540Y-109347000D01*
X137544326Y-109535256D01*
X137544327Y-109535259D01*
X137602818Y-109715277D01*
X137602821Y-109715284D01*
X137697466Y-109879215D01*
X137697648Y-109879417D01*
X137697716Y-109879559D01*
X137701285Y-109884471D01*
X137700386Y-109885123D01*
X137727879Y-109942408D01*
X137729500Y-109962391D01*
X137729500Y-111633951D01*
X137729387Y-111637696D01*
X137725642Y-111699603D01*
X137725642Y-111699605D01*
X137736821Y-111760612D01*
X137737384Y-111764313D01*
X137744859Y-111825870D01*
X137744860Y-111825874D01*
X137748451Y-111835343D01*
X137754474Y-111856946D01*
X137756304Y-111866930D01*
X137781759Y-111923490D01*
X137783189Y-111926941D01*
X137805182Y-111984930D01*
X137809683Y-111991451D01*
X137810936Y-111993266D01*
X137821961Y-112012813D01*
X137826120Y-112022055D01*
X137826122Y-112022057D01*
X137862996Y-112069124D01*
X137864371Y-112070878D01*
X137866591Y-112073896D01*
X137901812Y-112124924D01*
X137901816Y-112124928D01*
X137901817Y-112124929D01*
X137948250Y-112166064D01*
X137950941Y-112168598D01*
X138396485Y-112614142D01*
X138809181Y-113026838D01*
X138842666Y-113088161D01*
X138845500Y-113114519D01*
X138845500Y-113642752D01*
X138857131Y-113701229D01*
X138857132Y-113701230D01*
X138901447Y-113767552D01*
X138967769Y-113811867D01*
X138967770Y-113811868D01*
X139026247Y-113823499D01*
X139026250Y-113823500D01*
X139026252Y-113823500D01*
X139865750Y-113823500D01*
X139865751Y-113823499D01*
X139880568Y-113820552D01*
X139924229Y-113811868D01*
X139924229Y-113811867D01*
X139924231Y-113811867D01*
X139990552Y-113767552D01*
X140034867Y-113701231D01*
X140034867Y-113701229D01*
X140034868Y-113701229D01*
X140046499Y-113642752D01*
X140046500Y-113642750D01*
X140046500Y-113497500D01*
X140066185Y-113430461D01*
X140118989Y-113384706D01*
X140170500Y-113373500D01*
X142291500Y-113373500D01*
X142358539Y-113393185D01*
X142404294Y-113445989D01*
X142415500Y-113497500D01*
X142415500Y-114619269D01*
X142418353Y-114649699D01*
X142418353Y-114649701D01*
X142463206Y-114777880D01*
X142463207Y-114777882D01*
X142543850Y-114887150D01*
X142653118Y-114967793D01*
X142695845Y-114982744D01*
X142781299Y-115012646D01*
X142811730Y-115015500D01*
X142811734Y-115015500D01*
X145920270Y-115015500D01*
X145950699Y-115012646D01*
X145950701Y-115012646D01*
X146014790Y-114990219D01*
X146078882Y-114967793D01*
X146188150Y-114887150D01*
X146268793Y-114777882D01*
X146307315Y-114667793D01*
X146313646Y-114649701D01*
X146313646Y-114649699D01*
X146316500Y-114619269D01*
X146316500Y-112710730D01*
X146313646Y-112680300D01*
X146313646Y-112680298D01*
X146278252Y-112579150D01*
X146268793Y-112552118D01*
X146188150Y-112442850D01*
X146078882Y-112362207D01*
X146078880Y-112362206D01*
X145950700Y-112317353D01*
X145920270Y-112314500D01*
X145920266Y-112314500D01*
X144057519Y-112314500D01*
X143990480Y-112294815D01*
X143969838Y-112278181D01*
X143933108Y-112241451D01*
X143885598Y-112193941D01*
X143883064Y-112191250D01*
X143841929Y-112144817D01*
X143841928Y-112144816D01*
X143841924Y-112144812D01*
X143790896Y-112109591D01*
X143787887Y-112107377D01*
X143743176Y-112072349D01*
X143739060Y-112069124D01*
X143739055Y-112069120D01*
X143729813Y-112064961D01*
X143710266Y-112053936D01*
X143708657Y-112052826D01*
X143701930Y-112048182D01*
X143643941Y-112026189D01*
X143640490Y-112024759D01*
X143583930Y-111999304D01*
X143573946Y-111997474D01*
X143552343Y-111991451D01*
X143542874Y-111987860D01*
X143542870Y-111987859D01*
X143481313Y-111980384D01*
X143477612Y-111979821D01*
X143416608Y-111968642D01*
X143416603Y-111968642D01*
X143354697Y-111972387D01*
X143350952Y-111972500D01*
X140170500Y-111972500D01*
X140103461Y-111952815D01*
X140057706Y-111900011D01*
X140046500Y-111848500D01*
X140046500Y-111703249D01*
X140046499Y-111703247D01*
X140034868Y-111644770D01*
X140034867Y-111644769D01*
X139990552Y-111578447D01*
X139924230Y-111534132D01*
X139924229Y-111534131D01*
X139865752Y-111522500D01*
X139865748Y-111522500D01*
X139337519Y-111522500D01*
X139270480Y-111502815D01*
X139249838Y-111486181D01*
X139166819Y-111403162D01*
X139133334Y-111341839D01*
X139130500Y-111315481D01*
X139130500Y-110069519D01*
X139131312Y-110066752D01*
X145149500Y-110066752D01*
X145161131Y-110125229D01*
X145161132Y-110125230D01*
X145205447Y-110191552D01*
X145271769Y-110235867D01*
X145271770Y-110235868D01*
X145330247Y-110247499D01*
X145330250Y-110247500D01*
X145330252Y-110247500D01*
X145335995Y-110247500D01*
X145403034Y-110267185D01*
X145439518Y-110309290D01*
X145442245Y-110307643D01*
X145446124Y-110314060D01*
X145460828Y-110332828D01*
X145479875Y-110357140D01*
X145484371Y-110362878D01*
X145486591Y-110365896D01*
X145521812Y-110416924D01*
X145521816Y-110416928D01*
X145521817Y-110416929D01*
X145568250Y-110458064D01*
X145570941Y-110460598D01*
X146744295Y-111633951D01*
X147779181Y-112668837D01*
X147812666Y-112730160D01*
X147815500Y-112756518D01*
X147815500Y-114619269D01*
X147818353Y-114649699D01*
X147818353Y-114649701D01*
X147863206Y-114777880D01*
X147863207Y-114777882D01*
X147943850Y-114887150D01*
X148053118Y-114967793D01*
X148095845Y-114982744D01*
X148181299Y-115012646D01*
X148211730Y-115015500D01*
X148211734Y-115015500D01*
X151320270Y-115015500D01*
X151350699Y-115012646D01*
X151350701Y-115012646D01*
X151414790Y-114990219D01*
X151478882Y-114967793D01*
X151588150Y-114887150D01*
X151668793Y-114777882D01*
X151707315Y-114667793D01*
X151713646Y-114649701D01*
X151713646Y-114649699D01*
X151716500Y-114619269D01*
X151716500Y-114489500D01*
X151736185Y-114422461D01*
X151788989Y-114376706D01*
X151840500Y-114365500D01*
X151943500Y-114365500D01*
X152010539Y-114385185D01*
X152056294Y-114437989D01*
X152067500Y-114489500D01*
X152067500Y-114619269D01*
X152070353Y-114649699D01*
X152070353Y-114649701D01*
X152115206Y-114777880D01*
X152115207Y-114777882D01*
X152195850Y-114887150D01*
X152305118Y-114967793D01*
X152347845Y-114982744D01*
X152433299Y-115012646D01*
X152463730Y-115015500D01*
X152463734Y-115015500D01*
X155572270Y-115015500D01*
X155602699Y-115012646D01*
X155602701Y-115012646D01*
X155666790Y-114990219D01*
X155730882Y-114967793D01*
X155840150Y-114887150D01*
X155920793Y-114777882D01*
X155959315Y-114667793D01*
X155965646Y-114649701D01*
X155965646Y-114649699D01*
X155968500Y-114619269D01*
X155968500Y-112710730D01*
X155965646Y-112680300D01*
X155965646Y-112680298D01*
X155930252Y-112579150D01*
X155920793Y-112552118D01*
X155840150Y-112442850D01*
X155821250Y-112428901D01*
X155779000Y-112373254D01*
X155773543Y-112303597D01*
X155806610Y-112242048D01*
X155807006Y-112241649D01*
X158259836Y-109788819D01*
X158321160Y-109755334D01*
X158347518Y-109752500D01*
X160210270Y-109752500D01*
X160240699Y-109749646D01*
X160246435Y-109747639D01*
X160266942Y-109740462D01*
X160336721Y-109736899D01*
X160397349Y-109771626D01*
X160429578Y-109833619D01*
X160431900Y-109857503D01*
X160431900Y-111962635D01*
X160412215Y-112029674D01*
X160395581Y-112050316D01*
X160167716Y-112278181D01*
X160106393Y-112311666D01*
X160080035Y-112314500D01*
X157863730Y-112314500D01*
X157833300Y-112317353D01*
X157833298Y-112317353D01*
X157705119Y-112362206D01*
X157705117Y-112362207D01*
X157595850Y-112442850D01*
X157515207Y-112552117D01*
X157515206Y-112552119D01*
X157470353Y-112680298D01*
X157470353Y-112680300D01*
X157467500Y-112710730D01*
X157467500Y-114619269D01*
X157470353Y-114649696D01*
X157515207Y-114777883D01*
X157516729Y-114779945D01*
X157517696Y-114782593D01*
X157519548Y-114786097D01*
X157519068Y-114786350D01*
X157540699Y-114845574D01*
X157525381Y-114913744D01*
X157504638Y-114941257D01*
X156251804Y-116194092D01*
X156246617Y-116198727D01*
X156216033Y-116223117D01*
X156216029Y-116223121D01*
X156182519Y-116272271D01*
X156147206Y-116320118D01*
X156143216Y-116327667D01*
X156139528Y-116335326D01*
X156121992Y-116392177D01*
X156102353Y-116448301D01*
X156100771Y-116456659D01*
X156099500Y-116465100D01*
X156099500Y-116524573D01*
X156097275Y-116584009D01*
X156098316Y-116593243D01*
X156097485Y-116593336D01*
X156099500Y-116608635D01*
X156099500Y-117838392D01*
X156079815Y-117905431D01*
X156027011Y-117951186D01*
X156015764Y-117955673D01*
X155985501Y-117966062D01*
X155985495Y-117966064D01*
X155781371Y-118076531D01*
X155781365Y-118076535D01*
X155598222Y-118219081D01*
X155598219Y-118219084D01*
X155598216Y-118219086D01*
X155598216Y-118219087D01*
X155583107Y-118235500D01*
X155441016Y-118389852D01*
X155314075Y-118584151D01*
X155220842Y-118796699D01*
X155163866Y-119021691D01*
X155163864Y-119021702D01*
X155144700Y-119252993D01*
X155144700Y-119253006D01*
X155163864Y-119484297D01*
X155163866Y-119484308D01*
X155220842Y-119709300D01*
X155314075Y-119921848D01*
X155441016Y-120116147D01*
X155441019Y-120116151D01*
X155441021Y-120116153D01*
X155598216Y-120286913D01*
X155598219Y-120286915D01*
X155598222Y-120286918D01*
X155781365Y-120429464D01*
X155781371Y-120429468D01*
X155781374Y-120429470D01*
X155861352Y-120472752D01*
X155954196Y-120522997D01*
X155985497Y-120539936D01*
X156099487Y-120579068D01*
X156205015Y-120615297D01*
X156205017Y-120615297D01*
X156205019Y-120615298D01*
X156433951Y-120653500D01*
X156433952Y-120653500D01*
X156666048Y-120653500D01*
X156666049Y-120653500D01*
X156894981Y-120615298D01*
X157114503Y-120539936D01*
X157318626Y-120429470D01*
X157501784Y-120286913D01*
X157658979Y-120116153D01*
X157785924Y-119921849D01*
X157879157Y-119709300D01*
X157936134Y-119484305D01*
X157936162Y-119483966D01*
X157955300Y-119253006D01*
X157955300Y-119252993D01*
X157936135Y-119021702D01*
X157936133Y-119021691D01*
X157879157Y-118796699D01*
X157785924Y-118584151D01*
X157658983Y-118389852D01*
X157658980Y-118389849D01*
X157658979Y-118389847D01*
X157501784Y-118219087D01*
X157501779Y-118219083D01*
X157501777Y-118219081D01*
X157318634Y-118076535D01*
X157318628Y-118076531D01*
X157114504Y-117966064D01*
X157114498Y-117966062D01*
X157084236Y-117955673D01*
X157027221Y-117915287D01*
X157001091Y-117850487D01*
X157000500Y-117838392D01*
X157000500Y-116770966D01*
X157020185Y-116703927D01*
X157036819Y-116683285D01*
X158668285Y-115051819D01*
X158729608Y-115018334D01*
X158755966Y-115015500D01*
X160972270Y-115015500D01*
X161002699Y-115012646D01*
X161002701Y-115012646D01*
X161066790Y-114990219D01*
X161130882Y-114967793D01*
X161240150Y-114887150D01*
X161320793Y-114777882D01*
X161359315Y-114667793D01*
X161365646Y-114649701D01*
X161365646Y-114649699D01*
X161368500Y-114619269D01*
X161368500Y-112710730D01*
X161365646Y-112680300D01*
X161365646Y-112680298D01*
X161330252Y-112579150D01*
X161320793Y-112552118D01*
X161303430Y-112528592D01*
X161279460Y-112462965D01*
X161290306Y-112407207D01*
X161290132Y-112407154D01*
X161290634Y-112405526D01*
X161291486Y-112401147D01*
X161292865Y-112398282D01*
X161292872Y-112398273D01*
X161310321Y-112341701D01*
X161310405Y-112341430D01*
X161330046Y-112285300D01*
X161331627Y-112276941D01*
X161332900Y-112268499D01*
X161332900Y-112209026D01*
X161335124Y-112149592D01*
X161334084Y-112140361D01*
X161334913Y-112140267D01*
X161332900Y-112124966D01*
X161332900Y-94251577D01*
X161352585Y-94184538D01*
X161357120Y-94177957D01*
X161380793Y-94145882D01*
X161399074Y-94093636D01*
X161439792Y-94036864D01*
X161464612Y-94023917D01*
X161463880Y-94022398D01*
X161465274Y-94021726D01*
X161474867Y-94018569D01*
X161479647Y-94016076D01*
X161480473Y-94015821D01*
X161488469Y-94013024D01*
X161488470Y-94013023D01*
X161488472Y-94013023D01*
X161517141Y-93997870D01*
X161575085Y-93983500D01*
X161614324Y-93983500D01*
X161681363Y-94003185D01*
X161717425Y-94038608D01*
X161743446Y-94077551D01*
X161809769Y-94121867D01*
X161809770Y-94121868D01*
X161868247Y-94133499D01*
X161868250Y-94133500D01*
X161868252Y-94133500D01*
X163665000Y-94133500D01*
X163732039Y-94153185D01*
X163777794Y-94205989D01*
X163789000Y-94257500D01*
X163789000Y-95216034D01*
X163769315Y-95283073D01*
X163752681Y-95303715D01*
X162863216Y-96193181D01*
X162801893Y-96226666D01*
X162775535Y-96229500D01*
X162146730Y-96229500D01*
X162116300Y-96232353D01*
X162116298Y-96232353D01*
X161988119Y-96277206D01*
X161988117Y-96277207D01*
X161878850Y-96357850D01*
X161798207Y-96467117D01*
X161798206Y-96467119D01*
X161753353Y-96595298D01*
X161753353Y-96595300D01*
X161750500Y-96625730D01*
X161750500Y-97684269D01*
X161753353Y-97714699D01*
X161753353Y-97714701D01*
X161798206Y-97842880D01*
X161798207Y-97842882D01*
X161878850Y-97952150D01*
X161988118Y-98032793D01*
X162030845Y-98047744D01*
X162116299Y-98077646D01*
X162146730Y-98080500D01*
X162146734Y-98080500D01*
X162930270Y-98080500D01*
X162960699Y-98077646D01*
X162960701Y-98077646D01*
X163027081Y-98054418D01*
X163088882Y-98032793D01*
X163198150Y-97952150D01*
X163278793Y-97842882D01*
X163308494Y-97758001D01*
X163323646Y-97714701D01*
X163323646Y-97714699D01*
X163326500Y-97684269D01*
X163326500Y-97055464D01*
X163346185Y-96988425D01*
X163362815Y-96967787D01*
X163613820Y-96716782D01*
X163675142Y-96683298D01*
X163744834Y-96688282D01*
X163800767Y-96730154D01*
X163825184Y-96795618D01*
X163825500Y-96804464D01*
X163825500Y-97684269D01*
X163828353Y-97714699D01*
X163828353Y-97714701D01*
X163873206Y-97842880D01*
X163873207Y-97842882D01*
X163953850Y-97952150D01*
X164063118Y-98032793D01*
X164105845Y-98047744D01*
X164191299Y-98077646D01*
X164221730Y-98080500D01*
X164221734Y-98080500D01*
X165005270Y-98080500D01*
X165035699Y-98077646D01*
X165035701Y-98077646D01*
X165102081Y-98054418D01*
X165163882Y-98032793D01*
X165273150Y-97952150D01*
X165353793Y-97842882D01*
X165383494Y-97758001D01*
X165398646Y-97714701D01*
X165400256Y-97707330D01*
X165402379Y-97707793D01*
X165424198Y-97653018D01*
X165481041Y-97612391D01*
X165521802Y-97605500D01*
X183453917Y-97605500D01*
X183460855Y-97605889D01*
X183492750Y-97609483D01*
X183499734Y-97610270D01*
X183499734Y-97610269D01*
X183499735Y-97610270D01*
X183558179Y-97599211D01*
X183616987Y-97590348D01*
X183616990Y-97590346D01*
X183625147Y-97587830D01*
X183633169Y-97585023D01*
X183633172Y-97585023D01*
X183685772Y-97557222D01*
X183739342Y-97531425D01*
X183739342Y-97531424D01*
X183739344Y-97531424D01*
X183746386Y-97526622D01*
X183753231Y-97521569D01*
X183753238Y-97521566D01*
X183795299Y-97479503D01*
X183838894Y-97439055D01*
X183838896Y-97439051D01*
X183844690Y-97431786D01*
X183845346Y-97432309D01*
X183854732Y-97420070D01*
X186872175Y-94402626D01*
X186933496Y-94369143D01*
X186995850Y-94371649D01*
X187010120Y-94375977D01*
X187011669Y-94376447D01*
X187094613Y-94384616D01*
X187159401Y-94410776D01*
X187199760Y-94467811D01*
X187202877Y-94537611D01*
X187170141Y-94595700D01*
X179487880Y-102277961D01*
X179426557Y-102311446D01*
X179356865Y-102306462D01*
X179312518Y-102277961D01*
X179202824Y-102168267D01*
X179060498Y-102025941D01*
X179057964Y-102023250D01*
X179016829Y-101976817D01*
X179016828Y-101976816D01*
X179016824Y-101976812D01*
X178965796Y-101941591D01*
X178962787Y-101939377D01*
X178913960Y-101901124D01*
X178913955Y-101901120D01*
X178904713Y-101896961D01*
X178885166Y-101885936D01*
X178876831Y-101880183D01*
X178876832Y-101880183D01*
X178876830Y-101880182D01*
X178818841Y-101858189D01*
X178815390Y-101856759D01*
X178758830Y-101831304D01*
X178748846Y-101829474D01*
X178727243Y-101823451D01*
X178717774Y-101819860D01*
X178717770Y-101819859D01*
X178656213Y-101812384D01*
X178652512Y-101811821D01*
X178591508Y-101800642D01*
X178591503Y-101800642D01*
X178529597Y-101804387D01*
X178525852Y-101804500D01*
X167906540Y-101804500D01*
X167839501Y-101784815D01*
X167832907Y-101780270D01*
X167794886Y-101752209D01*
X167794880Y-101752206D01*
X167666700Y-101707353D01*
X167636270Y-101704500D01*
X167636266Y-101704500D01*
X166627734Y-101704500D01*
X166599058Y-101707189D01*
X166590507Y-101707991D01*
X166521922Y-101694650D01*
X166471438Y-101646348D01*
X166455082Y-101578420D01*
X166478047Y-101512432D01*
X166491242Y-101496859D01*
X167430205Y-100557896D01*
X167435373Y-100553277D01*
X167465970Y-100528879D01*
X167499480Y-100479728D01*
X167513982Y-100460077D01*
X167526063Y-100446039D01*
X169060284Y-98911819D01*
X169121607Y-98878334D01*
X169147965Y-98875500D01*
X171192273Y-98875500D01*
X171231004Y-98883926D01*
X171231437Y-98882455D01*
X171378036Y-98925499D01*
X171378038Y-98925500D01*
X171378039Y-98925500D01*
X171521962Y-98925500D01*
X171521962Y-98925499D01*
X171660053Y-98884953D01*
X171781128Y-98807143D01*
X171875377Y-98698373D01*
X171935165Y-98567457D01*
X171955647Y-98425000D01*
X171935165Y-98282543D01*
X171875377Y-98151627D01*
X171781128Y-98042857D01*
X171660053Y-97965047D01*
X171660051Y-97965046D01*
X171660049Y-97965045D01*
X171660050Y-97965045D01*
X171521963Y-97924500D01*
X171521961Y-97924500D01*
X171378039Y-97924500D01*
X171378036Y-97924500D01*
X171231437Y-97967545D01*
X171231004Y-97966073D01*
X171192273Y-97974500D01*
X168938783Y-97974500D01*
X168931844Y-97974110D01*
X168917569Y-97972502D01*
X168892964Y-97969729D01*
X168834511Y-97980789D01*
X168775711Y-97989652D01*
X168767556Y-97992167D01*
X168759530Y-97994975D01*
X168759529Y-97994976D01*
X168759527Y-97994976D01*
X168759524Y-97994978D01*
X168706926Y-98022777D01*
X168653358Y-98048575D01*
X168646308Y-98053380D01*
X168639461Y-98058435D01*
X168618437Y-98079458D01*
X168597413Y-98100483D01*
X168573770Y-98122420D01*
X168553803Y-98140947D01*
X168548013Y-98148208D01*
X168547362Y-98147688D01*
X168537967Y-98159928D01*
X166833804Y-99864092D01*
X166828617Y-99868727D01*
X166798033Y-99893117D01*
X166798031Y-99893120D01*
X166764517Y-99942272D01*
X166750013Y-99961925D01*
X166737925Y-99975970D01*
X165645629Y-101068267D01*
X165584306Y-101101752D01*
X165514614Y-101096768D01*
X165470267Y-101068267D01*
X165434000Y-101032000D01*
X164697347Y-101032000D01*
X164630308Y-101012315D01*
X164584553Y-100959511D01*
X164574609Y-100890353D01*
X164578369Y-100873067D01*
X164584000Y-100853888D01*
X164584000Y-100710111D01*
X164578369Y-100690933D01*
X164578370Y-100621064D01*
X164616145Y-100562286D01*
X164679701Y-100533262D01*
X164697347Y-100532000D01*
X165434000Y-100532000D01*
X165434000Y-99884172D01*
X165433999Y-99884155D01*
X165427598Y-99824627D01*
X165427596Y-99824620D01*
X165377354Y-99689913D01*
X165377350Y-99689906D01*
X165291190Y-99574812D01*
X165291187Y-99574809D01*
X165176093Y-99488649D01*
X165176086Y-99488645D01*
X165041379Y-99438403D01*
X165041372Y-99438401D01*
X164981844Y-99432000D01*
X164334000Y-99432000D01*
X164334000Y-100169698D01*
X164314315Y-100236737D01*
X164261511Y-100282492D01*
X164192355Y-100292436D01*
X164119766Y-100282000D01*
X164119763Y-100282000D01*
X164048237Y-100282000D01*
X164048233Y-100282000D01*
X163975645Y-100292436D01*
X163906487Y-100282492D01*
X163853684Y-100236736D01*
X163834000Y-100169698D01*
X163834000Y-99432000D01*
X163186155Y-99432000D01*
X163126627Y-99438401D01*
X163126620Y-99438403D01*
X162991913Y-99488645D01*
X162991906Y-99488649D01*
X162876812Y-99574809D01*
X162876809Y-99574812D01*
X162790649Y-99689906D01*
X162790645Y-99689913D01*
X162740403Y-99824620D01*
X162740401Y-99824627D01*
X162734000Y-99884155D01*
X162734000Y-100532000D01*
X163470653Y-100532000D01*
X163537692Y-100551685D01*
X163583447Y-100604489D01*
X163593391Y-100673647D01*
X163589631Y-100690933D01*
X163584000Y-100710111D01*
X163584000Y-100853888D01*
X163589631Y-100873067D01*
X163589630Y-100942936D01*
X163551855Y-101001714D01*
X163488299Y-101030738D01*
X163470653Y-101032000D01*
X162734000Y-101032000D01*
X162734000Y-101679844D01*
X162740401Y-101739372D01*
X162740403Y-101739379D01*
X162790645Y-101874086D01*
X162790649Y-101874093D01*
X162876809Y-101989187D01*
X162876812Y-101989190D01*
X162991906Y-102075350D01*
X162991913Y-102075354D01*
X163126620Y-102125596D01*
X163126627Y-102125598D01*
X163186155Y-102131999D01*
X163186172Y-102132000D01*
X163834000Y-102132000D01*
X163834000Y-101394301D01*
X163853685Y-101327262D01*
X163906489Y-101281507D01*
X163975647Y-101271563D01*
X164048237Y-101282000D01*
X164048238Y-101282000D01*
X164119762Y-101282000D01*
X164119763Y-101282000D01*
X164192353Y-101271563D01*
X164261512Y-101281507D01*
X164314315Y-101327262D01*
X164334000Y-101394301D01*
X164334000Y-102132000D01*
X164370267Y-102168267D01*
X164403752Y-102229590D01*
X164398768Y-102299282D01*
X164370267Y-102343629D01*
X163383716Y-103330181D01*
X163322393Y-103363666D01*
X163296035Y-103366500D01*
X162679730Y-103366500D01*
X162649300Y-103369353D01*
X162649298Y-103369353D01*
X162521119Y-103414206D01*
X162521117Y-103414207D01*
X162411850Y-103494850D01*
X162331207Y-103604117D01*
X162331206Y-103604119D01*
X162286353Y-103732298D01*
X162286353Y-103732300D01*
X162283500Y-103762730D01*
X162283500Y-104379034D01*
X162263815Y-104446073D01*
X162247181Y-104466715D01*
X161950704Y-104763192D01*
X161945517Y-104767827D01*
X161914933Y-104792217D01*
X161914929Y-104792221D01*
X161881419Y-104841371D01*
X161846106Y-104889218D01*
X161842116Y-104896767D01*
X161838428Y-104904426D01*
X161820892Y-104961277D01*
X161801253Y-105017401D01*
X161799671Y-105025759D01*
X161798400Y-105034200D01*
X161798400Y-105093673D01*
X161796175Y-105153109D01*
X161797216Y-105162343D01*
X161796385Y-105162436D01*
X161798400Y-105177735D01*
X161798400Y-115848134D01*
X161778715Y-115915173D01*
X161762081Y-115935815D01*
X160483804Y-117214092D01*
X160478617Y-117218727D01*
X160448033Y-117243117D01*
X160448029Y-117243121D01*
X160414519Y-117292271D01*
X160379206Y-117340118D01*
X160375216Y-117347667D01*
X160371528Y-117355326D01*
X160353992Y-117412177D01*
X160334353Y-117468301D01*
X160332771Y-117476659D01*
X160331500Y-117485100D01*
X160331500Y-117544573D01*
X160329275Y-117604009D01*
X160330316Y-117613243D01*
X160329485Y-117613336D01*
X160331500Y-117628635D01*
X160331500Y-117728500D01*
X160311815Y-117795539D01*
X160259011Y-117841294D01*
X160207500Y-117852500D01*
X159562247Y-117852500D01*
X159503770Y-117864131D01*
X159503769Y-117864132D01*
X159437447Y-117908447D01*
X159393132Y-117974769D01*
X159393131Y-117974770D01*
X159381500Y-118033247D01*
X159381500Y-120472752D01*
X159393131Y-120531229D01*
X159393132Y-120531230D01*
X159437447Y-120597552D01*
X159503769Y-120641867D01*
X159503770Y-120641868D01*
X159562247Y-120653499D01*
X159562250Y-120653500D01*
X159562252Y-120653500D01*
X162001750Y-120653500D01*
X162001751Y-120653499D01*
X162016568Y-120650552D01*
X162060229Y-120641868D01*
X162060229Y-120641867D01*
X162060231Y-120641867D01*
X162126552Y-120597552D01*
X162170867Y-120531231D01*
X162170867Y-120531229D01*
X162170868Y-120531229D01*
X162182499Y-120472752D01*
X162182500Y-120472750D01*
X162182500Y-118033249D01*
X162182499Y-118033247D01*
X162170868Y-117974770D01*
X162170867Y-117974769D01*
X162126552Y-117908447D01*
X162060230Y-117864132D01*
X162060229Y-117864131D01*
X162001752Y-117852500D01*
X162001748Y-117852500D01*
X161418965Y-117852500D01*
X161351926Y-117832815D01*
X161306171Y-117780011D01*
X161296227Y-117710853D01*
X161325252Y-117647297D01*
X161331284Y-117640819D01*
X161631985Y-117340118D01*
X162547105Y-116424996D01*
X162552273Y-116420377D01*
X162582870Y-116395979D01*
X162616380Y-116346828D01*
X162651693Y-116298982D01*
X162651694Y-116298979D01*
X162655687Y-116291424D01*
X162659370Y-116283776D01*
X162659370Y-116283775D01*
X162659372Y-116283773D01*
X162676907Y-116226922D01*
X162696546Y-116170799D01*
X162698132Y-116162411D01*
X162699400Y-116154004D01*
X162699400Y-116094526D01*
X162701624Y-116035092D01*
X162700584Y-116025861D01*
X162701413Y-116025767D01*
X162699400Y-116010466D01*
X162699400Y-107717356D01*
X162719085Y-107650317D01*
X162771889Y-107604562D01*
X162841047Y-107594618D01*
X162864358Y-107600316D01*
X162865301Y-107600646D01*
X162880517Y-107602073D01*
X162895730Y-107603500D01*
X162895734Y-107603500D01*
X163725634Y-107603500D01*
X163792673Y-107623185D01*
X163813315Y-107639819D01*
X164273401Y-108099905D01*
X164583316Y-108409819D01*
X164616801Y-108471142D01*
X164611817Y-108540833D01*
X164569945Y-108596767D01*
X164504481Y-108621184D01*
X164495635Y-108621500D01*
X163214247Y-108621500D01*
X163155770Y-108633131D01*
X163155769Y-108633132D01*
X163089447Y-108677447D01*
X163045132Y-108743769D01*
X163045131Y-108743770D01*
X163033500Y-108802247D01*
X163033500Y-110541752D01*
X163045131Y-110600229D01*
X163045132Y-110600230D01*
X163089447Y-110666552D01*
X163155769Y-110710867D01*
X163155770Y-110710868D01*
X163214247Y-110722499D01*
X163214250Y-110722500D01*
X163214252Y-110722500D01*
X164809700Y-110722500D01*
X164876739Y-110742185D01*
X164922494Y-110794989D01*
X164933700Y-110846500D01*
X164933700Y-117822325D01*
X164914015Y-117889364D01*
X164861211Y-117935119D01*
X164792053Y-117945063D01*
X164769438Y-117939606D01*
X164626986Y-117890702D01*
X164436204Y-117858867D01*
X164398049Y-117852500D01*
X164165951Y-117852500D01*
X164120164Y-117860140D01*
X163937015Y-117890702D01*
X163717504Y-117966061D01*
X163717495Y-117966064D01*
X163513371Y-118076531D01*
X163513365Y-118076535D01*
X163330222Y-118219081D01*
X163330219Y-118219084D01*
X163330216Y-118219086D01*
X163330216Y-118219087D01*
X163315107Y-118235500D01*
X163173016Y-118389852D01*
X163046075Y-118584151D01*
X162952842Y-118796699D01*
X162895866Y-119021691D01*
X162895864Y-119021702D01*
X162876700Y-119252993D01*
X162876700Y-119253006D01*
X162895864Y-119484297D01*
X162895866Y-119484308D01*
X162952842Y-119709300D01*
X163046075Y-119921848D01*
X163173016Y-120116147D01*
X163173019Y-120116151D01*
X163173021Y-120116153D01*
X163330216Y-120286913D01*
X163330219Y-120286915D01*
X163330222Y-120286918D01*
X163513365Y-120429464D01*
X163513371Y-120429468D01*
X163513374Y-120429470D01*
X163593352Y-120472752D01*
X163686196Y-120522997D01*
X163717497Y-120539936D01*
X163831487Y-120579068D01*
X163937015Y-120615297D01*
X163937017Y-120615297D01*
X163937019Y-120615298D01*
X164165951Y-120653500D01*
X164165952Y-120653500D01*
X164398048Y-120653500D01*
X164398049Y-120653500D01*
X164626981Y-120615298D01*
X164846503Y-120539936D01*
X165050626Y-120429470D01*
X165233784Y-120286913D01*
X165390979Y-120116153D01*
X165517924Y-119921849D01*
X165611157Y-119709300D01*
X165668134Y-119484305D01*
X165668162Y-119483966D01*
X165687300Y-119253006D01*
X165687300Y-119252993D01*
X165668135Y-119021702D01*
X165668133Y-119021691D01*
X165611157Y-118796699D01*
X165573307Y-118710410D01*
X165564404Y-118641110D01*
X165594381Y-118577998D01*
X165599164Y-118572937D01*
X165682405Y-118489696D01*
X165687573Y-118485077D01*
X165718170Y-118460679D01*
X165751680Y-118411528D01*
X165786993Y-118363682D01*
X165786994Y-118363679D01*
X165790978Y-118356141D01*
X165794674Y-118348468D01*
X165812206Y-118291627D01*
X165830269Y-118240006D01*
X165831846Y-118235500D01*
X165831846Y-118235495D01*
X165833428Y-118227136D01*
X165834700Y-118218699D01*
X165834700Y-118159226D01*
X165836924Y-118099792D01*
X165835884Y-118090561D01*
X165836713Y-118090467D01*
X165834700Y-118075166D01*
X165834700Y-108970265D01*
X165854385Y-108903226D01*
X165907189Y-108857471D01*
X165976347Y-108847527D01*
X166039903Y-108876552D01*
X166046381Y-108882584D01*
X167139981Y-109976184D01*
X167173466Y-110037507D01*
X167176300Y-110063865D01*
X167176300Y-117914469D01*
X167156615Y-117981508D01*
X167111319Y-118023523D01*
X167013376Y-118076528D01*
X167013365Y-118076535D01*
X166830222Y-118219081D01*
X166830219Y-118219084D01*
X166830216Y-118219086D01*
X166830216Y-118219087D01*
X166815107Y-118235500D01*
X166673016Y-118389852D01*
X166546075Y-118584151D01*
X166452842Y-118796699D01*
X166395866Y-119021691D01*
X166395864Y-119021702D01*
X166376700Y-119252993D01*
X166376700Y-119253006D01*
X166395864Y-119484297D01*
X166395866Y-119484308D01*
X166452842Y-119709300D01*
X166546075Y-119921848D01*
X166673016Y-120116147D01*
X166673019Y-120116151D01*
X166673021Y-120116153D01*
X166830216Y-120286913D01*
X166830219Y-120286915D01*
X166830222Y-120286918D01*
X167013365Y-120429464D01*
X167013371Y-120429468D01*
X167013374Y-120429470D01*
X167093352Y-120472752D01*
X167186196Y-120522997D01*
X167217497Y-120539936D01*
X167331487Y-120579068D01*
X167437015Y-120615297D01*
X167437017Y-120615297D01*
X167437019Y-120615298D01*
X167665951Y-120653500D01*
X167665952Y-120653500D01*
X167898048Y-120653500D01*
X167898049Y-120653500D01*
X168126981Y-120615298D01*
X168346503Y-120539936D01*
X168550626Y-120429470D01*
X168733784Y-120286913D01*
X168890979Y-120116153D01*
X169017924Y-119921849D01*
X169111157Y-119709300D01*
X169168134Y-119484305D01*
X169168162Y-119483966D01*
X169187300Y-119253006D01*
X169187300Y-119253004D01*
X169577233Y-119253004D01*
X169596273Y-119507079D01*
X169652968Y-119755477D01*
X169652973Y-119755494D01*
X169746058Y-119992671D01*
X169746057Y-119992671D01*
X169873457Y-120213332D01*
X169915452Y-120265993D01*
X170600590Y-119580855D01*
X170661913Y-119547370D01*
X170731604Y-119552354D01*
X170786645Y-119593049D01*
X170839019Y-119661304D01*
X170854075Y-119680925D01*
X170941948Y-119748353D01*
X170983150Y-119804781D01*
X170987305Y-119874527D01*
X170954142Y-119934409D01*
X170268813Y-120619737D01*
X170429623Y-120729375D01*
X170429624Y-120729376D01*
X170659176Y-120839921D01*
X170659174Y-120839921D01*
X170902652Y-120915024D01*
X170902658Y-120915026D01*
X171154595Y-120952999D01*
X171154604Y-120953000D01*
X171409396Y-120953000D01*
X171409404Y-120952999D01*
X171661341Y-120915026D01*
X171661347Y-120915024D01*
X171904824Y-120839921D01*
X172134381Y-120729373D01*
X172295185Y-120619737D01*
X171609856Y-119934409D01*
X171576371Y-119873086D01*
X171581355Y-119803395D01*
X171622049Y-119748353D01*
X171709925Y-119680925D01*
X171777354Y-119593048D01*
X171833779Y-119551848D01*
X171903525Y-119547693D01*
X171963409Y-119580856D01*
X172648545Y-120265993D01*
X172690545Y-120213327D01*
X172817941Y-119992671D01*
X172911026Y-119755494D01*
X172911031Y-119755477D01*
X172967726Y-119507079D01*
X172986767Y-119253004D01*
X172986767Y-119252995D01*
X172967726Y-118998920D01*
X172911031Y-118750522D01*
X172911026Y-118750505D01*
X172817941Y-118513328D01*
X172817942Y-118513328D01*
X172690544Y-118292671D01*
X172648545Y-118240005D01*
X171963409Y-118925142D01*
X171902086Y-118958627D01*
X171832394Y-118953643D01*
X171777353Y-118912948D01*
X171709925Y-118825075D01*
X171672944Y-118796699D01*
X171622049Y-118757645D01*
X171580847Y-118701219D01*
X171576692Y-118631473D01*
X171609855Y-118571590D01*
X172295185Y-117886261D01*
X172134377Y-117776624D01*
X172134376Y-117776623D01*
X171904823Y-117666078D01*
X171904825Y-117666078D01*
X171661347Y-117590975D01*
X171661341Y-117590973D01*
X171409404Y-117553000D01*
X171154595Y-117553000D01*
X170902658Y-117590973D01*
X170902652Y-117590975D01*
X170659175Y-117666078D01*
X170429624Y-117776623D01*
X170429616Y-117776628D01*
X170268813Y-117886261D01*
X170954143Y-118571590D01*
X170987628Y-118632913D01*
X170982644Y-118702604D01*
X170941949Y-118757646D01*
X170854075Y-118825074D01*
X170854074Y-118825075D01*
X170786646Y-118912949D01*
X170730218Y-118954151D01*
X170660472Y-118958306D01*
X170600590Y-118925143D01*
X169915453Y-118240006D01*
X169873455Y-118292670D01*
X169746058Y-118513328D01*
X169652973Y-118750505D01*
X169652968Y-118750522D01*
X169596273Y-118998920D01*
X169577233Y-119252995D01*
X169577233Y-119253004D01*
X169187300Y-119253004D01*
X169187300Y-119252993D01*
X169168135Y-119021702D01*
X169168133Y-119021691D01*
X169111157Y-118796699D01*
X169017924Y-118584151D01*
X168890983Y-118389852D01*
X168890980Y-118389849D01*
X168890979Y-118389847D01*
X168733784Y-118219087D01*
X168733779Y-118219083D01*
X168733777Y-118219081D01*
X168550634Y-118076535D01*
X168550628Y-118076531D01*
X168346504Y-117966064D01*
X168346495Y-117966061D01*
X168161037Y-117902393D01*
X168104022Y-117862008D01*
X168077891Y-117797208D01*
X168077300Y-117785112D01*
X168077300Y-114829321D01*
X168096985Y-114762282D01*
X168149789Y-114716527D01*
X168218947Y-114706583D01*
X168242258Y-114712281D01*
X168243301Y-114712646D01*
X168258517Y-114714073D01*
X168273730Y-114715500D01*
X168273734Y-114715500D01*
X169182270Y-114715500D01*
X169212699Y-114712646D01*
X169212701Y-114712646D01*
X169276790Y-114690219D01*
X169340882Y-114667793D01*
X169450150Y-114587150D01*
X169530793Y-114477882D01*
X169570009Y-114365809D01*
X169575646Y-114349701D01*
X169575646Y-114349699D01*
X169578500Y-114319269D01*
X169578500Y-114236940D01*
X169598185Y-114169901D01*
X169650989Y-114124146D01*
X169679440Y-114115103D01*
X169710579Y-114109211D01*
X169769387Y-114100348D01*
X169769390Y-114100346D01*
X169777547Y-114097830D01*
X169785569Y-114095023D01*
X169785572Y-114095023D01*
X169838172Y-114067222D01*
X169891742Y-114041425D01*
X169891742Y-114041424D01*
X169891744Y-114041424D01*
X169898786Y-114036622D01*
X169905631Y-114031569D01*
X169905638Y-114031566D01*
X169947699Y-113989503D01*
X169991294Y-113949055D01*
X169991296Y-113949051D01*
X169997090Y-113941786D01*
X169997746Y-113942309D01*
X170007132Y-113930070D01*
X171224748Y-112712454D01*
X171286068Y-112678971D01*
X171355760Y-112683955D01*
X171411693Y-112725827D01*
X171436110Y-112791291D01*
X171425381Y-112842335D01*
X171428276Y-112843348D01*
X171380353Y-112980298D01*
X171380353Y-112980300D01*
X171377500Y-113010730D01*
X171377500Y-114319269D01*
X171380353Y-114349699D01*
X171380353Y-114349701D01*
X171425206Y-114477880D01*
X171425207Y-114477882D01*
X171505850Y-114587150D01*
X171615118Y-114667793D01*
X171657845Y-114682743D01*
X171743299Y-114712646D01*
X171773730Y-114715500D01*
X171773734Y-114715500D01*
X172682270Y-114715500D01*
X172712699Y-114712646D01*
X172712701Y-114712646D01*
X172776790Y-114690219D01*
X172840882Y-114667793D01*
X172950150Y-114587150D01*
X173030793Y-114477882D01*
X173070009Y-114365809D01*
X173075646Y-114349701D01*
X173075646Y-114349699D01*
X173078500Y-114319269D01*
X173078500Y-114239500D01*
X173098185Y-114172461D01*
X173150989Y-114126706D01*
X173202500Y-114115500D01*
X173614908Y-114115500D01*
X173681947Y-114135185D01*
X173727702Y-114187989D01*
X173731949Y-114198544D01*
X173774192Y-114319266D01*
X173777207Y-114327882D01*
X173857850Y-114437150D01*
X173967118Y-114517793D01*
X173996456Y-114528059D01*
X174053230Y-114568779D01*
X174078978Y-114633731D01*
X174079500Y-114645099D01*
X174079500Y-115834217D01*
X174079110Y-115841155D01*
X174077724Y-115853454D01*
X174074729Y-115880034D01*
X174085788Y-115938479D01*
X174094652Y-115997290D01*
X174097162Y-116005427D01*
X174099978Y-116013475D01*
X174127777Y-116066072D01*
X174153576Y-116119644D01*
X174158362Y-116126665D01*
X174163431Y-116133532D01*
X174163434Y-116133538D01*
X174163438Y-116133542D01*
X174205495Y-116175599D01*
X174245947Y-116219196D01*
X174253210Y-116224988D01*
X174252689Y-116225641D01*
X174264930Y-116235034D01*
X175010086Y-116980190D01*
X175670716Y-117640819D01*
X175704201Y-117702142D01*
X175699217Y-117771834D01*
X175657345Y-117827767D01*
X175591881Y-117852184D01*
X175583035Y-117852500D01*
X175000247Y-117852500D01*
X174941770Y-117864131D01*
X174941769Y-117864132D01*
X174875447Y-117908447D01*
X174831132Y-117974769D01*
X174831131Y-117974770D01*
X174819500Y-118033247D01*
X174819500Y-120472752D01*
X174831131Y-120531229D01*
X174831132Y-120531230D01*
X174875447Y-120597552D01*
X174941769Y-120641867D01*
X174941770Y-120641868D01*
X175000247Y-120653499D01*
X175000250Y-120653500D01*
X175000252Y-120653500D01*
X177439750Y-120653500D01*
X177439751Y-120653499D01*
X177454568Y-120650552D01*
X177498229Y-120641868D01*
X177498229Y-120641867D01*
X177498231Y-120641867D01*
X177564552Y-120597552D01*
X177608867Y-120531231D01*
X177608867Y-120531229D01*
X177608868Y-120531229D01*
X177620499Y-120472752D01*
X177620500Y-120472750D01*
X177620500Y-118033249D01*
X177620499Y-118033247D01*
X177608868Y-117974770D01*
X177608867Y-117974769D01*
X177564552Y-117908447D01*
X177498230Y-117864132D01*
X177498229Y-117864131D01*
X177439752Y-117852500D01*
X177439748Y-117852500D01*
X176794500Y-117852500D01*
X176727461Y-117832815D01*
X176681706Y-117780011D01*
X176670500Y-117728500D01*
X176670500Y-117581781D01*
X176670889Y-117574844D01*
X176675270Y-117535965D01*
X176664210Y-117477508D01*
X176655348Y-117418713D01*
X176655347Y-117418711D01*
X176655347Y-117418709D01*
X176652829Y-117410545D01*
X176650024Y-117402532D01*
X176650024Y-117402528D01*
X176622216Y-117349915D01*
X176596425Y-117296358D01*
X176591620Y-117289310D01*
X176586567Y-117282465D01*
X176586566Y-117282462D01*
X176544504Y-117240400D01*
X176504055Y-117196806D01*
X176504054Y-117196805D01*
X176504053Y-117196804D01*
X176496790Y-117191012D01*
X176497310Y-117190359D01*
X176485070Y-117180966D01*
X175016819Y-115712714D01*
X174983334Y-115651391D01*
X174980500Y-115625033D01*
X174980500Y-114645099D01*
X175000185Y-114578060D01*
X175052989Y-114532305D01*
X175063525Y-114528065D01*
X175092882Y-114517793D01*
X175202150Y-114437150D01*
X175282793Y-114327882D01*
X175314615Y-114236940D01*
X175327646Y-114199701D01*
X175327646Y-114199699D01*
X175330500Y-114169269D01*
X175330500Y-113160730D01*
X175327646Y-113130300D01*
X175327646Y-113130298D01*
X175282793Y-113002119D01*
X175282792Y-113002117D01*
X175202150Y-112892850D01*
X175092882Y-112812207D01*
X175092880Y-112812206D01*
X174964700Y-112767353D01*
X174934270Y-112764500D01*
X174934266Y-112764500D01*
X174125734Y-112764500D01*
X174125730Y-112764500D01*
X174095300Y-112767353D01*
X174095298Y-112767353D01*
X173967119Y-112812206D01*
X173967117Y-112812207D01*
X173857850Y-112892850D01*
X173777207Y-113002117D01*
X173731949Y-113131456D01*
X173691227Y-113188231D01*
X173626274Y-113213978D01*
X173614908Y-113214500D01*
X173202500Y-113214500D01*
X173135461Y-113194815D01*
X173089706Y-113142011D01*
X173078500Y-113090500D01*
X173078500Y-113010730D01*
X173075646Y-112980300D01*
X173075646Y-112980298D01*
X173030793Y-112852119D01*
X173030792Y-112852117D01*
X173023573Y-112842335D01*
X172950150Y-112742850D01*
X172840882Y-112662207D01*
X172840880Y-112662206D01*
X172712700Y-112617353D01*
X172682270Y-112614500D01*
X172682266Y-112614500D01*
X171773734Y-112614500D01*
X171773730Y-112614500D01*
X171743300Y-112617353D01*
X171743298Y-112617353D01*
X171606348Y-112665276D01*
X171605297Y-112662273D01*
X171552553Y-112672973D01*
X171487438Y-112647638D01*
X171446357Y-112591122D01*
X171442353Y-112521367D01*
X171475454Y-112461748D01*
X173526205Y-110410996D01*
X173531373Y-110406377D01*
X173561970Y-110381979D01*
X173595480Y-110332828D01*
X173628967Y-110287455D01*
X173684611Y-110245208D01*
X173754267Y-110239749D01*
X173815816Y-110272816D01*
X173820155Y-110277570D01*
X173822640Y-110280055D01*
X173967373Y-110398835D01*
X173967376Y-110398837D01*
X174132495Y-110487094D01*
X174132499Y-110487096D01*
X174305498Y-110539575D01*
X174311666Y-110541446D01*
X174311668Y-110541447D01*
X174328374Y-110543092D01*
X174498000Y-110559799D01*
X174684331Y-110541447D01*
X174863501Y-110487096D01*
X175028625Y-110398836D01*
X175173357Y-110280057D01*
X175292136Y-110135325D01*
X175380396Y-109970201D01*
X175434747Y-109791031D01*
X175453099Y-109604700D01*
X175434747Y-109418369D01*
X175434746Y-109418367D01*
X175434746Y-109418366D01*
X175425172Y-109386805D01*
X175380396Y-109239199D01*
X175337390Y-109158740D01*
X175292137Y-109074076D01*
X175292135Y-109074074D01*
X175273416Y-109051264D01*
X175246104Y-108986954D01*
X175257895Y-108918087D01*
X175305048Y-108866527D01*
X175369270Y-108848600D01*
X176166730Y-108848600D01*
X176233769Y-108868285D01*
X176279524Y-108921089D01*
X176289468Y-108990247D01*
X176262584Y-109051264D01*
X176243864Y-109074074D01*
X176243862Y-109074076D01*
X176155604Y-109239197D01*
X176101253Y-109418366D01*
X176101252Y-109418368D01*
X176082901Y-109604699D01*
X176101252Y-109791031D01*
X176101253Y-109791033D01*
X176155604Y-109970202D01*
X176243862Y-110135323D01*
X176243864Y-110135326D01*
X176362642Y-110280057D01*
X176507373Y-110398835D01*
X176507374Y-110398835D01*
X176507375Y-110398836D01*
X176519773Y-110405462D01*
X176521951Y-110406627D01*
X176571796Y-110455588D01*
X176587500Y-110515986D01*
X176587500Y-112096217D01*
X176587110Y-112103155D01*
X176585724Y-112115454D01*
X176582729Y-112142034D01*
X176593788Y-112200479D01*
X176602652Y-112259290D01*
X176605162Y-112267427D01*
X176607978Y-112275475D01*
X176635777Y-112328072D01*
X176661576Y-112381644D01*
X176666362Y-112388665D01*
X176671431Y-112395532D01*
X176671434Y-112395538D01*
X176671438Y-112395542D01*
X176713495Y-112437599D01*
X176753947Y-112481196D01*
X176761210Y-112486988D01*
X176760689Y-112487641D01*
X176772930Y-112497034D01*
X176828715Y-112552819D01*
X176862200Y-112614142D01*
X176857216Y-112683834D01*
X176815344Y-112739767D01*
X176749880Y-112764184D01*
X176741034Y-112764500D01*
X176125730Y-112764500D01*
X176095300Y-112767353D01*
X176095298Y-112767353D01*
X175967119Y-112812206D01*
X175967117Y-112812207D01*
X175857850Y-112892850D01*
X175777207Y-113002117D01*
X175777206Y-113002119D01*
X175732353Y-113130298D01*
X175732353Y-113130300D01*
X175729500Y-113160730D01*
X175729500Y-114169269D01*
X175732353Y-114199699D01*
X175732353Y-114199701D01*
X175774192Y-114319266D01*
X175777207Y-114327882D01*
X175857850Y-114437150D01*
X175967118Y-114517793D01*
X175996451Y-114528057D01*
X176095299Y-114562646D01*
X176125730Y-114565500D01*
X176125734Y-114565500D01*
X176742034Y-114565500D01*
X176809073Y-114585185D01*
X176829715Y-114601819D01*
X179233181Y-117005284D01*
X179266666Y-117066607D01*
X179269500Y-117092965D01*
X179269500Y-117838392D01*
X179249815Y-117905431D01*
X179197011Y-117951186D01*
X179185764Y-117955673D01*
X179155501Y-117966062D01*
X179155495Y-117966064D01*
X178951371Y-118076531D01*
X178951365Y-118076535D01*
X178768222Y-118219081D01*
X178768219Y-118219084D01*
X178768216Y-118219086D01*
X178768216Y-118219087D01*
X178753107Y-118235500D01*
X178611016Y-118389852D01*
X178484075Y-118584151D01*
X178390842Y-118796699D01*
X178333866Y-119021691D01*
X178333864Y-119021702D01*
X178314700Y-119252993D01*
X178314700Y-119253006D01*
X178333864Y-119484297D01*
X178333866Y-119484308D01*
X178390842Y-119709300D01*
X178484075Y-119921848D01*
X178611016Y-120116147D01*
X178611019Y-120116151D01*
X178611021Y-120116153D01*
X178768216Y-120286913D01*
X178768219Y-120286915D01*
X178768222Y-120286918D01*
X178951365Y-120429464D01*
X178951371Y-120429468D01*
X178951374Y-120429470D01*
X179031352Y-120472752D01*
X179124196Y-120522997D01*
X179155497Y-120539936D01*
X179269487Y-120579068D01*
X179375015Y-120615297D01*
X179375017Y-120615297D01*
X179375019Y-120615298D01*
X179603951Y-120653500D01*
X179603952Y-120653500D01*
X179836048Y-120653500D01*
X179836049Y-120653500D01*
X180064981Y-120615298D01*
X180284503Y-120539936D01*
X180488626Y-120429470D01*
X180671784Y-120286913D01*
X180828979Y-120116153D01*
X180955924Y-119921849D01*
X181049157Y-119709300D01*
X181106134Y-119484305D01*
X181106162Y-119483966D01*
X181125300Y-119253006D01*
X181814700Y-119253006D01*
X181833864Y-119484297D01*
X181833866Y-119484308D01*
X181890842Y-119709300D01*
X181984075Y-119921848D01*
X182111016Y-120116147D01*
X182111019Y-120116151D01*
X182111021Y-120116153D01*
X182268216Y-120286913D01*
X182268219Y-120286915D01*
X182268222Y-120286918D01*
X182451365Y-120429464D01*
X182451371Y-120429468D01*
X182451374Y-120429470D01*
X182531352Y-120472752D01*
X182624196Y-120522997D01*
X182655497Y-120539936D01*
X182769487Y-120579068D01*
X182875015Y-120615297D01*
X182875017Y-120615297D01*
X182875019Y-120615298D01*
X183103951Y-120653500D01*
X183103952Y-120653500D01*
X183336048Y-120653500D01*
X183336049Y-120653500D01*
X183564981Y-120615298D01*
X183784503Y-120539936D01*
X183988626Y-120429470D01*
X184171784Y-120286913D01*
X184328979Y-120116153D01*
X184455924Y-119921849D01*
X184549157Y-119709300D01*
X184606134Y-119484305D01*
X184606162Y-119483966D01*
X184625300Y-119253006D01*
X184625300Y-119253004D01*
X185015233Y-119253004D01*
X185034273Y-119507079D01*
X185090968Y-119755477D01*
X185090973Y-119755494D01*
X185184058Y-119992671D01*
X185184057Y-119992671D01*
X185311457Y-120213332D01*
X185353452Y-120265993D01*
X186038590Y-119580855D01*
X186099913Y-119547370D01*
X186169604Y-119552354D01*
X186224645Y-119593049D01*
X186277019Y-119661304D01*
X186292075Y-119680925D01*
X186379948Y-119748353D01*
X186421150Y-119804781D01*
X186425305Y-119874527D01*
X186392142Y-119934409D01*
X185706813Y-120619737D01*
X185867623Y-120729375D01*
X185867624Y-120729376D01*
X186097176Y-120839921D01*
X186097174Y-120839921D01*
X186340652Y-120915024D01*
X186340658Y-120915026D01*
X186592595Y-120952999D01*
X186592604Y-120953000D01*
X186847396Y-120953000D01*
X186847404Y-120952999D01*
X187099341Y-120915026D01*
X187099347Y-120915024D01*
X187342824Y-120839921D01*
X187572381Y-120729373D01*
X187733185Y-120619737D01*
X187047856Y-119934409D01*
X187014371Y-119873086D01*
X187019355Y-119803395D01*
X187060049Y-119748353D01*
X187147925Y-119680925D01*
X187215354Y-119593048D01*
X187271779Y-119551848D01*
X187341525Y-119547693D01*
X187401409Y-119580856D01*
X188086545Y-120265993D01*
X188128545Y-120213327D01*
X188255941Y-119992671D01*
X188349026Y-119755494D01*
X188349031Y-119755477D01*
X188405726Y-119507079D01*
X188424767Y-119253004D01*
X188424767Y-119252995D01*
X188405726Y-118998920D01*
X188349031Y-118750522D01*
X188349026Y-118750505D01*
X188255941Y-118513328D01*
X188255942Y-118513328D01*
X188128544Y-118292671D01*
X188086545Y-118240005D01*
X187401409Y-118925142D01*
X187340086Y-118958627D01*
X187270394Y-118953643D01*
X187215353Y-118912948D01*
X187147925Y-118825075D01*
X187110944Y-118796699D01*
X187060049Y-118757645D01*
X187018847Y-118701219D01*
X187014692Y-118631473D01*
X187047855Y-118571590D01*
X187733185Y-117886261D01*
X187572377Y-117776624D01*
X187572376Y-117776623D01*
X187342823Y-117666078D01*
X187342825Y-117666078D01*
X187099347Y-117590975D01*
X187099341Y-117590973D01*
X186847404Y-117553000D01*
X186592595Y-117553000D01*
X186340658Y-117590973D01*
X186340652Y-117590975D01*
X186097175Y-117666078D01*
X185867624Y-117776623D01*
X185867616Y-117776628D01*
X185706813Y-117886261D01*
X186392143Y-118571590D01*
X186425628Y-118632913D01*
X186420644Y-118702604D01*
X186379949Y-118757646D01*
X186292075Y-118825074D01*
X186292074Y-118825075D01*
X186224646Y-118912949D01*
X186168218Y-118954151D01*
X186098472Y-118958306D01*
X186038590Y-118925143D01*
X185353453Y-118240006D01*
X185311455Y-118292670D01*
X185184058Y-118513328D01*
X185090973Y-118750505D01*
X185090968Y-118750522D01*
X185034273Y-118998920D01*
X185015233Y-119252995D01*
X185015233Y-119253004D01*
X184625300Y-119253004D01*
X184625300Y-119252993D01*
X184606135Y-119021702D01*
X184606133Y-119021691D01*
X184549157Y-118796699D01*
X184455924Y-118584151D01*
X184328983Y-118389852D01*
X184328980Y-118389849D01*
X184328979Y-118389847D01*
X184171784Y-118219087D01*
X184171779Y-118219083D01*
X184171777Y-118219081D01*
X183988634Y-118076535D01*
X183988628Y-118076531D01*
X183784504Y-117966064D01*
X183784495Y-117966061D01*
X183564984Y-117890702D01*
X183393027Y-117862008D01*
X183336049Y-117852500D01*
X183103951Y-117852500D01*
X183058164Y-117860140D01*
X182875015Y-117890702D01*
X182655504Y-117966061D01*
X182655495Y-117966064D01*
X182451371Y-118076531D01*
X182451365Y-118076535D01*
X182268222Y-118219081D01*
X182268219Y-118219084D01*
X182268216Y-118219086D01*
X182268216Y-118219087D01*
X182253107Y-118235500D01*
X182111016Y-118389852D01*
X181984075Y-118584151D01*
X181890842Y-118796699D01*
X181833866Y-119021691D01*
X181833864Y-119021702D01*
X181814700Y-119252993D01*
X181814700Y-119253006D01*
X181125300Y-119253006D01*
X181125300Y-119252993D01*
X181106135Y-119021702D01*
X181106133Y-119021691D01*
X181049157Y-118796699D01*
X180955924Y-118584151D01*
X180828983Y-118389852D01*
X180828980Y-118389849D01*
X180828979Y-118389847D01*
X180671784Y-118219087D01*
X180671779Y-118219083D01*
X180671777Y-118219081D01*
X180488634Y-118076535D01*
X180488628Y-118076531D01*
X180284504Y-117966064D01*
X180284498Y-117966062D01*
X180254236Y-117955673D01*
X180197221Y-117915287D01*
X180171091Y-117850487D01*
X180170500Y-117838392D01*
X180170500Y-116883782D01*
X180170889Y-116876843D01*
X180175270Y-116837965D01*
X180164211Y-116779520D01*
X180155348Y-116720713D01*
X180155347Y-116720711D01*
X180152836Y-116712571D01*
X180150024Y-116704533D01*
X180150023Y-116704528D01*
X180149705Y-116703927D01*
X180138795Y-116683285D01*
X180122226Y-116651936D01*
X180096425Y-116598358D01*
X180096422Y-116598355D01*
X180096421Y-116598352D01*
X180091642Y-116591342D01*
X180086568Y-116584469D01*
X180086565Y-116584462D01*
X180044516Y-116542413D01*
X180004055Y-116498806D01*
X179996792Y-116493014D01*
X179997312Y-116492361D01*
X179985067Y-116482964D01*
X178279284Y-114777181D01*
X178245799Y-114715858D01*
X178250783Y-114646166D01*
X178292655Y-114590233D01*
X178358119Y-114565816D01*
X178366965Y-114565500D01*
X178982270Y-114565500D01*
X179012699Y-114562646D01*
X179012701Y-114562646D01*
X179076790Y-114540219D01*
X179140882Y-114517793D01*
X179250150Y-114437150D01*
X179330793Y-114327882D01*
X179362615Y-114236940D01*
X179375646Y-114199701D01*
X179375646Y-114199699D01*
X179378500Y-114169269D01*
X179777500Y-114169269D01*
X179780353Y-114199699D01*
X179780353Y-114199701D01*
X179822192Y-114319266D01*
X179825207Y-114327882D01*
X179905850Y-114437150D01*
X180015118Y-114517793D01*
X180044451Y-114528057D01*
X180143299Y-114562646D01*
X180173730Y-114565500D01*
X180173734Y-114565500D01*
X180790035Y-114565500D01*
X180857074Y-114585185D01*
X180877716Y-114601819D01*
X181006090Y-114730193D01*
X181010726Y-114735380D01*
X181035121Y-114765970D01*
X181035121Y-114765971D01*
X181084271Y-114799480D01*
X181132118Y-114834793D01*
X181139654Y-114838776D01*
X181147319Y-114842467D01*
X181147327Y-114842472D01*
X181204177Y-114860007D01*
X181260297Y-114879645D01*
X181260299Y-114879645D01*
X181260301Y-114879646D01*
X181260302Y-114879646D01*
X181268698Y-114881234D01*
X181277095Y-114882500D01*
X181277098Y-114882500D01*
X181336559Y-114882500D01*
X181396009Y-114884725D01*
X181396009Y-114884724D01*
X181396010Y-114884725D01*
X181396010Y-114884724D01*
X181405242Y-114883685D01*
X181405335Y-114884513D01*
X181420639Y-114882500D01*
X182671500Y-114882500D01*
X182738539Y-114902185D01*
X182784294Y-114954989D01*
X182795500Y-115006500D01*
X182795500Y-115351752D01*
X182807131Y-115410229D01*
X182807132Y-115410230D01*
X182851447Y-115476552D01*
X182917769Y-115520867D01*
X182917770Y-115520868D01*
X182976247Y-115532499D01*
X182976250Y-115532500D01*
X182976252Y-115532500D01*
X184815750Y-115532500D01*
X184815751Y-115532499D01*
X184830568Y-115529552D01*
X184874229Y-115520868D01*
X184874229Y-115520867D01*
X184874231Y-115520867D01*
X184940552Y-115476552D01*
X184984867Y-115410231D01*
X184984867Y-115410229D01*
X184984868Y-115410229D01*
X184996499Y-115351752D01*
X184996500Y-115351750D01*
X184996500Y-114844500D01*
X186531001Y-114844500D01*
X186531001Y-115181986D01*
X186541494Y-115284697D01*
X186596641Y-115451119D01*
X186596643Y-115451124D01*
X186688684Y-115600345D01*
X186812654Y-115724315D01*
X186961875Y-115816356D01*
X186961880Y-115816358D01*
X187128302Y-115871505D01*
X187128309Y-115871506D01*
X187231019Y-115881999D01*
X187455999Y-115881999D01*
X187456000Y-115881998D01*
X187456000Y-114844500D01*
X187956000Y-114844500D01*
X187956000Y-115881999D01*
X188180972Y-115881999D01*
X188180986Y-115881998D01*
X188283697Y-115871505D01*
X188450119Y-115816358D01*
X188450124Y-115816356D01*
X188599345Y-115724315D01*
X188723315Y-115600345D01*
X188815356Y-115451124D01*
X188815358Y-115451119D01*
X188870505Y-115284697D01*
X188870506Y-115284690D01*
X188880999Y-115181986D01*
X188881000Y-115181973D01*
X188881000Y-114844500D01*
X187956000Y-114844500D01*
X187456000Y-114844500D01*
X186531001Y-114844500D01*
X184996500Y-114844500D01*
X184996500Y-114344500D01*
X186531000Y-114344500D01*
X187456000Y-114344500D01*
X187456000Y-113307000D01*
X187956000Y-113307000D01*
X187956000Y-114344500D01*
X188880999Y-114344500D01*
X188880999Y-114007028D01*
X188880998Y-114007013D01*
X188870505Y-113904302D01*
X188815358Y-113737880D01*
X188815356Y-113737875D01*
X188723315Y-113588654D01*
X188599345Y-113464684D01*
X188450124Y-113372643D01*
X188450119Y-113372641D01*
X188283697Y-113317494D01*
X188283690Y-113317493D01*
X188180986Y-113307000D01*
X187956000Y-113307000D01*
X187456000Y-113307000D01*
X187231029Y-113307000D01*
X187231012Y-113307001D01*
X187128302Y-113317494D01*
X186961880Y-113372641D01*
X186961875Y-113372643D01*
X186812654Y-113464684D01*
X186688684Y-113588654D01*
X186596643Y-113737875D01*
X186596641Y-113737880D01*
X186541494Y-113904302D01*
X186541493Y-113904309D01*
X186531000Y-114007013D01*
X186531000Y-114344500D01*
X184996500Y-114344500D01*
X184996500Y-113512249D01*
X184996499Y-113512247D01*
X184984868Y-113453770D01*
X184984867Y-113453769D01*
X184940552Y-113387447D01*
X184874230Y-113343132D01*
X184874229Y-113343131D01*
X184815752Y-113331500D01*
X184815748Y-113331500D01*
X182976252Y-113331500D01*
X182976247Y-113331500D01*
X182917770Y-113343131D01*
X182917769Y-113343132D01*
X182851447Y-113387447D01*
X182807132Y-113453769D01*
X182807131Y-113453770D01*
X182795500Y-113512247D01*
X182795500Y-113857500D01*
X182775815Y-113924539D01*
X182723011Y-113970294D01*
X182671500Y-113981500D01*
X181582966Y-113981500D01*
X181515927Y-113961815D01*
X181495285Y-113945181D01*
X181414819Y-113864715D01*
X181381334Y-113803392D01*
X181378500Y-113777034D01*
X181378500Y-113160730D01*
X181375646Y-113130300D01*
X181375646Y-113130298D01*
X181330793Y-113002119D01*
X181330792Y-113002117D01*
X181250150Y-112892850D01*
X181140882Y-112812207D01*
X181140880Y-112812206D01*
X181012700Y-112767353D01*
X180982270Y-112764500D01*
X180982266Y-112764500D01*
X180173734Y-112764500D01*
X180173730Y-112764500D01*
X180143300Y-112767353D01*
X180143298Y-112767353D01*
X180015119Y-112812206D01*
X180015117Y-112812207D01*
X179905850Y-112892850D01*
X179825207Y-113002117D01*
X179825206Y-113002119D01*
X179780353Y-113130298D01*
X179780353Y-113130300D01*
X179777500Y-113160730D01*
X179777500Y-114169269D01*
X179378500Y-114169269D01*
X179378500Y-113160730D01*
X179375646Y-113130300D01*
X179375646Y-113130298D01*
X179330793Y-113002119D01*
X179330792Y-113002117D01*
X179250150Y-112892850D01*
X179140882Y-112812207D01*
X179140880Y-112812206D01*
X179012700Y-112767353D01*
X178982270Y-112764500D01*
X178982266Y-112764500D01*
X178365966Y-112764500D01*
X178298927Y-112744815D01*
X178278285Y-112728181D01*
X177524819Y-111974714D01*
X177491334Y-111913391D01*
X177488500Y-111887033D01*
X177488500Y-111310178D01*
X177488500Y-110515982D01*
X177508184Y-110448947D01*
X177554046Y-110406628D01*
X177568625Y-110398836D01*
X177587377Y-110383447D01*
X177713357Y-110280057D01*
X177764804Y-110217369D01*
X177832136Y-110135325D01*
X177920396Y-109970201D01*
X177974747Y-109791031D01*
X177993099Y-109604700D01*
X177974747Y-109418369D01*
X177974746Y-109418367D01*
X177974746Y-109418366D01*
X177965172Y-109386805D01*
X177920396Y-109239199D01*
X177877390Y-109158740D01*
X177832137Y-109074076D01*
X177832135Y-109074074D01*
X177813416Y-109051264D01*
X177786104Y-108986954D01*
X177797895Y-108918087D01*
X177845048Y-108866527D01*
X177909270Y-108848600D01*
X178133434Y-108848600D01*
X178200473Y-108868285D01*
X178221115Y-108884919D01*
X178615071Y-109278875D01*
X178648556Y-109340198D01*
X178646052Y-109402547D01*
X178641252Y-109418369D01*
X178622901Y-109604700D01*
X178641252Y-109791031D01*
X178641253Y-109791033D01*
X178695604Y-109970202D01*
X178783862Y-110135323D01*
X178783864Y-110135326D01*
X178902642Y-110280057D01*
X179047373Y-110398835D01*
X179047376Y-110398837D01*
X179212495Y-110487094D01*
X179212499Y-110487096D01*
X179385498Y-110539575D01*
X179391666Y-110541446D01*
X179391668Y-110541447D01*
X179408374Y-110543092D01*
X179578000Y-110559799D01*
X179764331Y-110541447D01*
X179943501Y-110487096D01*
X180108625Y-110398836D01*
X180253357Y-110280057D01*
X180372136Y-110135325D01*
X180460396Y-109970201D01*
X180514747Y-109791031D01*
X180533099Y-109604700D01*
X180514747Y-109418369D01*
X180514746Y-109418367D01*
X180514746Y-109418366D01*
X180505172Y-109386805D01*
X180472836Y-109280211D01*
X180472213Y-109210345D01*
X180509461Y-109151232D01*
X180572754Y-109121641D01*
X180641999Y-109130966D01*
X180679178Y-109156535D01*
X181135411Y-109612768D01*
X181168896Y-109674091D01*
X181171133Y-109688293D01*
X181181253Y-109791032D01*
X181181253Y-109791033D01*
X181235604Y-109970202D01*
X181323860Y-110135319D01*
X181323864Y-110135326D01*
X181409847Y-110240095D01*
X181428168Y-110276634D01*
X181430202Y-110275863D01*
X181436451Y-110292343D01*
X181442474Y-110313946D01*
X181444304Y-110323930D01*
X181469759Y-110380490D01*
X181471189Y-110383941D01*
X181493182Y-110441930D01*
X181493183Y-110441931D01*
X181498936Y-110450266D01*
X181509961Y-110469813D01*
X181514120Y-110479055D01*
X181514124Y-110479060D01*
X181552371Y-110527878D01*
X181554591Y-110530896D01*
X181589812Y-110581924D01*
X181589816Y-110581928D01*
X181589817Y-110581929D01*
X181636250Y-110623064D01*
X181638941Y-110625598D01*
X182323521Y-111310178D01*
X182759338Y-111745995D01*
X182792823Y-111807318D01*
X182795128Y-111845114D01*
X182790785Y-111891995D01*
X182790784Y-111892000D01*
X182809602Y-112095082D01*
X182865417Y-112291247D01*
X182865422Y-112291260D01*
X182956327Y-112473821D01*
X183079237Y-112636581D01*
X183229958Y-112773980D01*
X183229960Y-112773982D01*
X183291696Y-112812207D01*
X183403363Y-112881348D01*
X183593544Y-112955024D01*
X183794024Y-112992500D01*
X183794026Y-112992500D01*
X183997974Y-112992500D01*
X183997976Y-112992500D01*
X184198456Y-112955024D01*
X184388637Y-112881348D01*
X184562041Y-112773981D01*
X184712764Y-112636579D01*
X184835673Y-112473821D01*
X184926582Y-112291250D01*
X184982397Y-112095083D01*
X185001215Y-111892000D01*
X184996870Y-111845114D01*
X184982397Y-111688917D01*
X184967823Y-111637696D01*
X184926582Y-111492750D01*
X184835673Y-111310179D01*
X184712764Y-111147421D01*
X184712762Y-111147418D01*
X184628754Y-111070835D01*
X184592472Y-111011124D01*
X184594233Y-110941276D01*
X184633476Y-110883469D01*
X184697743Y-110856054D01*
X184701485Y-110855670D01*
X184875883Y-110840412D01*
X184875894Y-110840410D01*
X185087150Y-110783805D01*
X185087159Y-110783801D01*
X185285387Y-110691366D01*
X185347572Y-110647824D01*
X184917116Y-110217369D01*
X184883631Y-110156046D01*
X184888615Y-110086355D01*
X184925640Y-110036893D01*
X184924398Y-110035459D01*
X184950891Y-110012503D01*
X185039761Y-109935498D01*
X185074952Y-109880738D01*
X185127755Y-109834983D01*
X185196914Y-109825039D01*
X185260470Y-109854063D01*
X185266949Y-109860096D01*
X185701124Y-110294272D01*
X185744666Y-110232087D01*
X185837101Y-110033859D01*
X185837105Y-110033850D01*
X185893710Y-109822594D01*
X185893712Y-109822584D01*
X185912775Y-109604700D01*
X185912775Y-109604699D01*
X186242901Y-109604699D01*
X186261252Y-109791031D01*
X186261253Y-109791033D01*
X186315604Y-109970202D01*
X186403862Y-110135323D01*
X186403864Y-110135326D01*
X186522642Y-110280057D01*
X186667373Y-110398835D01*
X186667376Y-110398837D01*
X186747499Y-110441663D01*
X186832499Y-110487096D01*
X186917496Y-110512879D01*
X186975933Y-110551175D01*
X187004390Y-110614987D01*
X187005500Y-110631539D01*
X187005500Y-110762823D01*
X186985815Y-110829862D01*
X186964617Y-110852477D01*
X186965420Y-110853280D01*
X186958851Y-110859848D01*
X186878207Y-110969117D01*
X186878206Y-110969119D01*
X186833353Y-111097298D01*
X186833353Y-111097300D01*
X186830500Y-111127730D01*
X186830500Y-112311269D01*
X186833353Y-112341699D01*
X186833353Y-112341701D01*
X186878206Y-112469880D01*
X186878207Y-112469882D01*
X186958850Y-112579150D01*
X187068118Y-112659793D01*
X187110845Y-112674743D01*
X187196299Y-112704646D01*
X187226730Y-112707500D01*
X187226734Y-112707500D01*
X188185270Y-112707500D01*
X188215699Y-112704646D01*
X188215701Y-112704646D01*
X188289074Y-112678971D01*
X188343882Y-112659793D01*
X188453150Y-112579150D01*
X188533793Y-112469882D01*
X188564669Y-112381644D01*
X188578646Y-112341701D01*
X188578646Y-112341699D01*
X188581500Y-112311269D01*
X188581500Y-111127730D01*
X188578646Y-111097300D01*
X188578646Y-111097298D01*
X188533793Y-110969119D01*
X188533792Y-110969117D01*
X188453150Y-110859850D01*
X188453148Y-110859849D01*
X188453148Y-110859848D01*
X188446580Y-110853280D01*
X188448407Y-110851452D01*
X188414614Y-110806940D01*
X188406500Y-110762823D01*
X188406500Y-110135735D01*
X188406613Y-110131990D01*
X188410357Y-110070094D01*
X188399177Y-110009086D01*
X188398615Y-110005389D01*
X188391140Y-109943829D01*
X188391139Y-109943825D01*
X188387546Y-109934351D01*
X188381519Y-109912729D01*
X188379694Y-109902770D01*
X188379694Y-109902768D01*
X188371752Y-109885123D01*
X188360488Y-109860096D01*
X188354239Y-109846212D01*
X188352809Y-109842757D01*
X188349427Y-109833839D01*
X188330818Y-109784770D01*
X188325060Y-109776428D01*
X188314032Y-109756876D01*
X188309877Y-109747643D01*
X188309876Y-109747642D01*
X188309875Y-109747639D01*
X188281403Y-109711299D01*
X188271632Y-109698828D01*
X188269428Y-109695833D01*
X188243510Y-109658283D01*
X188234185Y-109644773D01*
X188233473Y-109644142D01*
X188187742Y-109603628D01*
X188185048Y-109601092D01*
X188180587Y-109596631D01*
X188147102Y-109535308D01*
X188144865Y-109521103D01*
X188134747Y-109418369D01*
X188080396Y-109239199D01*
X188037390Y-109158740D01*
X187992137Y-109074076D01*
X187992135Y-109074073D01*
X187873357Y-108929342D01*
X187728626Y-108810564D01*
X187728623Y-108810562D01*
X187563502Y-108722304D01*
X187384333Y-108667953D01*
X187384331Y-108667952D01*
X187198000Y-108649601D01*
X187011668Y-108667952D01*
X187011666Y-108667953D01*
X186832497Y-108722304D01*
X186667376Y-108810562D01*
X186667373Y-108810564D01*
X186522642Y-108929342D01*
X186403864Y-109074073D01*
X186403862Y-109074076D01*
X186315604Y-109239197D01*
X186261253Y-109418366D01*
X186261252Y-109418368D01*
X186242901Y-109604699D01*
X185912775Y-109604699D01*
X185893712Y-109386815D01*
X185893710Y-109386805D01*
X185837105Y-109175549D01*
X185837101Y-109175540D01*
X185744668Y-108977315D01*
X185701123Y-108915127D01*
X185266949Y-109349302D01*
X185205626Y-109382787D01*
X185135934Y-109377803D01*
X185080001Y-109335931D01*
X185074953Y-109328661D01*
X185039761Y-109273902D01*
X184966411Y-109210345D01*
X184931100Y-109179748D01*
X184931099Y-109179747D01*
X184924398Y-109173941D01*
X184926708Y-109171274D01*
X184892005Y-109131228D01*
X184882058Y-109062070D01*
X184911080Y-108998513D01*
X184917116Y-108992030D01*
X185347572Y-108561574D01*
X185347571Y-108561573D01*
X185285391Y-108518035D01*
X185087159Y-108425598D01*
X185087150Y-108425594D01*
X184875894Y-108368989D01*
X184875884Y-108368987D01*
X184658001Y-108349925D01*
X184657999Y-108349925D01*
X184440115Y-108368987D01*
X184440105Y-108368989D01*
X184228849Y-108425594D01*
X184228840Y-108425598D01*
X184030614Y-108518032D01*
X184030612Y-108518033D01*
X183968428Y-108561575D01*
X183968427Y-108561575D01*
X184398883Y-108992030D01*
X184432368Y-109053353D01*
X184427384Y-109123044D01*
X184390358Y-109172505D01*
X184391602Y-109173941D01*
X184276238Y-109273902D01*
X184241046Y-109328662D01*
X184188242Y-109374417D01*
X184119083Y-109384360D01*
X184055528Y-109355334D01*
X184049050Y-109349303D01*
X183614875Y-108915127D01*
X183614875Y-108915128D01*
X183571333Y-108977312D01*
X183571332Y-108977314D01*
X183478898Y-109175540D01*
X183478894Y-109175549D01*
X183422289Y-109386805D01*
X183422287Y-109386815D01*
X183403224Y-109604699D01*
X183403224Y-109604700D01*
X183422287Y-109822584D01*
X183422289Y-109822594D01*
X183478894Y-110033850D01*
X183478898Y-110033859D01*
X183573621Y-110236994D01*
X183572521Y-110237506D01*
X183587585Y-110299612D01*
X183564731Y-110365638D01*
X183509808Y-110408826D01*
X183440254Y-110415465D01*
X183378153Y-110383447D01*
X183376045Y-110381388D01*
X183044678Y-110050021D01*
X183011193Y-109988698D01*
X183013698Y-109926347D01*
X183054747Y-109791031D01*
X183073099Y-109604700D01*
X183054747Y-109418369D01*
X183054746Y-109418367D01*
X183054746Y-109418366D01*
X183045172Y-109386805D01*
X183000396Y-109239199D01*
X182957390Y-109158740D01*
X182912137Y-109074076D01*
X182912135Y-109074073D01*
X182793357Y-108929342D01*
X182648626Y-108810564D01*
X182648623Y-108810562D01*
X182483502Y-108722304D01*
X182304333Y-108667953D01*
X182201593Y-108657833D01*
X182136807Y-108631671D01*
X182126068Y-108622111D01*
X180137019Y-106633061D01*
X180103534Y-106571738D01*
X180100700Y-106545380D01*
X180100700Y-103697818D01*
X180120385Y-103630779D01*
X180137014Y-103610142D01*
X189174956Y-94572199D01*
X189177648Y-94569665D01*
X189224083Y-94528529D01*
X189259321Y-94477476D01*
X189261513Y-94474496D01*
X189299778Y-94425657D01*
X189303934Y-94416421D01*
X189314962Y-94396866D01*
X189320718Y-94388530D01*
X189342709Y-94330542D01*
X189344129Y-94327112D01*
X189369595Y-94270532D01*
X189371421Y-94260561D01*
X189377452Y-94238931D01*
X189379332Y-94233976D01*
X189381040Y-94229472D01*
X189387297Y-94177942D01*
X189388513Y-94167925D01*
X189389077Y-94164221D01*
X189394706Y-94133500D01*
X189400258Y-94103206D01*
X189396513Y-94041296D01*
X189396400Y-94037551D01*
X189396400Y-91579947D01*
X189396513Y-91576202D01*
X189400258Y-91514294D01*
X189389075Y-91453271D01*
X189388513Y-91449574D01*
X189382510Y-91400139D01*
X189381040Y-91388028D01*
X189377519Y-91378744D01*
X189377448Y-91378556D01*
X189371421Y-91356934D01*
X189369595Y-91346971D01*
X189369595Y-91346969D01*
X189344123Y-91290374D01*
X189342712Y-91286965D01*
X189320718Y-91228970D01*
X189314963Y-91220633D01*
X189303936Y-91201082D01*
X189302574Y-91198056D01*
X189299778Y-91191843D01*
X189282187Y-91169390D01*
X189261530Y-91143022D01*
X189259310Y-91140006D01*
X189251274Y-91128364D01*
X189224083Y-91088971D01*
X189177650Y-91047835D01*
X189174956Y-91045299D01*
X189034818Y-90905161D01*
X189001334Y-90843838D01*
X188998500Y-90817480D01*
X188998500Y-90554730D01*
X188995646Y-90524300D01*
X188995646Y-90524298D01*
X188954125Y-90405641D01*
X188950793Y-90396118D01*
X188870150Y-90286850D01*
X188760882Y-90206207D01*
X188760880Y-90206206D01*
X188632700Y-90161353D01*
X188602270Y-90158500D01*
X188602266Y-90158500D01*
X188542419Y-90158500D01*
X188475380Y-90138815D01*
X188454738Y-90122181D01*
X187884630Y-89552073D01*
X187290298Y-88957741D01*
X187287764Y-88955050D01*
X187246629Y-88908617D01*
X187246628Y-88908616D01*
X187246624Y-88908612D01*
X187195596Y-88873391D01*
X187192587Y-88871177D01*
X187143760Y-88832924D01*
X187143755Y-88832920D01*
X187134513Y-88828761D01*
X187114966Y-88817736D01*
X187106631Y-88811983D01*
X187106632Y-88811983D01*
X187106630Y-88811982D01*
X187048641Y-88789989D01*
X187045190Y-88788559D01*
X186988630Y-88763104D01*
X186978646Y-88761274D01*
X186957043Y-88755251D01*
X186947574Y-88751660D01*
X186947570Y-88751659D01*
X186886013Y-88744184D01*
X186882312Y-88743621D01*
X186821308Y-88732442D01*
X186821303Y-88732442D01*
X186759397Y-88736187D01*
X186755652Y-88736300D01*
X185028319Y-88736300D01*
X184961280Y-88716615D01*
X184940638Y-88699981D01*
X184112622Y-87871965D01*
X184087230Y-87835179D01*
X184067429Y-87791185D01*
X184066006Y-87787747D01*
X184064879Y-87784776D01*
X184044018Y-87729767D01*
X184043306Y-87728736D01*
X184038262Y-87721428D01*
X184027234Y-87701874D01*
X184023080Y-87692644D01*
X184023078Y-87692641D01*
X183984821Y-87643809D01*
X183982627Y-87640827D01*
X183947383Y-87589768D01*
X183900950Y-87548632D01*
X183898256Y-87546096D01*
X181252101Y-84899941D01*
X181249567Y-84897250D01*
X181208432Y-84850817D01*
X181208431Y-84850816D01*
X181208427Y-84850812D01*
X181157399Y-84815591D01*
X181154390Y-84813377D01*
X181105563Y-84775124D01*
X181105558Y-84775120D01*
X181096316Y-84770961D01*
X181076769Y-84759936D01*
X181075160Y-84758826D01*
X181068433Y-84754182D01*
X181010444Y-84732189D01*
X181006993Y-84730759D01*
X180950433Y-84705304D01*
X180940449Y-84703474D01*
X180918846Y-84697451D01*
X180909377Y-84693860D01*
X180909373Y-84693859D01*
X180847816Y-84686384D01*
X180844115Y-84685821D01*
X180783111Y-84674642D01*
X180783106Y-84674642D01*
X180721200Y-84678387D01*
X180717455Y-84678500D01*
X166061348Y-84678500D01*
X166057603Y-84678387D01*
X165995696Y-84674642D01*
X165995689Y-84674642D01*
X165934686Y-84685821D01*
X165930985Y-84686384D01*
X165869428Y-84693859D01*
X165869421Y-84693861D01*
X165859947Y-84697454D01*
X165838349Y-84703475D01*
X165828368Y-84705305D01*
X165828363Y-84705306D01*
X165771805Y-84730761D01*
X165768346Y-84732193D01*
X165710370Y-84754181D01*
X165710366Y-84754184D01*
X165702023Y-84759942D01*
X165682488Y-84770960D01*
X165673248Y-84775119D01*
X165673239Y-84775124D01*
X165624424Y-84813368D01*
X165621409Y-84815586D01*
X165570368Y-84850818D01*
X165529242Y-84897240D01*
X165526675Y-84899966D01*
X164969980Y-85456661D01*
X164908657Y-85490146D01*
X164838965Y-85485162D01*
X164794618Y-85456661D01*
X164092138Y-84754181D01*
X163383898Y-84045941D01*
X163381364Y-84043250D01*
X163340229Y-83996817D01*
X163340228Y-83996816D01*
X163340224Y-83996812D01*
X163289196Y-83961591D01*
X163286187Y-83959377D01*
X163240719Y-83923756D01*
X163237360Y-83921124D01*
X163237355Y-83921120D01*
X163228113Y-83916961D01*
X163208566Y-83905936D01*
X163206957Y-83904826D01*
X163200230Y-83900182D01*
X163142241Y-83878189D01*
X163138790Y-83876759D01*
X163082230Y-83851304D01*
X163072246Y-83849474D01*
X163050643Y-83843451D01*
X163041174Y-83839860D01*
X163041170Y-83839859D01*
X162979613Y-83832384D01*
X162975912Y-83831821D01*
X162914908Y-83820642D01*
X162914903Y-83820642D01*
X162852997Y-83824387D01*
X162849252Y-83824500D01*
X153667137Y-83824500D01*
X153663393Y-83824387D01*
X153601497Y-83820643D01*
X153601490Y-83820643D01*
X153540502Y-83831819D01*
X153536801Y-83832382D01*
X153475225Y-83839860D01*
X153465742Y-83843456D01*
X153444138Y-83849478D01*
X153442635Y-83849754D01*
X153434165Y-83851306D01*
X153377622Y-83876754D01*
X153374163Y-83878187D01*
X153337967Y-83891915D01*
X153316170Y-83900182D01*
X153316168Y-83900183D01*
X153316166Y-83900184D01*
X153316161Y-83900186D01*
X153307822Y-83905942D01*
X153288290Y-83916959D01*
X153279046Y-83921120D01*
X153279044Y-83921121D01*
X153279043Y-83921122D01*
X153275690Y-83923749D01*
X153230224Y-83959368D01*
X153227209Y-83961586D01*
X153176168Y-83996818D01*
X153135042Y-84043240D01*
X153132475Y-84045966D01*
X152043866Y-85134575D01*
X152041140Y-85137142D01*
X151994718Y-85178268D01*
X151959486Y-85229309D01*
X151957268Y-85232324D01*
X151919024Y-85281139D01*
X151919019Y-85281148D01*
X151914860Y-85290388D01*
X151903842Y-85309923D01*
X151898090Y-85318257D01*
X151898086Y-85318263D01*
X151898082Y-85318270D01*
X151898080Y-85318274D01*
X151898079Y-85318277D01*
X151876089Y-85376255D01*
X151874657Y-85379713D01*
X151849205Y-85436268D01*
X151847377Y-85446242D01*
X151841353Y-85467853D01*
X151837760Y-85477327D01*
X151837759Y-85477328D01*
X151830284Y-85538885D01*
X151829721Y-85542586D01*
X151818542Y-85603590D01*
X151818542Y-85603595D01*
X151822287Y-85665502D01*
X151822400Y-85669247D01*
X151822400Y-91825151D01*
X151822287Y-91828896D01*
X151819641Y-91872646D01*
X151818542Y-91890806D01*
X151822388Y-91911792D01*
X151829721Y-91951812D01*
X151830284Y-91955513D01*
X151837759Y-92017070D01*
X151837760Y-92017074D01*
X151841351Y-92026543D01*
X151847374Y-92048146D01*
X151849204Y-92058130D01*
X151874659Y-92114690D01*
X151876089Y-92118141D01*
X151898082Y-92176130D01*
X151898083Y-92176131D01*
X151903836Y-92184466D01*
X151914861Y-92204013D01*
X151919020Y-92213255D01*
X151919024Y-92213260D01*
X151929637Y-92226806D01*
X151951580Y-92254815D01*
X151957271Y-92262078D01*
X151959491Y-92265096D01*
X151994712Y-92316124D01*
X151994716Y-92316128D01*
X151994717Y-92316129D01*
X152041150Y-92357264D01*
X152043841Y-92359798D01*
X152399161Y-92715118D01*
X152752215Y-93068172D01*
X152785700Y-93129495D01*
X152780716Y-93199187D01*
X152738844Y-93255120D01*
X152673380Y-93279537D01*
X152633496Y-93273073D01*
X152633210Y-93274515D01*
X152562752Y-93260500D01*
X152562748Y-93260500D01*
X150723252Y-93260500D01*
X150723247Y-93260500D01*
X150664770Y-93272131D01*
X150664769Y-93272132D01*
X150598447Y-93316447D01*
X150554132Y-93382769D01*
X150554131Y-93382770D01*
X150542500Y-93441247D01*
X150542500Y-95280752D01*
X150554131Y-95339229D01*
X150554132Y-95339230D01*
X150598447Y-95405552D01*
X150664769Y-95449867D01*
X150664770Y-95449868D01*
X150723247Y-95461499D01*
X150723250Y-95461500D01*
X150723252Y-95461500D01*
X151068500Y-95461500D01*
X151135539Y-95481185D01*
X151181294Y-95533989D01*
X151192500Y-95585500D01*
X151192500Y-96892500D01*
X151172815Y-96959539D01*
X151120011Y-97005294D01*
X151068500Y-97016500D01*
X150709730Y-97016500D01*
X150679300Y-97019353D01*
X150679298Y-97019353D01*
X150551119Y-97064206D01*
X150551117Y-97064207D01*
X150441850Y-97144850D01*
X150361207Y-97254117D01*
X150361206Y-97254119D01*
X150316353Y-97382298D01*
X150316353Y-97382300D01*
X150313500Y-97412730D01*
X150313500Y-98421269D01*
X150316353Y-98451699D01*
X150316353Y-98451701D01*
X150356859Y-98567456D01*
X150361207Y-98579882D01*
X150441850Y-98689150D01*
X150551118Y-98769793D01*
X150593845Y-98784744D01*
X150679299Y-98814646D01*
X150709730Y-98817500D01*
X150709734Y-98817500D01*
X151518270Y-98817500D01*
X151548699Y-98814646D01*
X151548701Y-98814646D01*
X151612790Y-98792219D01*
X151676882Y-98769793D01*
X151786150Y-98689150D01*
X151866793Y-98579882D01*
X151889219Y-98515790D01*
X151911646Y-98451701D01*
X151911646Y-98451699D01*
X151914500Y-98421269D01*
X151914500Y-97807411D01*
X151934185Y-97740372D01*
X151961187Y-97710464D01*
X151976970Y-97697879D01*
X152010480Y-97648728D01*
X152045793Y-97600882D01*
X152045794Y-97600879D01*
X152049787Y-97593324D01*
X152053470Y-97585676D01*
X152053470Y-97585675D01*
X152053472Y-97585673D01*
X152071007Y-97528822D01*
X152090646Y-97472699D01*
X152092232Y-97464311D01*
X152093500Y-97455904D01*
X152093500Y-97396426D01*
X152095724Y-97336992D01*
X152094684Y-97327761D01*
X152095513Y-97327667D01*
X152093500Y-97312366D01*
X152093500Y-95585500D01*
X152113185Y-95518461D01*
X152165989Y-95472706D01*
X152217500Y-95461500D01*
X152562750Y-95461500D01*
X152562751Y-95461499D01*
X152577568Y-95458552D01*
X152621229Y-95449868D01*
X152621229Y-95449867D01*
X152621231Y-95449867D01*
X152687552Y-95405552D01*
X152731867Y-95339231D01*
X152731867Y-95339229D01*
X152731868Y-95339229D01*
X152742280Y-95286881D01*
X152743500Y-95280748D01*
X152743500Y-93441252D01*
X152743500Y-93441251D01*
X152743500Y-93441249D01*
X152743499Y-93441247D01*
X152729485Y-93370790D01*
X152731802Y-93370328D01*
X152726115Y-93317456D01*
X152757385Y-93254975D01*
X152817472Y-93219318D01*
X152887297Y-93221807D01*
X152935827Y-93251783D01*
X152987181Y-93303137D01*
X153020666Y-93364460D01*
X153023500Y-93390818D01*
X153023500Y-93479269D01*
X153026353Y-93509699D01*
X153026353Y-93509701D01*
X153071206Y-93637880D01*
X153071207Y-93637882D01*
X153151850Y-93747150D01*
X153261118Y-93827793D01*
X153275476Y-93832817D01*
X153389299Y-93872646D01*
X153419730Y-93875500D01*
X153419734Y-93875500D01*
X153682481Y-93875500D01*
X153749520Y-93895185D01*
X153770158Y-93911815D01*
X153781678Y-93923335D01*
X153815165Y-93984655D01*
X153818000Y-94011018D01*
X153818000Y-94703794D01*
X153798315Y-94770833D01*
X153767634Y-94803564D01*
X153658850Y-94883850D01*
X153578207Y-94993117D01*
X153578206Y-94993119D01*
X153533353Y-95121298D01*
X153533353Y-95121300D01*
X153530500Y-95151730D01*
X153530500Y-96110269D01*
X153533353Y-96140699D01*
X153533353Y-96140701D01*
X153565425Y-96232354D01*
X153578207Y-96268882D01*
X153658850Y-96378150D01*
X153768118Y-96458793D01*
X153810845Y-96473744D01*
X153896299Y-96503646D01*
X153926730Y-96506500D01*
X153926734Y-96506500D01*
X155110270Y-96506500D01*
X155140699Y-96503646D01*
X155140701Y-96503646D01*
X155207878Y-96480139D01*
X155268882Y-96458793D01*
X155378150Y-96378150D01*
X155458793Y-96268882D01*
X155485282Y-96193181D01*
X155503646Y-96140701D01*
X155503646Y-96140699D01*
X155506500Y-96110269D01*
X155506500Y-95881000D01*
X156106001Y-95881000D01*
X156106001Y-96105986D01*
X156116494Y-96208697D01*
X156171641Y-96375119D01*
X156171643Y-96375124D01*
X156263684Y-96524345D01*
X156387654Y-96648315D01*
X156536875Y-96740356D01*
X156536880Y-96740358D01*
X156703302Y-96795505D01*
X156703309Y-96795506D01*
X156806019Y-96805999D01*
X157143499Y-96805999D01*
X157143500Y-96805998D01*
X157143500Y-95881000D01*
X157643500Y-95881000D01*
X157643500Y-96805999D01*
X157980972Y-96805999D01*
X157980986Y-96805998D01*
X158083697Y-96795505D01*
X158250119Y-96740358D01*
X158250124Y-96740356D01*
X158399345Y-96648315D01*
X158523315Y-96524345D01*
X158615356Y-96375124D01*
X158615358Y-96375119D01*
X158670505Y-96208697D01*
X158670506Y-96208690D01*
X158680999Y-96105986D01*
X158681000Y-96105973D01*
X158681000Y-95881000D01*
X157643500Y-95881000D01*
X157143500Y-95881000D01*
X156106001Y-95881000D01*
X155506500Y-95881000D01*
X155506500Y-95151730D01*
X155503646Y-95121300D01*
X155503646Y-95121298D01*
X155464799Y-95010282D01*
X155458793Y-94993118D01*
X155378150Y-94883850D01*
X155269366Y-94803564D01*
X155227116Y-94747916D01*
X155219000Y-94703794D01*
X155219000Y-94494000D01*
X155238685Y-94426961D01*
X155291489Y-94381206D01*
X155343000Y-94370000D01*
X156345491Y-94370000D01*
X156412530Y-94389685D01*
X156458285Y-94442489D01*
X156468229Y-94511647D01*
X156439204Y-94575203D01*
X156410588Y-94599539D01*
X156387654Y-94613684D01*
X156263684Y-94737654D01*
X156171643Y-94886875D01*
X156171641Y-94886880D01*
X156116494Y-95053302D01*
X156116493Y-95053309D01*
X156106000Y-95156013D01*
X156106000Y-95381000D01*
X157143500Y-95381000D01*
X157143500Y-94456000D01*
X157643500Y-94456000D01*
X157643500Y-95381000D01*
X158680999Y-95381000D01*
X158680999Y-95156028D01*
X158680998Y-95156013D01*
X158670505Y-95053302D01*
X158615358Y-94886880D01*
X158615356Y-94886875D01*
X158523315Y-94737654D01*
X158399345Y-94613684D01*
X158250124Y-94521643D01*
X158250119Y-94521641D01*
X158083697Y-94466494D01*
X158083690Y-94466493D01*
X157980986Y-94456000D01*
X157643500Y-94456000D01*
X157143500Y-94456000D01*
X157123121Y-94456000D01*
X157056082Y-94436315D01*
X157010327Y-94383511D01*
X157000383Y-94314353D01*
X157029408Y-94250797D01*
X157052678Y-94229952D01*
X157099429Y-94197683D01*
X157140565Y-94151248D01*
X157143084Y-94148571D01*
X157379839Y-93911816D01*
X157441161Y-93878334D01*
X157467519Y-93875500D01*
X157730270Y-93875500D01*
X157760699Y-93872646D01*
X157760701Y-93872646D01*
X157824790Y-93850219D01*
X157888882Y-93827793D01*
X157998150Y-93747150D01*
X158078793Y-93637882D01*
X158101219Y-93573790D01*
X158123646Y-93509701D01*
X158123646Y-93509699D01*
X158126500Y-93479269D01*
X158126500Y-92670730D01*
X158123646Y-92640300D01*
X158123646Y-92640298D01*
X158086979Y-92535513D01*
X158078793Y-92512118D01*
X157998150Y-92402850D01*
X157888882Y-92322207D01*
X157888880Y-92322206D01*
X157760700Y-92277353D01*
X157730270Y-92274500D01*
X157730266Y-92274500D01*
X156721734Y-92274500D01*
X156721730Y-92274500D01*
X156691300Y-92277353D01*
X156691298Y-92277353D01*
X156563119Y-92322206D01*
X156563117Y-92322207D01*
X156453850Y-92402850D01*
X156373207Y-92512117D01*
X156373206Y-92512119D01*
X156328353Y-92640298D01*
X156328353Y-92640300D01*
X156325500Y-92670730D01*
X156325500Y-92845000D01*
X156305815Y-92912039D01*
X156253011Y-92957794D01*
X156201500Y-92969000D01*
X154948500Y-92969000D01*
X154881461Y-92949315D01*
X154835706Y-92896511D01*
X154824500Y-92845000D01*
X154824500Y-92670730D01*
X154821646Y-92640300D01*
X154821646Y-92640298D01*
X154784979Y-92535513D01*
X154776793Y-92512118D01*
X154696150Y-92402850D01*
X154586882Y-92322207D01*
X154586880Y-92322206D01*
X154458700Y-92277353D01*
X154428270Y-92274500D01*
X154428266Y-92274500D01*
X153991219Y-92274500D01*
X153924180Y-92254815D01*
X153903538Y-92238181D01*
X153752538Y-92087181D01*
X153719053Y-92025858D01*
X153724037Y-91956166D01*
X153765909Y-91900233D01*
X153831373Y-91875816D01*
X153840219Y-91875500D01*
X154428270Y-91875500D01*
X154458699Y-91872646D01*
X154458701Y-91872646D01*
X154531940Y-91847018D01*
X154586882Y-91827793D01*
X154696150Y-91747150D01*
X154776793Y-91637882D01*
X154811849Y-91537698D01*
X154821646Y-91509701D01*
X154821646Y-91509699D01*
X154824500Y-91479269D01*
X154824500Y-90670730D01*
X154821646Y-90640300D01*
X154821646Y-90640298D01*
X154781056Y-90524301D01*
X154776793Y-90512118D01*
X154696150Y-90402850D01*
X154586882Y-90322207D01*
X154562119Y-90313542D01*
X154457544Y-90276949D01*
X154400769Y-90236227D01*
X154375022Y-90171274D01*
X154374500Y-90159908D01*
X154374500Y-88011500D01*
X154394185Y-87944461D01*
X154446989Y-87898706D01*
X154498500Y-87887500D01*
X154548048Y-87887500D01*
X154548049Y-87887500D01*
X154776981Y-87849298D01*
X154778572Y-87848752D01*
X154828673Y-87831552D01*
X154996503Y-87773936D01*
X155200626Y-87663470D01*
X155207806Y-87657882D01*
X155326560Y-87565452D01*
X155383784Y-87520913D01*
X155540979Y-87350153D01*
X155667924Y-87155849D01*
X155761157Y-86943300D01*
X155818134Y-86718305D01*
X155819874Y-86697310D01*
X155837300Y-86487006D01*
X155837300Y-86486993D01*
X155818135Y-86255702D01*
X155818133Y-86255691D01*
X155761157Y-86030699D01*
X155667924Y-85818151D01*
X155540983Y-85623852D01*
X155540980Y-85623849D01*
X155540979Y-85623847D01*
X155383784Y-85453087D01*
X155376417Y-85447353D01*
X155335604Y-85390642D01*
X155331931Y-85320869D01*
X155366562Y-85260186D01*
X155428504Y-85227860D01*
X155452580Y-85225500D01*
X156506142Y-85225500D01*
X156573181Y-85245185D01*
X156618936Y-85297989D01*
X156628880Y-85367147D01*
X156603089Y-85426813D01*
X156523455Y-85526671D01*
X156396058Y-85747328D01*
X156302973Y-85984505D01*
X156302968Y-85984522D01*
X156246273Y-86232920D01*
X156227233Y-86486995D01*
X156227233Y-86487004D01*
X156246273Y-86741079D01*
X156302968Y-86989477D01*
X156302973Y-86989494D01*
X156396058Y-87226671D01*
X156396057Y-87226671D01*
X156523457Y-87447332D01*
X156565452Y-87499993D01*
X157250590Y-86814855D01*
X157311913Y-86781370D01*
X157381604Y-86786354D01*
X157436645Y-86827049D01*
X157485235Y-86890372D01*
X157504075Y-86914925D01*
X157591948Y-86982353D01*
X157633150Y-87038781D01*
X157637305Y-87108527D01*
X157604142Y-87168409D01*
X156918813Y-87853737D01*
X157079623Y-87963375D01*
X157079624Y-87963376D01*
X157309176Y-88073921D01*
X157309174Y-88073921D01*
X157552652Y-88149024D01*
X157552658Y-88149026D01*
X157804595Y-88186999D01*
X157804604Y-88187000D01*
X158059396Y-88187000D01*
X158059404Y-88186999D01*
X158311341Y-88149026D01*
X158311347Y-88149024D01*
X158554824Y-88073921D01*
X158784381Y-87963373D01*
X158945185Y-87853737D01*
X158259856Y-87168409D01*
X158226371Y-87107086D01*
X158231355Y-87037395D01*
X158272049Y-86982353D01*
X158359925Y-86914925D01*
X158427354Y-86827048D01*
X158483779Y-86785848D01*
X158553525Y-86781693D01*
X158613409Y-86814856D01*
X159298545Y-87499993D01*
X159340545Y-87447327D01*
X159467941Y-87226671D01*
X159561026Y-86989494D01*
X159561031Y-86989477D01*
X159617726Y-86741079D01*
X159636767Y-86487004D01*
X159636767Y-86486995D01*
X159617726Y-86232920D01*
X159561031Y-85984522D01*
X159561026Y-85984505D01*
X159467941Y-85747328D01*
X159467942Y-85747328D01*
X159340544Y-85526671D01*
X159260911Y-85426813D01*
X159234502Y-85362126D01*
X159247259Y-85293430D01*
X159295129Y-85242537D01*
X159357858Y-85225500D01*
X159907500Y-85225500D01*
X159974539Y-85245185D01*
X160020294Y-85297989D01*
X160031500Y-85349500D01*
X160031500Y-87646335D01*
X160011815Y-87713374D01*
X159965440Y-87755966D01*
X159910927Y-87784776D01*
X159857358Y-87810575D01*
X159850308Y-87815380D01*
X159843461Y-87820435D01*
X159822437Y-87841458D01*
X159801413Y-87862483D01*
X159786989Y-87875867D01*
X159757803Y-87902947D01*
X159752013Y-87910208D01*
X159751362Y-87909688D01*
X159741967Y-87921928D01*
X157425716Y-90238181D01*
X157364393Y-90271666D01*
X157338035Y-90274500D01*
X156721730Y-90274500D01*
X156691300Y-90277353D01*
X156691298Y-90277353D01*
X156563119Y-90322206D01*
X156563117Y-90322207D01*
X156453850Y-90402850D01*
X156373207Y-90512117D01*
X156373206Y-90512119D01*
X156328353Y-90640298D01*
X156328353Y-90640300D01*
X156325500Y-90670730D01*
X156325500Y-91479269D01*
X156328353Y-91509699D01*
X156328353Y-91509701D01*
X156373206Y-91637880D01*
X156373207Y-91637882D01*
X156453850Y-91747150D01*
X156563118Y-91827793D01*
X156605845Y-91842744D01*
X156691299Y-91872646D01*
X156721730Y-91875500D01*
X156721734Y-91875500D01*
X157730270Y-91875500D01*
X157760699Y-91872646D01*
X157760701Y-91872646D01*
X157833940Y-91847018D01*
X157888882Y-91827793D01*
X157998150Y-91747150D01*
X158078793Y-91637882D01*
X158113849Y-91537698D01*
X158123646Y-91509701D01*
X158123646Y-91509699D01*
X158126500Y-91479269D01*
X158126500Y-90862965D01*
X158146185Y-90795926D01*
X158162819Y-90775284D01*
X160264284Y-88673819D01*
X160325607Y-88640334D01*
X160351965Y-88637500D01*
X161367268Y-88637500D01*
X161394859Y-88640608D01*
X161397954Y-88641315D01*
X161446561Y-88637672D01*
X161451178Y-88637500D01*
X161465759Y-88637500D01*
X161465762Y-88637500D01*
X161480219Y-88635320D01*
X161484759Y-88634808D01*
X161533378Y-88631166D01*
X161536329Y-88630007D01*
X161563158Y-88622819D01*
X161566287Y-88622348D01*
X161610197Y-88601200D01*
X161614415Y-88599360D01*
X161659794Y-88581552D01*
X161662272Y-88579575D01*
X161685786Y-88564799D01*
X161688642Y-88563425D01*
X161724368Y-88530274D01*
X161727856Y-88527272D01*
X161765970Y-88496879D01*
X161767754Y-88494261D01*
X161785872Y-88473209D01*
X161788194Y-88471055D01*
X161812563Y-88428843D01*
X161814999Y-88424966D01*
X161842472Y-88384673D01*
X161843406Y-88381641D01*
X161854513Y-88356186D01*
X161856096Y-88353445D01*
X161866940Y-88305927D01*
X161868139Y-88301459D01*
X161882500Y-88254901D01*
X161882500Y-88251733D01*
X161885609Y-88224139D01*
X161886315Y-88221045D01*
X161885532Y-88210602D01*
X161882672Y-88172439D01*
X161882500Y-88167821D01*
X161882500Y-88011500D01*
X161902185Y-87944461D01*
X161954989Y-87898706D01*
X162006500Y-87887500D01*
X162651750Y-87887500D01*
X162651751Y-87887499D01*
X162666568Y-87884552D01*
X162710229Y-87875868D01*
X162710229Y-87875867D01*
X162710231Y-87875867D01*
X162776552Y-87831552D01*
X162820867Y-87765231D01*
X162820867Y-87765229D01*
X162820868Y-87765229D01*
X162832499Y-87706752D01*
X162832500Y-87706750D01*
X162832500Y-85775218D01*
X162852185Y-85708179D01*
X162904989Y-85662424D01*
X162974147Y-85652480D01*
X163037703Y-85681505D01*
X163044177Y-85687534D01*
X163771182Y-86414539D01*
X163804666Y-86475860D01*
X163807500Y-86502218D01*
X163807500Y-87499269D01*
X163810353Y-87529699D01*
X163810353Y-87529701D01*
X163855206Y-87657880D01*
X163855207Y-87657882D01*
X163883270Y-87695906D01*
X163907241Y-87761533D01*
X163907500Y-87769539D01*
X163907500Y-88384951D01*
X163907387Y-88388696D01*
X163903642Y-88450603D01*
X163903642Y-88450605D01*
X163914821Y-88511612D01*
X163915384Y-88515313D01*
X163922859Y-88576870D01*
X163922860Y-88576874D01*
X163926451Y-88586343D01*
X163932474Y-88607946D01*
X163934304Y-88617930D01*
X163959759Y-88674490D01*
X163961189Y-88677941D01*
X163983182Y-88735930D01*
X163987826Y-88742657D01*
X163988936Y-88744266D01*
X163999961Y-88763813D01*
X164004120Y-88773055D01*
X164004124Y-88773060D01*
X164016267Y-88788559D01*
X164034618Y-88811983D01*
X164042371Y-88821878D01*
X164044591Y-88824896D01*
X164079812Y-88875924D01*
X164079816Y-88875928D01*
X164079817Y-88875929D01*
X164126250Y-88917064D01*
X164128941Y-88919598D01*
X165858399Y-90649056D01*
X165860935Y-90651750D01*
X165902071Y-90698183D01*
X165913189Y-90705857D01*
X165953110Y-90733413D01*
X165956127Y-90735633D01*
X166004938Y-90773874D01*
X166004943Y-90773877D01*
X166014174Y-90778031D01*
X166033727Y-90789059D01*
X166042070Y-90794818D01*
X166100057Y-90816809D01*
X166103512Y-90818239D01*
X166130100Y-90830206D01*
X166160063Y-90843692D01*
X166160064Y-90843692D01*
X166160068Y-90843694D01*
X166170030Y-90845519D01*
X166191651Y-90851546D01*
X166199965Y-90854699D01*
X166201128Y-90855140D01*
X166240842Y-90859962D01*
X166305020Y-90887583D01*
X166342937Y-90942102D01*
X166357206Y-90982881D01*
X166357207Y-90982882D01*
X166437850Y-91092150D01*
X166547118Y-91172793D01*
X166589845Y-91187744D01*
X166675299Y-91217646D01*
X166705730Y-91220500D01*
X166705734Y-91220500D01*
X167614270Y-91220500D01*
X167644699Y-91217646D01*
X167644701Y-91217646D01*
X167708790Y-91195219D01*
X167772882Y-91172793D01*
X167882150Y-91092150D01*
X167962793Y-90982882D01*
X167993855Y-90894111D01*
X168007646Y-90854701D01*
X168007646Y-90854699D01*
X168010500Y-90824269D01*
X168010500Y-89515730D01*
X168007646Y-89485300D01*
X168007646Y-89485298D01*
X167962793Y-89357119D01*
X167962792Y-89357117D01*
X167909371Y-89284734D01*
X167882150Y-89247850D01*
X167772882Y-89167207D01*
X167772880Y-89167206D01*
X167644700Y-89122353D01*
X167614270Y-89119500D01*
X167614266Y-89119500D01*
X166705734Y-89119500D01*
X166705730Y-89119500D01*
X166675300Y-89122353D01*
X166675298Y-89122353D01*
X166547119Y-89167206D01*
X166547118Y-89167207D01*
X166524085Y-89184206D01*
X166458455Y-89208176D01*
X166390285Y-89192858D01*
X166362772Y-89172115D01*
X165344819Y-88154162D01*
X165311334Y-88092839D01*
X165308500Y-88066481D01*
X165308500Y-87769539D01*
X165328185Y-87702500D01*
X165332722Y-87695916D01*
X165360793Y-87657882D01*
X165393136Y-87565452D01*
X165405646Y-87529701D01*
X165405646Y-87529699D01*
X165408500Y-87499269D01*
X165408500Y-87050818D01*
X165428185Y-86983779D01*
X165444813Y-86963142D01*
X165595822Y-86812133D01*
X165657142Y-86778651D01*
X165726833Y-86783635D01*
X165782767Y-86825506D01*
X165807184Y-86890971D01*
X165807500Y-86899817D01*
X165807500Y-87499269D01*
X165810353Y-87529699D01*
X165810353Y-87529701D01*
X165855206Y-87657880D01*
X165855207Y-87657882D01*
X165935850Y-87767150D01*
X166045118Y-87847793D01*
X166070530Y-87856685D01*
X166173299Y-87892646D01*
X166203730Y-87895500D01*
X166203734Y-87895500D01*
X167012270Y-87895500D01*
X167042699Y-87892646D01*
X167042701Y-87892646D01*
X167128900Y-87862483D01*
X167170882Y-87847793D01*
X167280150Y-87767150D01*
X167360793Y-87657882D01*
X167397318Y-87553500D01*
X167405646Y-87529700D01*
X167406227Y-87527042D01*
X167407197Y-87525268D01*
X167408139Y-87522577D01*
X167408584Y-87522732D01*
X167439762Y-87465746D01*
X167501113Y-87432312D01*
X167527371Y-87429500D01*
X168243500Y-87429500D01*
X168310539Y-87449185D01*
X168356294Y-87501989D01*
X168367500Y-87553500D01*
X168367500Y-87848752D01*
X168379131Y-87907229D01*
X168379132Y-87907230D01*
X168423447Y-87973552D01*
X168489769Y-88017867D01*
X168489770Y-88017868D01*
X168548247Y-88029499D01*
X168548250Y-88029500D01*
X168548252Y-88029500D01*
X170287750Y-88029500D01*
X170287751Y-88029499D01*
X170302568Y-88026552D01*
X170346229Y-88017868D01*
X170346229Y-88017867D01*
X170346231Y-88017867D01*
X170412552Y-87973552D01*
X170456867Y-87907231D01*
X170456867Y-87907229D01*
X170456868Y-87907229D01*
X170465768Y-87862483D01*
X170468500Y-87848748D01*
X170468500Y-86203499D01*
X170488185Y-86136461D01*
X170540989Y-86090706D01*
X170592500Y-86079500D01*
X171075052Y-86079500D01*
X171142091Y-86099185D01*
X171187846Y-86151989D01*
X171197790Y-86221147D01*
X171170905Y-86282165D01*
X171080317Y-86392546D01*
X170982769Y-86575043D01*
X170922699Y-86773067D01*
X170902417Y-86979000D01*
X170922699Y-87184932D01*
X170936067Y-87229000D01*
X170982768Y-87382954D01*
X171080315Y-87565450D01*
X171080317Y-87565452D01*
X171211589Y-87725410D01*
X171315364Y-87810575D01*
X171367353Y-87853241D01*
X171371549Y-87856684D01*
X171371551Y-87856686D01*
X171382397Y-87862483D01*
X171441953Y-87894316D01*
X171491797Y-87943277D01*
X171507500Y-88003674D01*
X171507500Y-88300217D01*
X171507110Y-88307155D01*
X171505724Y-88319454D01*
X171502729Y-88346034D01*
X171513788Y-88404479D01*
X171522652Y-88463290D01*
X171525162Y-88471427D01*
X171527978Y-88479475D01*
X171555777Y-88532072D01*
X171581576Y-88585644D01*
X171586362Y-88592665D01*
X171591431Y-88599532D01*
X171591434Y-88599538D01*
X171633495Y-88641599D01*
X171668653Y-88679491D01*
X171673947Y-88685196D01*
X171681210Y-88690988D01*
X171680689Y-88691641D01*
X171692930Y-88701034D01*
X171975575Y-88983679D01*
X172009060Y-89045002D01*
X172004076Y-89114694D01*
X172000113Y-89123527D01*
X171954353Y-89254303D01*
X171951500Y-89284730D01*
X171951500Y-90293269D01*
X171954353Y-90323699D01*
X171954353Y-90323701D01*
X171986313Y-90415034D01*
X171999207Y-90451882D01*
X172079850Y-90561150D01*
X172189118Y-90641793D01*
X172217622Y-90651767D01*
X172317299Y-90686646D01*
X172347730Y-90689500D01*
X172347734Y-90689500D01*
X173156270Y-90689500D01*
X173186699Y-90686646D01*
X173186701Y-90686646D01*
X173250790Y-90664219D01*
X173314882Y-90641793D01*
X173424150Y-90561150D01*
X173504793Y-90451882D01*
X173527219Y-90387790D01*
X173549646Y-90323701D01*
X173549646Y-90323699D01*
X173552500Y-90293269D01*
X173552500Y-89284730D01*
X173549646Y-89254300D01*
X173549646Y-89254298D01*
X173504793Y-89126119D01*
X173504792Y-89126117D01*
X173504789Y-89126113D01*
X173424150Y-89016850D01*
X173314882Y-88936207D01*
X173314880Y-88936206D01*
X173186696Y-88891352D01*
X173184791Y-88890936D01*
X173183517Y-88890239D01*
X173179577Y-88888861D01*
X173179804Y-88888210D01*
X173123578Y-88857475D01*
X173101883Y-88835780D01*
X173076516Y-88810413D01*
X173036055Y-88766806D01*
X173028792Y-88761014D01*
X173029312Y-88760361D01*
X173017067Y-88750964D01*
X172444819Y-88178715D01*
X172411334Y-88117392D01*
X172408500Y-88091034D01*
X172408500Y-88003674D01*
X172428185Y-87936635D01*
X172474046Y-87894316D01*
X172544450Y-87856685D01*
X172704410Y-87725410D01*
X172835685Y-87565450D01*
X172933232Y-87382954D01*
X172993300Y-87184934D01*
X173013583Y-86979000D01*
X172993300Y-86773066D01*
X172933232Y-86575046D01*
X172835685Y-86392550D01*
X172784051Y-86329634D01*
X172745095Y-86282165D01*
X172717782Y-86217855D01*
X172729573Y-86148987D01*
X172776725Y-86097427D01*
X172840948Y-86079500D01*
X173615052Y-86079500D01*
X173682091Y-86099185D01*
X173727846Y-86151989D01*
X173737790Y-86221147D01*
X173710905Y-86282165D01*
X173620317Y-86392546D01*
X173522769Y-86575043D01*
X173462699Y-86773067D01*
X173442417Y-86979000D01*
X173462699Y-87184932D01*
X173476067Y-87229000D01*
X173522768Y-87382954D01*
X173620315Y-87565450D01*
X173751590Y-87725410D01*
X173752159Y-87725877D01*
X173752379Y-87726199D01*
X173755893Y-87729713D01*
X173755226Y-87730379D01*
X173791496Y-87783618D01*
X173797500Y-87821734D01*
X173797500Y-88555951D01*
X173797387Y-88559696D01*
X173795437Y-88591939D01*
X173793642Y-88621606D01*
X173797254Y-88641315D01*
X173804821Y-88682612D01*
X173805384Y-88686313D01*
X173812859Y-88747870D01*
X173812860Y-88747874D01*
X173816451Y-88757343D01*
X173822474Y-88778946D01*
X173824304Y-88788930D01*
X173849759Y-88845490D01*
X173851189Y-88848941D01*
X173873182Y-88906930D01*
X173877826Y-88913657D01*
X173878936Y-88915266D01*
X173889961Y-88934813D01*
X173894120Y-88944055D01*
X173894124Y-88944060D01*
X173932371Y-88992878D01*
X173934577Y-88995876D01*
X173947405Y-89014460D01*
X173971893Y-89049937D01*
X173993776Y-89116292D01*
X173986885Y-89161331D01*
X173954353Y-89254301D01*
X173951500Y-89284730D01*
X173951500Y-90293269D01*
X173954353Y-90323699D01*
X173954353Y-90323701D01*
X173986313Y-90415034D01*
X173999207Y-90451882D01*
X174079850Y-90561150D01*
X174189118Y-90641793D01*
X174217622Y-90651767D01*
X174317299Y-90686646D01*
X174347730Y-90689500D01*
X174347734Y-90689500D01*
X175156270Y-90689500D01*
X175186699Y-90686646D01*
X175186701Y-90686646D01*
X175250790Y-90664219D01*
X175314882Y-90641793D01*
X175424150Y-90561150D01*
X175504793Y-90451882D01*
X175527219Y-90387790D01*
X175549646Y-90323701D01*
X175549646Y-90323699D01*
X175552500Y-90293269D01*
X175552500Y-89284730D01*
X175549646Y-89254300D01*
X175549646Y-89254298D01*
X175513150Y-89150000D01*
X179018001Y-89150000D01*
X179018001Y-89399986D01*
X179028494Y-89502697D01*
X179083641Y-89669119D01*
X179083643Y-89669124D01*
X179175684Y-89818345D01*
X179299654Y-89942315D01*
X179448875Y-90034356D01*
X179448880Y-90034358D01*
X179615302Y-90089505D01*
X179615309Y-90089506D01*
X179718019Y-90099999D01*
X179867999Y-90099999D01*
X179868000Y-90099998D01*
X179868000Y-89150000D01*
X179018001Y-89150000D01*
X175513150Y-89150000D01*
X175504793Y-89126119D01*
X175504790Y-89126113D01*
X175476730Y-89088093D01*
X175452759Y-89022464D01*
X175452500Y-89014460D01*
X175452500Y-88856035D01*
X175452613Y-88852290D01*
X175456357Y-88790394D01*
X175445177Y-88729386D01*
X175444615Y-88725689D01*
X175437140Y-88664129D01*
X175437139Y-88664125D01*
X175433546Y-88654651D01*
X175432250Y-88650000D01*
X179018000Y-88650000D01*
X179868000Y-88650000D01*
X179868000Y-88649999D01*
X179867999Y-87700000D01*
X179718027Y-87700000D01*
X179718012Y-87700001D01*
X179615302Y-87710494D01*
X179448880Y-87765641D01*
X179448875Y-87765643D01*
X179299654Y-87857684D01*
X179175684Y-87981654D01*
X179083643Y-88130875D01*
X179083641Y-88130880D01*
X179028494Y-88297302D01*
X179028493Y-88297309D01*
X179018000Y-88400013D01*
X179018000Y-88650000D01*
X175432250Y-88650000D01*
X175427519Y-88633029D01*
X175427178Y-88631166D01*
X175425694Y-88623068D01*
X175400241Y-88566514D01*
X175398807Y-88563052D01*
X175385781Y-88528705D01*
X175376818Y-88505070D01*
X175371058Y-88496726D01*
X175360035Y-88477180D01*
X175355878Y-88467943D01*
X175317617Y-88419107D01*
X175315417Y-88416117D01*
X175291624Y-88381646D01*
X175280184Y-88365072D01*
X175267056Y-88353442D01*
X175240271Y-88329712D01*
X175203146Y-88270523D01*
X175198500Y-88236898D01*
X175198500Y-87821734D01*
X175218185Y-87754695D01*
X175240275Y-87729881D01*
X175240107Y-87729713D01*
X175243003Y-87726816D01*
X175243838Y-87725879D01*
X175244410Y-87725410D01*
X175375685Y-87565450D01*
X175473232Y-87382954D01*
X175493406Y-87316446D01*
X175531702Y-87258010D01*
X175595514Y-87229553D01*
X175664581Y-87240112D01*
X175716975Y-87286336D01*
X175731841Y-87320349D01*
X175764567Y-87442486D01*
X175764570Y-87442492D01*
X175864399Y-87656578D01*
X175999894Y-87850082D01*
X176166917Y-88017105D01*
X176360421Y-88152600D01*
X176574507Y-88252429D01*
X176574516Y-88252433D01*
X176788000Y-88309634D01*
X176788000Y-87591301D01*
X176807685Y-87524262D01*
X176860489Y-87478507D01*
X176929647Y-87468563D01*
X177002237Y-87479000D01*
X177002238Y-87479000D01*
X177073762Y-87479000D01*
X177073763Y-87479000D01*
X177146352Y-87468563D01*
X177215510Y-87478507D01*
X177268314Y-87524261D01*
X177287999Y-87591301D01*
X177287999Y-88309634D01*
X177501483Y-88252433D01*
X177501492Y-88252429D01*
X177715578Y-88152600D01*
X177909082Y-88017105D01*
X178076105Y-87850082D01*
X178211600Y-87656578D01*
X178311429Y-87442492D01*
X178311432Y-87442486D01*
X178368636Y-87229000D01*
X177651347Y-87229000D01*
X177584308Y-87209315D01*
X177538553Y-87156511D01*
X177528609Y-87087353D01*
X177532369Y-87070067D01*
X177538000Y-87050888D01*
X177538000Y-86907111D01*
X177532369Y-86887933D01*
X177532370Y-86818064D01*
X177570145Y-86759286D01*
X177633701Y-86730262D01*
X177651347Y-86729000D01*
X178368636Y-86729000D01*
X178368635Y-86728999D01*
X178311432Y-86515513D01*
X178311429Y-86515507D01*
X178211600Y-86301422D01*
X178211598Y-86301418D01*
X178192836Y-86274624D01*
X178170508Y-86208418D01*
X178187518Y-86140651D01*
X178238465Y-86092838D01*
X178294410Y-86079500D01*
X180398984Y-86079500D01*
X180466023Y-86099185D01*
X180486665Y-86115819D01*
X182158665Y-87787819D01*
X182192150Y-87849142D01*
X182187166Y-87918834D01*
X182145294Y-87974767D01*
X182079830Y-87999184D01*
X182070984Y-87999500D01*
X181713730Y-87999500D01*
X181683300Y-88002353D01*
X181683298Y-88002353D01*
X181555119Y-88047206D01*
X181555117Y-88047207D01*
X181445850Y-88127850D01*
X181384776Y-88210602D01*
X181329128Y-88252853D01*
X181259472Y-88258311D01*
X181197923Y-88225243D01*
X181167300Y-88175972D01*
X181152358Y-88130880D01*
X181152356Y-88130875D01*
X181060315Y-87981654D01*
X180936345Y-87857684D01*
X180787124Y-87765643D01*
X180787119Y-87765641D01*
X180620697Y-87710494D01*
X180620690Y-87710493D01*
X180517986Y-87700000D01*
X180368000Y-87700000D01*
X180368000Y-90099999D01*
X180517972Y-90099999D01*
X180517986Y-90099998D01*
X180620697Y-90089505D01*
X180787119Y-90034358D01*
X180787124Y-90034356D01*
X180936345Y-89942315D01*
X181060315Y-89818345D01*
X181152356Y-89669124D01*
X181152359Y-89669117D01*
X181167300Y-89624028D01*
X181207072Y-89566583D01*
X181271587Y-89539759D01*
X181340363Y-89552073D01*
X181384775Y-89589396D01*
X181445850Y-89672150D01*
X181555118Y-89752793D01*
X181584456Y-89763059D01*
X181641230Y-89803779D01*
X181666978Y-89868731D01*
X181667500Y-89880099D01*
X181667500Y-90014217D01*
X181667110Y-90021155D01*
X181665724Y-90033454D01*
X181662729Y-90060034D01*
X181673788Y-90118479D01*
X181682652Y-90177290D01*
X181685162Y-90185427D01*
X181687978Y-90193475D01*
X181705669Y-90226947D01*
X181715777Y-90246072D01*
X181738504Y-90293266D01*
X181741576Y-90299644D01*
X181746362Y-90306665D01*
X181751431Y-90313532D01*
X181751434Y-90313538D01*
X181751438Y-90313542D01*
X181793496Y-90355600D01*
X181833947Y-90399196D01*
X181841210Y-90404988D01*
X181840689Y-90405641D01*
X181852930Y-90415034D01*
X184006513Y-92568617D01*
X184039998Y-92629940D01*
X184035014Y-92699632D01*
X183997503Y-92752146D01*
X183982641Y-92764344D01*
X183863864Y-92909073D01*
X183863862Y-92909076D01*
X183775604Y-93074197D01*
X183721253Y-93253366D01*
X183721252Y-93253368D01*
X183702901Y-93439700D01*
X183721252Y-93626031D01*
X183721253Y-93626033D01*
X183775604Y-93805202D01*
X183863862Y-93970323D01*
X183863864Y-93970326D01*
X183982642Y-94115057D01*
X184032978Y-94156367D01*
X184072312Y-94214113D01*
X184074183Y-94283958D01*
X184041994Y-94339901D01*
X182729716Y-95652181D01*
X182668393Y-95685666D01*
X182642035Y-95688500D01*
X168663991Y-95688500D01*
X168596952Y-95668815D01*
X168551197Y-95616011D01*
X168540533Y-95576079D01*
X168537646Y-95545300D01*
X168537646Y-95545298D01*
X168503249Y-95447000D01*
X168492793Y-95417118D01*
X168412150Y-95307850D01*
X168302882Y-95227207D01*
X168302880Y-95227206D01*
X168174700Y-95182353D01*
X168144270Y-95179500D01*
X168144266Y-95179500D01*
X167135734Y-95179500D01*
X167135730Y-95179500D01*
X167105300Y-95182353D01*
X167105298Y-95182353D01*
X166977119Y-95227206D01*
X166977117Y-95227207D01*
X166867850Y-95307850D01*
X166787207Y-95417117D01*
X166787206Y-95417119D01*
X166742353Y-95545298D01*
X166742353Y-95545300D01*
X166739500Y-95575730D01*
X166739500Y-96384269D01*
X166742353Y-96414699D01*
X166742354Y-96414701D01*
X166786039Y-96539545D01*
X166789601Y-96609324D01*
X166754873Y-96669951D01*
X166692879Y-96702179D01*
X166668998Y-96704500D01*
X165521802Y-96704500D01*
X165454763Y-96684815D01*
X165409008Y-96632011D01*
X165401122Y-96602480D01*
X165400256Y-96602670D01*
X165398646Y-96595298D01*
X165353793Y-96467119D01*
X165353792Y-96467117D01*
X165273150Y-96357850D01*
X165163882Y-96277207D01*
X165163880Y-96277206D01*
X165035700Y-96232353D01*
X165005270Y-96229500D01*
X165005266Y-96229500D01*
X164400464Y-96229500D01*
X164333425Y-96209815D01*
X164287670Y-96157011D01*
X164277726Y-96087853D01*
X164306751Y-96024297D01*
X164312783Y-96017819D01*
X164338912Y-95991690D01*
X164537713Y-95792888D01*
X164542873Y-95788277D01*
X164573470Y-95763879D01*
X164606980Y-95714728D01*
X164642293Y-95666882D01*
X164642294Y-95666879D01*
X164646278Y-95659341D01*
X164649974Y-95651668D01*
X164667506Y-95594827D01*
X164674188Y-95575730D01*
X164687146Y-95538700D01*
X164687146Y-95538695D01*
X164688728Y-95530336D01*
X164690000Y-95521899D01*
X164690000Y-95462426D01*
X164692224Y-95402992D01*
X164691184Y-95393761D01*
X164692013Y-95393667D01*
X164690000Y-95378366D01*
X164690000Y-93299138D01*
X164709685Y-93232099D01*
X164762489Y-93186344D01*
X164831647Y-93176400D01*
X164838192Y-93177521D01*
X164868249Y-93183500D01*
X164868252Y-93183500D01*
X166155034Y-93183500D01*
X166222073Y-93203185D01*
X166242715Y-93219819D01*
X166703181Y-93680285D01*
X166736666Y-93741608D01*
X166739500Y-93767966D01*
X166739500Y-94384269D01*
X166742353Y-94414699D01*
X166742353Y-94414701D01*
X166787206Y-94542880D01*
X166787207Y-94542882D01*
X166867850Y-94652150D01*
X166977118Y-94732793D01*
X167019845Y-94747744D01*
X167105299Y-94777646D01*
X167135730Y-94780500D01*
X167135734Y-94780500D01*
X168144270Y-94780500D01*
X168174699Y-94777646D01*
X168174701Y-94777646D01*
X168238790Y-94755219D01*
X168302882Y-94732793D01*
X168412150Y-94652150D01*
X168439568Y-94615000D01*
X169674353Y-94615000D01*
X169694834Y-94757456D01*
X169726019Y-94825740D01*
X169754623Y-94888373D01*
X169848872Y-94997143D01*
X169969947Y-95074953D01*
X169969950Y-95074954D01*
X169969949Y-95074954D01*
X170108036Y-95115499D01*
X170108038Y-95115500D01*
X170108039Y-95115500D01*
X170251961Y-95115500D01*
X170321019Y-95095222D01*
X170355953Y-95090200D01*
X178349217Y-95090200D01*
X178356155Y-95090589D01*
X178388050Y-95094183D01*
X178395034Y-95094970D01*
X178395034Y-95094969D01*
X178395035Y-95094970D01*
X178453479Y-95083911D01*
X178512287Y-95075048D01*
X178512290Y-95075046D01*
X178520447Y-95072530D01*
X178528469Y-95069723D01*
X178528472Y-95069723D01*
X178581072Y-95041922D01*
X178634642Y-95016125D01*
X178634642Y-95016124D01*
X178634644Y-95016124D01*
X178641695Y-95011316D01*
X178648538Y-95006266D01*
X178690599Y-94964204D01*
X178713645Y-94942821D01*
X178734194Y-94923755D01*
X178734196Y-94923750D01*
X178739987Y-94916490D01*
X178740643Y-94917013D01*
X178750032Y-94904770D01*
X179252176Y-94402626D01*
X179313497Y-94369143D01*
X179375851Y-94371649D01*
X179391666Y-94376446D01*
X179391668Y-94376447D01*
X179408374Y-94378092D01*
X179578000Y-94394799D01*
X179764331Y-94376447D01*
X179943501Y-94322096D01*
X180108625Y-94233836D01*
X180253357Y-94115057D01*
X180372136Y-93970325D01*
X180460396Y-93805201D01*
X180514747Y-93626031D01*
X180533099Y-93439700D01*
X181162901Y-93439700D01*
X181181252Y-93626031D01*
X181181253Y-93626033D01*
X181235604Y-93805202D01*
X181323862Y-93970323D01*
X181323864Y-93970326D01*
X181442642Y-94115057D01*
X181587373Y-94233835D01*
X181587376Y-94233837D01*
X181714314Y-94301686D01*
X181752499Y-94322096D01*
X181924397Y-94374241D01*
X181931666Y-94376446D01*
X181931668Y-94376447D01*
X181948374Y-94378092D01*
X182118000Y-94394799D01*
X182304331Y-94376447D01*
X182483501Y-94322096D01*
X182648625Y-94233836D01*
X182793357Y-94115057D01*
X182912136Y-93970325D01*
X183000396Y-93805201D01*
X183054747Y-93626031D01*
X183073099Y-93439700D01*
X183055449Y-93260500D01*
X183054747Y-93253368D01*
X183054746Y-93253366D01*
X183033552Y-93183500D01*
X183000396Y-93074199D01*
X182971490Y-93020119D01*
X182912137Y-92909076D01*
X182912135Y-92909073D01*
X182793357Y-92764342D01*
X182648626Y-92645564D01*
X182648623Y-92645562D01*
X182483502Y-92557304D01*
X182304333Y-92502953D01*
X182304331Y-92502952D01*
X182118000Y-92484601D01*
X181931668Y-92502952D01*
X181931666Y-92502953D01*
X181752497Y-92557304D01*
X181587376Y-92645562D01*
X181587373Y-92645564D01*
X181442642Y-92764342D01*
X181323864Y-92909073D01*
X181323862Y-92909076D01*
X181235604Y-93074197D01*
X181181253Y-93253366D01*
X181181252Y-93253368D01*
X181162901Y-93439700D01*
X180533099Y-93439700D01*
X180515449Y-93260500D01*
X180514747Y-93253368D01*
X180514746Y-93253366D01*
X180493552Y-93183500D01*
X180460396Y-93074199D01*
X180431490Y-93020119D01*
X180372137Y-92909076D01*
X180372135Y-92909073D01*
X180253357Y-92764342D01*
X180108626Y-92645564D01*
X180108623Y-92645562D01*
X179943502Y-92557304D01*
X179764333Y-92502953D01*
X179764331Y-92502952D01*
X179578000Y-92484601D01*
X179391668Y-92502952D01*
X179391666Y-92502953D01*
X179212497Y-92557304D01*
X179047376Y-92645562D01*
X179047373Y-92645564D01*
X178902642Y-92764342D01*
X178783864Y-92909073D01*
X178783862Y-92909076D01*
X178695604Y-93074197D01*
X178641253Y-93253366D01*
X178641252Y-93253368D01*
X178622901Y-93439700D01*
X178641252Y-93626031D01*
X178646051Y-93641849D01*
X178646674Y-93711716D01*
X178615071Y-93765524D01*
X178227716Y-94152881D01*
X178166393Y-94186366D01*
X178140035Y-94189200D01*
X177914686Y-94189200D01*
X177847647Y-94169515D01*
X177801892Y-94116711D01*
X177791948Y-94047553D01*
X177818833Y-93986535D01*
X177832135Y-93970326D01*
X177832137Y-93970323D01*
X177837838Y-93959657D01*
X177920396Y-93805201D01*
X177974747Y-93626031D01*
X177993099Y-93439700D01*
X177975449Y-93260500D01*
X177974747Y-93253368D01*
X177974746Y-93253366D01*
X177953552Y-93183500D01*
X177920396Y-93074199D01*
X177891490Y-93020119D01*
X177832137Y-92909076D01*
X177832135Y-92909073D01*
X177713357Y-92764342D01*
X177568626Y-92645564D01*
X177568623Y-92645562D01*
X177403502Y-92557304D01*
X177224333Y-92502953D01*
X177224331Y-92502952D01*
X177038000Y-92484601D01*
X176851668Y-92502952D01*
X176851666Y-92502953D01*
X176672497Y-92557304D01*
X176507376Y-92645562D01*
X176507373Y-92645564D01*
X176362642Y-92764342D01*
X176243864Y-92909073D01*
X176243862Y-92909076D01*
X176155604Y-93074197D01*
X176101253Y-93253366D01*
X176101252Y-93253368D01*
X176082901Y-93439700D01*
X176101252Y-93626031D01*
X176101253Y-93626033D01*
X176155604Y-93805202D01*
X176243862Y-93970323D01*
X176243864Y-93970326D01*
X176257167Y-93986535D01*
X176284480Y-94050844D01*
X176272689Y-94119712D01*
X176225537Y-94171272D01*
X176161314Y-94189200D01*
X175374686Y-94189200D01*
X175307647Y-94169515D01*
X175261892Y-94116711D01*
X175251948Y-94047553D01*
X175278833Y-93986535D01*
X175292135Y-93970326D01*
X175292137Y-93970323D01*
X175297838Y-93959657D01*
X175380396Y-93805201D01*
X175434747Y-93626031D01*
X175453099Y-93439700D01*
X175435449Y-93260500D01*
X175434747Y-93253368D01*
X175434746Y-93253366D01*
X175413552Y-93183500D01*
X175380396Y-93074199D01*
X175351490Y-93020119D01*
X175292137Y-92909076D01*
X175292135Y-92909073D01*
X175173357Y-92764342D01*
X175028626Y-92645564D01*
X175028623Y-92645562D01*
X174863502Y-92557304D01*
X174684333Y-92502953D01*
X174684331Y-92502952D01*
X174498000Y-92484601D01*
X174311668Y-92502952D01*
X174311666Y-92502953D01*
X174132497Y-92557304D01*
X173967376Y-92645562D01*
X173967373Y-92645564D01*
X173822642Y-92764342D01*
X173703864Y-92909073D01*
X173703862Y-92909076D01*
X173615604Y-93074197D01*
X173561253Y-93253366D01*
X173561252Y-93253368D01*
X173542901Y-93439700D01*
X173561252Y-93626031D01*
X173561253Y-93626033D01*
X173615604Y-93805202D01*
X173703862Y-93970323D01*
X173703864Y-93970326D01*
X173717167Y-93986535D01*
X173744480Y-94050844D01*
X173732689Y-94119712D01*
X173685537Y-94171272D01*
X173621314Y-94189200D01*
X172834686Y-94189200D01*
X172767647Y-94169515D01*
X172721892Y-94116711D01*
X172711948Y-94047553D01*
X172738833Y-93986535D01*
X172752135Y-93970326D01*
X172752137Y-93970323D01*
X172757838Y-93959657D01*
X172840396Y-93805201D01*
X172894747Y-93626031D01*
X172913099Y-93439700D01*
X172895449Y-93260500D01*
X172894747Y-93253368D01*
X172894746Y-93253366D01*
X172873552Y-93183500D01*
X172840396Y-93074199D01*
X172811490Y-93020119D01*
X172752137Y-92909076D01*
X172752135Y-92909073D01*
X172633357Y-92764342D01*
X172488626Y-92645564D01*
X172488623Y-92645562D01*
X172323502Y-92557304D01*
X172144333Y-92502953D01*
X172144331Y-92502952D01*
X171958000Y-92484601D01*
X171771668Y-92502952D01*
X171755846Y-92507752D01*
X171685979Y-92508373D01*
X171632174Y-92476771D01*
X171146819Y-91991415D01*
X171113334Y-91930092D01*
X171110500Y-91903734D01*
X171110500Y-91317595D01*
X171130185Y-91250556D01*
X171182989Y-91204801D01*
X171193523Y-91200561D01*
X171272882Y-91172793D01*
X171382150Y-91092150D01*
X171462793Y-90982882D01*
X171493855Y-90894111D01*
X171507646Y-90854701D01*
X171507646Y-90854699D01*
X171510500Y-90824269D01*
X171510500Y-89515730D01*
X171507646Y-89485300D01*
X171507646Y-89485298D01*
X171462793Y-89357119D01*
X171462792Y-89357117D01*
X171409371Y-89284734D01*
X171382150Y-89247850D01*
X171272882Y-89167207D01*
X171272880Y-89167206D01*
X171144700Y-89122353D01*
X171114270Y-89119500D01*
X171114266Y-89119500D01*
X170205734Y-89119500D01*
X170205730Y-89119500D01*
X170175300Y-89122353D01*
X170175298Y-89122353D01*
X170047119Y-89167206D01*
X170047117Y-89167207D01*
X169937850Y-89247850D01*
X169857207Y-89357117D01*
X169857206Y-89357119D01*
X169812353Y-89485298D01*
X169812353Y-89485300D01*
X169809500Y-89515730D01*
X169809500Y-90824269D01*
X169812353Y-90854699D01*
X169812353Y-90854701D01*
X169857206Y-90982880D01*
X169857207Y-90982882D01*
X169937850Y-91092150D01*
X170047118Y-91172793D01*
X170126458Y-91200555D01*
X170183231Y-91241275D01*
X170208978Y-91306228D01*
X170209500Y-91317595D01*
X170209500Y-92112917D01*
X170209110Y-92119855D01*
X170207724Y-92132154D01*
X170204729Y-92158734D01*
X170215788Y-92217179D01*
X170224652Y-92275990D01*
X170227162Y-92284127D01*
X170229978Y-92292175D01*
X170257777Y-92344772D01*
X170283576Y-92398344D01*
X170288362Y-92405365D01*
X170293431Y-92412232D01*
X170293434Y-92412238D01*
X170335495Y-92454299D01*
X170367348Y-92488629D01*
X170375947Y-92497896D01*
X170383210Y-92503688D01*
X170382689Y-92504341D01*
X170394930Y-92513734D01*
X170715207Y-92834011D01*
X170995071Y-93113874D01*
X171028556Y-93175197D01*
X171026052Y-93237546D01*
X171021252Y-93253368D01*
X171002901Y-93439700D01*
X171021252Y-93626031D01*
X171021253Y-93626033D01*
X171075604Y-93805202D01*
X171163862Y-93970323D01*
X171163864Y-93970326D01*
X171177167Y-93986535D01*
X171204480Y-94050844D01*
X171192689Y-94119712D01*
X171145537Y-94171272D01*
X171081314Y-94189200D01*
X170479606Y-94189200D01*
X170412567Y-94169516D01*
X170390053Y-94155047D01*
X170390051Y-94155046D01*
X170390049Y-94155045D01*
X170390050Y-94155045D01*
X170251963Y-94114500D01*
X170251961Y-94114500D01*
X170108039Y-94114500D01*
X170108036Y-94114500D01*
X169969949Y-94155045D01*
X169848873Y-94232856D01*
X169848872Y-94232856D01*
X169848872Y-94232857D01*
X169843609Y-94238931D01*
X169754623Y-94341626D01*
X169754622Y-94341628D01*
X169694834Y-94472543D01*
X169674353Y-94615000D01*
X168439568Y-94615000D01*
X168492793Y-94542882D01*
X168529725Y-94437336D01*
X168537646Y-94414701D01*
X168537646Y-94414699D01*
X168540500Y-94384269D01*
X168540500Y-93575730D01*
X168537646Y-93545300D01*
X168537646Y-93545298D01*
X168492793Y-93417119D01*
X168492792Y-93417117D01*
X168412150Y-93307850D01*
X168302882Y-93227207D01*
X168302880Y-93227206D01*
X168174700Y-93182353D01*
X168144270Y-93179500D01*
X168144266Y-93179500D01*
X167527965Y-93179500D01*
X167460926Y-93159815D01*
X167440284Y-93143181D01*
X167024819Y-92727716D01*
X166991334Y-92666393D01*
X166988500Y-92640035D01*
X166988500Y-92163249D01*
X166988499Y-92163247D01*
X166976868Y-92104770D01*
X166976867Y-92104769D01*
X166932552Y-92038447D01*
X166866230Y-91994132D01*
X166866229Y-91994131D01*
X166807752Y-91982500D01*
X166807748Y-91982500D01*
X164868252Y-91982500D01*
X164868247Y-91982500D01*
X164809770Y-91994131D01*
X164809769Y-91994132D01*
X164743447Y-92038447D01*
X164699132Y-92104769D01*
X164699131Y-92104770D01*
X164687500Y-92163247D01*
X164687500Y-92421035D01*
X164667815Y-92488074D01*
X164615011Y-92533829D01*
X164545853Y-92543773D01*
X164482297Y-92514748D01*
X164475819Y-92508716D01*
X164024819Y-92057716D01*
X163991334Y-91996393D01*
X163988500Y-91970035D01*
X163988500Y-91213249D01*
X163988499Y-91213247D01*
X163976868Y-91154770D01*
X163976867Y-91154769D01*
X163932552Y-91088447D01*
X163866230Y-91044132D01*
X163866229Y-91044131D01*
X163807752Y-91032500D01*
X163807748Y-91032500D01*
X161868252Y-91032500D01*
X161868247Y-91032500D01*
X161809770Y-91044131D01*
X161809769Y-91044132D01*
X161743447Y-91088447D01*
X161699132Y-91154769D01*
X161699131Y-91154770D01*
X161687500Y-91213247D01*
X161687500Y-91508500D01*
X161667815Y-91575539D01*
X161615011Y-91621294D01*
X161563500Y-91632500D01*
X161552500Y-91632500D01*
X161485461Y-91612815D01*
X161439706Y-91560011D01*
X161428500Y-91508500D01*
X161428500Y-91178730D01*
X161425646Y-91148300D01*
X161425646Y-91148298D01*
X161385925Y-91034784D01*
X161380793Y-91020118D01*
X161300150Y-90910850D01*
X161190882Y-90830207D01*
X161190880Y-90830206D01*
X161062700Y-90785353D01*
X161032270Y-90782500D01*
X161032266Y-90782500D01*
X160023734Y-90782500D01*
X160023730Y-90782500D01*
X159993300Y-90785353D01*
X159993298Y-90785353D01*
X159865119Y-90830206D01*
X159865117Y-90830207D01*
X159755850Y-90910850D01*
X159675207Y-91020117D01*
X159675206Y-91020119D01*
X159630353Y-91148298D01*
X159630353Y-91148300D01*
X159627500Y-91178730D01*
X159627500Y-91987269D01*
X159630353Y-92017699D01*
X159630353Y-92017701D01*
X159665503Y-92118150D01*
X159675207Y-92145882D01*
X159755850Y-92255150D01*
X159865118Y-92335793D01*
X159890779Y-92344772D01*
X159993299Y-92380646D01*
X160023730Y-92383500D01*
X160023734Y-92383500D01*
X160633382Y-92383500D01*
X160700421Y-92403185D01*
X160717724Y-92416602D01*
X160718121Y-92416970D01*
X160767271Y-92450480D01*
X160815118Y-92485793D01*
X160822654Y-92489776D01*
X160830319Y-92493467D01*
X160830327Y-92493472D01*
X160887176Y-92511007D01*
X160887177Y-92511007D01*
X160943297Y-92530645D01*
X160943299Y-92530645D01*
X160943301Y-92530646D01*
X160943302Y-92530646D01*
X160951698Y-92532234D01*
X160960095Y-92533500D01*
X160960098Y-92533500D01*
X161019559Y-92533500D01*
X161079009Y-92535725D01*
X161079009Y-92535724D01*
X161079010Y-92535725D01*
X161079010Y-92535724D01*
X161088242Y-92534685D01*
X161088335Y-92535513D01*
X161103639Y-92533500D01*
X162770098Y-92533500D01*
X162773268Y-92533500D01*
X162800859Y-92536608D01*
X162803954Y-92537315D01*
X162852561Y-92533672D01*
X162857178Y-92533500D01*
X163175034Y-92533500D01*
X163242073Y-92553185D01*
X163262715Y-92569819D01*
X163413715Y-92720819D01*
X163447200Y-92782142D01*
X163442216Y-92851834D01*
X163400344Y-92907767D01*
X163334880Y-92932184D01*
X163326034Y-92932500D01*
X161868247Y-92932500D01*
X161809770Y-92944131D01*
X161809769Y-92944132D01*
X161743446Y-92988448D01*
X161717425Y-93027392D01*
X161663813Y-93072196D01*
X161614324Y-93082500D01*
X161488480Y-93082500D01*
X161421441Y-93062815D01*
X161387968Y-93026371D01*
X161386311Y-93027595D01*
X161377249Y-93015316D01*
X161300150Y-92910850D01*
X161190882Y-92830207D01*
X161190880Y-92830206D01*
X161062700Y-92785353D01*
X161032270Y-92782500D01*
X161032266Y-92782500D01*
X160023734Y-92782500D01*
X160023730Y-92782500D01*
X159993300Y-92785353D01*
X159993298Y-92785353D01*
X159865119Y-92830206D01*
X159865117Y-92830207D01*
X159755850Y-92910850D01*
X159675207Y-93020117D01*
X159675206Y-93020119D01*
X159630353Y-93148298D01*
X159630353Y-93148300D01*
X159627500Y-93178730D01*
X159627500Y-93987269D01*
X159630353Y-94017699D01*
X159630353Y-94017701D01*
X159666804Y-94121868D01*
X159675207Y-94145882D01*
X159755850Y-94255150D01*
X159865118Y-94335793D01*
X159905928Y-94350073D01*
X159993299Y-94380646D01*
X160023730Y-94383500D01*
X160023734Y-94383500D01*
X160307900Y-94383500D01*
X160374939Y-94403185D01*
X160420694Y-94455989D01*
X160431900Y-94507500D01*
X160431900Y-102728763D01*
X160412215Y-102795802D01*
X160359411Y-102841557D01*
X160290253Y-102851501D01*
X160226697Y-102822476D01*
X160208946Y-102803490D01*
X160113726Y-102677398D01*
X159955815Y-102533444D01*
X159955813Y-102533442D01*
X159774141Y-102420956D01*
X159774135Y-102420953D01*
X159617097Y-102360117D01*
X159574885Y-102343764D01*
X159364841Y-102304500D01*
X159151159Y-102304500D01*
X158941115Y-102343764D01*
X158941112Y-102343764D01*
X158941112Y-102343765D01*
X158741864Y-102420953D01*
X158741858Y-102420956D01*
X158560186Y-102533442D01*
X158560184Y-102533444D01*
X158402273Y-102677398D01*
X158273501Y-102847920D01*
X158273498Y-102847925D01*
X158265718Y-102863550D01*
X158218213Y-102914785D01*
X158150550Y-102932205D01*
X158084210Y-102910277D01*
X158041163Y-102858084D01*
X157999814Y-102763817D01*
X157868156Y-102562300D01*
X157868148Y-102562289D01*
X157705126Y-102385202D01*
X157705116Y-102385193D01*
X157515168Y-102237350D01*
X157515159Y-102237344D01*
X157303468Y-102122784D01*
X157303454Y-102122778D01*
X157075791Y-102044619D01*
X156968000Y-102026633D01*
X156968000Y-102840347D01*
X156948315Y-102907386D01*
X156895511Y-102953141D01*
X156826353Y-102963085D01*
X156810547Y-102959749D01*
X156793598Y-102955000D01*
X156793596Y-102955000D01*
X156680378Y-102955000D01*
X156680376Y-102955000D01*
X156608884Y-102964826D01*
X156539789Y-102954453D01*
X156487270Y-102908371D01*
X156468000Y-102841981D01*
X156468000Y-102026633D01*
X156467999Y-102026633D01*
X156360208Y-102044619D01*
X156132545Y-102122778D01*
X156132531Y-102122784D01*
X155920840Y-102237344D01*
X155920831Y-102237350D01*
X155730883Y-102385193D01*
X155730873Y-102385202D01*
X155567851Y-102562289D01*
X155567847Y-102562295D01*
X155558808Y-102576131D01*
X155505661Y-102621487D01*
X155436429Y-102630910D01*
X155373094Y-102601407D01*
X155335763Y-102542346D01*
X155331000Y-102508308D01*
X155331000Y-102485249D01*
X155330999Y-102485247D01*
X155319368Y-102426770D01*
X155319367Y-102426769D01*
X155275052Y-102360447D01*
X155208730Y-102316132D01*
X155208729Y-102316131D01*
X155150252Y-102304500D01*
X155150248Y-102304500D01*
X155002500Y-102304500D01*
X154935461Y-102284815D01*
X154889706Y-102232011D01*
X154878500Y-102180500D01*
X154878500Y-99932500D01*
X154898185Y-99865461D01*
X154950989Y-99819706D01*
X155002500Y-99808500D01*
X155110270Y-99808500D01*
X155140699Y-99805646D01*
X155140701Y-99805646D01*
X155204790Y-99783219D01*
X155268882Y-99760793D01*
X155378150Y-99680150D01*
X155458793Y-99570882D01*
X155481219Y-99506790D01*
X155503646Y-99442701D01*
X155503646Y-99442699D01*
X155506500Y-99412269D01*
X155506500Y-99183000D01*
X156106001Y-99183000D01*
X156106001Y-99407986D01*
X156116494Y-99510697D01*
X156171641Y-99677119D01*
X156171643Y-99677124D01*
X156263684Y-99826345D01*
X156387654Y-99950315D01*
X156536875Y-100042356D01*
X156536880Y-100042358D01*
X156703302Y-100097505D01*
X156703309Y-100097506D01*
X156806019Y-100107999D01*
X157143499Y-100107999D01*
X157143500Y-100107998D01*
X157143500Y-99183000D01*
X157643500Y-99183000D01*
X157643500Y-100107999D01*
X157980972Y-100107999D01*
X157980986Y-100107998D01*
X158083697Y-100097505D01*
X158250119Y-100042358D01*
X158250124Y-100042356D01*
X158399345Y-99950315D01*
X158523315Y-99826345D01*
X158615356Y-99677124D01*
X158615358Y-99677119D01*
X158670505Y-99510697D01*
X158670506Y-99510690D01*
X158680999Y-99407986D01*
X158681000Y-99407973D01*
X158681000Y-99183000D01*
X157643500Y-99183000D01*
X157143500Y-99183000D01*
X156106001Y-99183000D01*
X155506500Y-99183000D01*
X155506500Y-98683000D01*
X156106000Y-98683000D01*
X157143500Y-98683000D01*
X157143500Y-97758000D01*
X157643500Y-97758000D01*
X157643500Y-98683000D01*
X158680999Y-98683000D01*
X158680999Y-98458028D01*
X158680998Y-98458013D01*
X158670505Y-98355302D01*
X158615358Y-98188880D01*
X158615356Y-98188875D01*
X158523315Y-98039654D01*
X158399345Y-97915684D01*
X158250124Y-97823643D01*
X158250119Y-97823641D01*
X158083697Y-97768494D01*
X158083690Y-97768493D01*
X157980986Y-97758000D01*
X157643500Y-97758000D01*
X157143500Y-97758000D01*
X156806028Y-97758000D01*
X156806012Y-97758001D01*
X156703302Y-97768494D01*
X156536880Y-97823641D01*
X156536875Y-97823643D01*
X156387654Y-97915684D01*
X156263684Y-98039654D01*
X156171643Y-98188875D01*
X156171641Y-98188880D01*
X156116494Y-98355302D01*
X156116493Y-98355309D01*
X156106000Y-98458013D01*
X156106000Y-98683000D01*
X155506500Y-98683000D01*
X155506500Y-98453730D01*
X155503646Y-98423300D01*
X155503646Y-98423298D01*
X155458793Y-98295119D01*
X155458792Y-98295117D01*
X155449512Y-98282543D01*
X155378150Y-98185850D01*
X155268882Y-98105207D01*
X155268880Y-98105206D01*
X155140700Y-98060353D01*
X155110270Y-98057500D01*
X155110266Y-98057500D01*
X153926734Y-98057500D01*
X153926730Y-98057500D01*
X153896300Y-98060353D01*
X153896298Y-98060353D01*
X153768119Y-98105206D01*
X153768117Y-98105207D01*
X153658850Y-98185850D01*
X153578207Y-98295117D01*
X153578206Y-98295119D01*
X153533353Y-98423298D01*
X153533353Y-98423300D01*
X153530500Y-98453730D01*
X153530500Y-98978746D01*
X153519576Y-99029637D01*
X153504304Y-99063568D01*
X153502477Y-99073541D01*
X153496453Y-99095153D01*
X153492860Y-99104627D01*
X153492859Y-99104628D01*
X153485384Y-99166185D01*
X153484821Y-99169886D01*
X153473642Y-99230890D01*
X153473642Y-99230895D01*
X153477387Y-99292802D01*
X153477500Y-99296547D01*
X153477500Y-102180500D01*
X153457815Y-102247539D01*
X153405011Y-102293294D01*
X153353500Y-102304500D01*
X153205747Y-102304500D01*
X153147270Y-102316131D01*
X153147269Y-102316132D01*
X153080947Y-102360447D01*
X153036632Y-102426769D01*
X153036631Y-102426770D01*
X153025000Y-102485247D01*
X153025000Y-104524752D01*
X153036631Y-104583229D01*
X153036632Y-104583230D01*
X153080947Y-104649552D01*
X153147269Y-104693867D01*
X153147270Y-104693868D01*
X153205747Y-104705499D01*
X153205750Y-104705500D01*
X153205752Y-104705500D01*
X155150250Y-104705500D01*
X155150251Y-104705499D01*
X155165068Y-104702552D01*
X155208729Y-104693868D01*
X155208729Y-104693867D01*
X155208731Y-104693867D01*
X155275052Y-104649552D01*
X155319367Y-104583231D01*
X155319367Y-104583229D01*
X155319368Y-104583229D01*
X155330999Y-104524752D01*
X155331000Y-104524750D01*
X155331000Y-104501691D01*
X155350685Y-104434652D01*
X155403489Y-104388897D01*
X155472647Y-104378953D01*
X155536203Y-104407978D01*
X155558809Y-104433871D01*
X155567842Y-104447698D01*
X155567851Y-104447710D01*
X155730873Y-104624797D01*
X155730883Y-104624806D01*
X155920831Y-104772649D01*
X155920840Y-104772655D01*
X156132531Y-104887215D01*
X156132545Y-104887221D01*
X156360207Y-104965379D01*
X156468000Y-104983366D01*
X156468000Y-104169652D01*
X156487685Y-104102613D01*
X156540489Y-104056858D01*
X156609647Y-104046914D01*
X156625447Y-104050248D01*
X156642404Y-104055000D01*
X156642406Y-104055000D01*
X156755622Y-104055000D01*
X156827116Y-104045173D01*
X156896210Y-104055545D01*
X156948729Y-104101627D01*
X156968000Y-104168018D01*
X156968000Y-104983365D01*
X157075792Y-104965379D01*
X157303454Y-104887221D01*
X157303468Y-104887215D01*
X157515159Y-104772655D01*
X157515168Y-104772649D01*
X157705116Y-104624806D01*
X157705126Y-104624797D01*
X157868148Y-104447710D01*
X157868156Y-104447699D01*
X157999811Y-104246187D01*
X158041162Y-104151915D01*
X158086118Y-104098429D01*
X158152854Y-104077738D01*
X158220182Y-104096412D01*
X158265719Y-104146451D01*
X158273499Y-104162075D01*
X158273501Y-104162079D01*
X158402273Y-104332601D01*
X158517038Y-104437222D01*
X158553320Y-104496933D01*
X158557500Y-104528859D01*
X158557500Y-105702481D01*
X158537815Y-105769520D01*
X158521181Y-105790162D01*
X158496162Y-105815181D01*
X158434839Y-105848666D01*
X158408481Y-105851500D01*
X152995519Y-105851500D01*
X152928480Y-105831815D01*
X152907838Y-105815181D01*
X152374819Y-105282161D01*
X152341334Y-105220838D01*
X152338500Y-105194480D01*
X152338500Y-104679500D01*
X152358185Y-104612461D01*
X152410989Y-104566706D01*
X152462500Y-104555500D01*
X152507750Y-104555500D01*
X152507751Y-104555499D01*
X152522568Y-104552552D01*
X152566229Y-104543868D01*
X152566229Y-104543867D01*
X152566231Y-104543867D01*
X152632552Y-104499552D01*
X152676867Y-104433231D01*
X152676867Y-104433229D01*
X152676868Y-104433229D01*
X152687647Y-104379034D01*
X152688500Y-104374748D01*
X152688500Y-102635252D01*
X152688500Y-102635249D01*
X152688499Y-102635247D01*
X152676868Y-102576770D01*
X152676867Y-102576769D01*
X152632552Y-102510447D01*
X152566230Y-102466132D01*
X152566229Y-102466131D01*
X152507752Y-102454500D01*
X152507748Y-102454500D01*
X150768252Y-102454500D01*
X150768247Y-102454500D01*
X150709770Y-102466131D01*
X150709769Y-102466132D01*
X150643447Y-102510447D01*
X150599132Y-102576769D01*
X150599131Y-102576770D01*
X150587500Y-102635247D01*
X150587500Y-104374752D01*
X150599131Y-104433229D01*
X150599132Y-104433230D01*
X150643447Y-104499552D01*
X150709769Y-104543867D01*
X150709770Y-104543868D01*
X150768247Y-104555499D01*
X150768250Y-104555500D01*
X150768252Y-104555500D01*
X150813500Y-104555500D01*
X150880539Y-104575185D01*
X150926294Y-104627989D01*
X150937500Y-104679500D01*
X150937500Y-105512951D01*
X150937387Y-105516696D01*
X150933642Y-105578606D01*
X150943215Y-105630850D01*
X150944821Y-105639612D01*
X150945384Y-105643313D01*
X150952859Y-105704870D01*
X150952860Y-105704874D01*
X150956451Y-105714343D01*
X150962474Y-105735946D01*
X150964304Y-105745930D01*
X150989759Y-105802490D01*
X150991189Y-105805941D01*
X151013182Y-105863930D01*
X151016199Y-105868301D01*
X151018936Y-105872266D01*
X151029961Y-105891813D01*
X151034120Y-105901055D01*
X151034124Y-105901060D01*
X151072371Y-105949878D01*
X151074591Y-105952896D01*
X151109812Y-106003924D01*
X151109816Y-106003928D01*
X151109817Y-106003929D01*
X151156250Y-106045064D01*
X151158941Y-106047598D01*
X151569198Y-106457855D01*
X151951162Y-106839819D01*
X151984647Y-106901142D01*
X151979663Y-106970834D01*
X151937791Y-107026767D01*
X151872327Y-107051184D01*
X151863481Y-107051500D01*
X151701730Y-107051500D01*
X151671300Y-107054353D01*
X151671298Y-107054353D01*
X151543119Y-107099206D01*
X151543117Y-107099207D01*
X151433850Y-107179850D01*
X151353207Y-107289117D01*
X151353206Y-107289119D01*
X151308353Y-107417298D01*
X151308353Y-107417300D01*
X151305500Y-107447730D01*
X151305500Y-108276480D01*
X151285815Y-108343519D01*
X151269181Y-108364161D01*
X150698162Y-108935181D01*
X150636839Y-108968666D01*
X150610481Y-108971500D01*
X150526500Y-108971500D01*
X150459461Y-108951815D01*
X150413706Y-108899011D01*
X150402500Y-108847500D01*
X150402500Y-108802249D01*
X150402499Y-108802247D01*
X150390868Y-108743770D01*
X150390867Y-108743769D01*
X150346552Y-108677447D01*
X150280230Y-108633132D01*
X150280229Y-108633131D01*
X150221752Y-108621500D01*
X150221748Y-108621500D01*
X148482252Y-108621500D01*
X148482247Y-108621500D01*
X148423770Y-108633131D01*
X148423769Y-108633132D01*
X148357447Y-108677447D01*
X148313132Y-108743769D01*
X148313131Y-108743770D01*
X148301500Y-108802247D01*
X148301500Y-110541752D01*
X148313131Y-110600229D01*
X148313132Y-110600230D01*
X148357447Y-110666552D01*
X148423769Y-110710867D01*
X148423770Y-110710868D01*
X148482247Y-110722499D01*
X148482250Y-110722500D01*
X148482252Y-110722500D01*
X150221750Y-110722500D01*
X150221751Y-110722499D01*
X150236568Y-110719552D01*
X150280229Y-110710868D01*
X150280229Y-110710867D01*
X150280231Y-110710867D01*
X150346552Y-110666552D01*
X150390867Y-110600231D01*
X150390867Y-110600229D01*
X150390868Y-110600229D01*
X150402499Y-110541752D01*
X150402500Y-110541750D01*
X150402500Y-110496500D01*
X150422185Y-110429461D01*
X150474989Y-110383706D01*
X150526500Y-110372500D01*
X150928952Y-110372500D01*
X150932697Y-110372613D01*
X150940042Y-110373057D01*
X150994606Y-110376358D01*
X151032314Y-110369447D01*
X151055621Y-110365177D01*
X151059325Y-110364613D01*
X151077170Y-110362446D01*
X151120872Y-110357140D01*
X151130335Y-110353550D01*
X151151961Y-110347522D01*
X151152893Y-110347351D01*
X151161932Y-110345695D01*
X151218512Y-110320229D01*
X151221942Y-110318809D01*
X151279930Y-110296818D01*
X151288266Y-110291062D01*
X151307821Y-110280034D01*
X151317057Y-110275878D01*
X151365896Y-110237613D01*
X151368876Y-110235421D01*
X151419929Y-110200183D01*
X151461065Y-110153748D01*
X151463599Y-110151056D01*
X151825837Y-109788819D01*
X151887161Y-109755334D01*
X151913519Y-109752500D01*
X154810270Y-109752500D01*
X154840699Y-109749646D01*
X154840701Y-109749646D01*
X154904790Y-109727219D01*
X154968882Y-109704793D01*
X155078150Y-109624150D01*
X155158793Y-109514882D01*
X155188008Y-109431391D01*
X155203646Y-109386701D01*
X155203646Y-109386699D01*
X155206500Y-109356269D01*
X155206500Y-107447730D01*
X155203646Y-107417300D01*
X155202036Y-107409927D01*
X155203301Y-107409650D01*
X155200139Y-107347673D01*
X155234870Y-107287046D01*
X155296864Y-107254821D01*
X155320742Y-107252500D01*
X156591258Y-107252500D01*
X156658297Y-107272185D01*
X156704052Y-107324989D01*
X156713996Y-107394147D01*
X156708486Y-107416692D01*
X156708353Y-107417300D01*
X156705500Y-107447730D01*
X156705500Y-109310480D01*
X156685815Y-109377519D01*
X156669181Y-109398161D01*
X153789162Y-112278181D01*
X153727839Y-112311666D01*
X153701481Y-112314500D01*
X152463730Y-112314500D01*
X152433300Y-112317353D01*
X152433298Y-112317353D01*
X152305119Y-112362206D01*
X152305117Y-112362207D01*
X152195850Y-112442850D01*
X152115207Y-112552117D01*
X152115206Y-112552119D01*
X152070353Y-112680298D01*
X152070353Y-112680300D01*
X152067500Y-112710730D01*
X152067500Y-112840500D01*
X152047815Y-112907539D01*
X151995011Y-112953294D01*
X151943500Y-112964500D01*
X151840500Y-112964500D01*
X151773461Y-112944815D01*
X151727706Y-112892011D01*
X151716500Y-112840500D01*
X151716500Y-112710730D01*
X151713646Y-112680300D01*
X151713646Y-112680298D01*
X151678252Y-112579150D01*
X151668793Y-112552118D01*
X151588150Y-112442850D01*
X151478882Y-112362207D01*
X151478880Y-112362206D01*
X151350700Y-112317353D01*
X151320270Y-112314500D01*
X151320266Y-112314500D01*
X149457518Y-112314500D01*
X149390479Y-112294815D01*
X149369837Y-112278181D01*
X146986819Y-109895162D01*
X146953334Y-109833839D01*
X146950500Y-109807481D01*
X146950500Y-108627249D01*
X146950499Y-108627247D01*
X146938868Y-108568770D01*
X146938867Y-108568769D01*
X146894552Y-108502447D01*
X146828230Y-108458132D01*
X146828229Y-108458131D01*
X146769752Y-108446500D01*
X146769748Y-108446500D01*
X145330252Y-108446500D01*
X145330247Y-108446500D01*
X145271770Y-108458131D01*
X145271769Y-108458132D01*
X145205447Y-108502447D01*
X145161132Y-108568769D01*
X145161131Y-108568770D01*
X145149500Y-108627247D01*
X145149500Y-110066752D01*
X139131312Y-110066752D01*
X139150185Y-110002480D01*
X139166814Y-109981842D01*
X139239472Y-109909185D01*
X139327478Y-109763606D01*
X139378086Y-109601196D01*
X139388357Y-109431394D01*
X139357694Y-109264068D01*
X139325480Y-109192492D01*
X139318024Y-109164884D01*
X139317024Y-109165097D01*
X139315673Y-109158741D01*
X139263569Y-108998381D01*
X139257500Y-108960063D01*
X139257500Y-107548618D01*
X139277185Y-107481579D01*
X139293814Y-107460942D01*
X144949607Y-101805148D01*
X145010928Y-101771665D01*
X145080620Y-101776649D01*
X145136553Y-101818521D01*
X145160606Y-101879866D01*
X145164326Y-101915256D01*
X145164327Y-101915259D01*
X145222818Y-102095277D01*
X145222821Y-102095284D01*
X145317467Y-102259216D01*
X145408616Y-102360447D01*
X145444129Y-102399888D01*
X145597265Y-102511148D01*
X145597270Y-102511151D01*
X145770192Y-102588142D01*
X145770197Y-102588144D01*
X145955354Y-102627500D01*
X145955355Y-102627500D01*
X146144644Y-102627500D01*
X146144646Y-102627500D01*
X146329803Y-102588144D01*
X146502730Y-102511151D01*
X146655871Y-102399888D01*
X146782533Y-102259216D01*
X146877179Y-102095284D01*
X146935674Y-101915256D01*
X146955460Y-101727000D01*
X146950504Y-101679844D01*
X148002000Y-101679844D01*
X148008401Y-101739372D01*
X148008403Y-101739379D01*
X148058645Y-101874086D01*
X148058649Y-101874093D01*
X148144809Y-101989187D01*
X148144812Y-101989190D01*
X148259906Y-102075350D01*
X148259913Y-102075354D01*
X148394620Y-102125596D01*
X148394627Y-102125598D01*
X148454155Y-102131999D01*
X148454172Y-102132000D01*
X149102000Y-102132000D01*
X149102000Y-101394301D01*
X149121685Y-101327262D01*
X149174489Y-101281507D01*
X149243647Y-101271563D01*
X149316237Y-101282000D01*
X149316238Y-101282000D01*
X149387762Y-101282000D01*
X149387763Y-101282000D01*
X149460353Y-101271563D01*
X149529512Y-101281507D01*
X149582315Y-101327262D01*
X149602000Y-101394301D01*
X149602000Y-102132000D01*
X150249828Y-102132000D01*
X150249844Y-102131999D01*
X150309372Y-102125598D01*
X150309379Y-102125596D01*
X150444086Y-102075354D01*
X150444093Y-102075350D01*
X150559187Y-101989190D01*
X150559190Y-101989187D01*
X150645350Y-101874093D01*
X150645354Y-101874086D01*
X150695596Y-101739379D01*
X150695598Y-101739372D01*
X150701999Y-101679844D01*
X150702000Y-101679827D01*
X150702000Y-101032000D01*
X149965347Y-101032000D01*
X149898308Y-101012315D01*
X149852553Y-100959511D01*
X149842609Y-100890353D01*
X149846369Y-100873067D01*
X149852000Y-100853888D01*
X149852000Y-100710111D01*
X149846369Y-100690933D01*
X149846370Y-100621064D01*
X149884145Y-100562286D01*
X149947701Y-100533262D01*
X149965347Y-100532000D01*
X150702000Y-100532000D01*
X150702000Y-99884172D01*
X150701999Y-99884155D01*
X150695598Y-99824627D01*
X150695596Y-99824620D01*
X150645354Y-99689913D01*
X150645350Y-99689906D01*
X150559190Y-99574812D01*
X150559187Y-99574809D01*
X150444093Y-99488649D01*
X150444086Y-99488645D01*
X150309379Y-99438403D01*
X150309372Y-99438401D01*
X150249844Y-99432000D01*
X149602000Y-99432000D01*
X149602000Y-100169698D01*
X149582315Y-100236737D01*
X149529511Y-100282492D01*
X149460355Y-100292436D01*
X149387766Y-100282000D01*
X149387763Y-100282000D01*
X149316237Y-100282000D01*
X149316233Y-100282000D01*
X149243645Y-100292436D01*
X149174487Y-100282492D01*
X149121684Y-100236736D01*
X149102000Y-100169698D01*
X149102000Y-99432000D01*
X148454155Y-99432000D01*
X148394627Y-99438401D01*
X148394620Y-99438403D01*
X148259913Y-99488645D01*
X148259906Y-99488649D01*
X148144812Y-99574809D01*
X148144809Y-99574812D01*
X148058649Y-99689906D01*
X148058645Y-99689913D01*
X148008403Y-99824620D01*
X148008401Y-99824627D01*
X148002000Y-99884155D01*
X148002000Y-100532000D01*
X148738653Y-100532000D01*
X148805692Y-100551685D01*
X148851447Y-100604489D01*
X148861391Y-100673647D01*
X148857631Y-100690933D01*
X148852000Y-100710111D01*
X148852000Y-100853888D01*
X148857631Y-100873067D01*
X148857630Y-100942936D01*
X148819855Y-101001714D01*
X148756299Y-101030738D01*
X148738653Y-101032000D01*
X148002000Y-101032000D01*
X148002000Y-101679844D01*
X146950504Y-101679844D01*
X146935674Y-101538744D01*
X146877179Y-101358716D01*
X146782533Y-101194784D01*
X146655871Y-101054112D01*
X146655870Y-101054111D01*
X146502734Y-100942851D01*
X146502729Y-100942848D01*
X146329807Y-100865857D01*
X146329802Y-100865855D01*
X146189576Y-100836050D01*
X146128094Y-100802858D01*
X146094318Y-100741695D01*
X146098970Y-100671980D01*
X146127674Y-100627082D01*
X148100937Y-98653819D01*
X148162261Y-98620334D01*
X148188619Y-98617500D01*
X148326372Y-98617500D01*
X148393411Y-98637185D01*
X148426141Y-98667865D01*
X148441850Y-98689150D01*
X148551118Y-98769793D01*
X148593845Y-98784744D01*
X148679299Y-98814646D01*
X148709730Y-98817500D01*
X148709734Y-98817500D01*
X149518270Y-98817500D01*
X149548699Y-98814646D01*
X149548701Y-98814646D01*
X149612790Y-98792219D01*
X149676882Y-98769793D01*
X149786150Y-98689150D01*
X149866793Y-98579882D01*
X149889219Y-98515790D01*
X149911646Y-98451701D01*
X149911646Y-98451699D01*
X149914500Y-98421269D01*
X149914500Y-97412730D01*
X149911646Y-97382300D01*
X149911646Y-97382298D01*
X149872184Y-97269524D01*
X149866793Y-97254118D01*
X149786150Y-97144850D01*
X149676882Y-97064207D01*
X149676880Y-97064206D01*
X149548700Y-97019353D01*
X149518270Y-97016500D01*
X149518266Y-97016500D01*
X148709734Y-97016500D01*
X148709730Y-97016500D01*
X148679300Y-97019353D01*
X148679298Y-97019353D01*
X148551119Y-97064206D01*
X148551117Y-97064207D01*
X148441850Y-97144850D01*
X148426142Y-97166134D01*
X148370494Y-97208385D01*
X148326372Y-97216500D01*
X147870136Y-97216500D01*
X147866392Y-97216387D01*
X147804497Y-97212643D01*
X147804490Y-97212643D01*
X147743502Y-97223819D01*
X147739801Y-97224382D01*
X147678225Y-97231860D01*
X147668742Y-97235456D01*
X147647138Y-97241478D01*
X147645635Y-97241754D01*
X147637165Y-97243306D01*
X147637163Y-97243307D01*
X147580627Y-97268752D01*
X147577169Y-97270184D01*
X147519169Y-97292182D01*
X147510824Y-97297942D01*
X147491283Y-97308964D01*
X147482044Y-97313122D01*
X147482039Y-97313125D01*
X147433221Y-97351370D01*
X147430206Y-97353589D01*
X147379172Y-97388816D01*
X147379165Y-97388822D01*
X147338042Y-97435240D01*
X147335475Y-97437966D01*
X138077966Y-106695475D01*
X138075240Y-106698042D01*
X138028818Y-106739168D01*
X137993586Y-106790209D01*
X137991368Y-106793224D01*
X137953124Y-106842039D01*
X137953119Y-106842048D01*
X137948960Y-106851288D01*
X137937942Y-106870823D01*
X137932187Y-106879161D01*
X137932183Y-106879167D01*
X137932182Y-106879170D01*
X137932180Y-106879174D01*
X137932179Y-106879177D01*
X137910189Y-106937155D01*
X137908757Y-106940613D01*
X137883305Y-106997168D01*
X137881477Y-107007142D01*
X137875453Y-107028753D01*
X137871860Y-107038227D01*
X137871859Y-107038228D01*
X137864384Y-107099785D01*
X137863821Y-107103486D01*
X137852642Y-107164490D01*
X137852642Y-107164495D01*
X137856387Y-107226402D01*
X137856500Y-107230147D01*
X137856500Y-108590560D01*
X137836815Y-108657599D01*
X137824650Y-108673532D01*
X137697466Y-108814784D01*
X137602821Y-108978715D01*
X137602818Y-108978722D01*
X137544327Y-109158740D01*
X137544326Y-109158744D01*
X137535870Y-109239199D01*
X137526177Y-109331429D01*
X137524540Y-109347000D01*
X136890500Y-109347000D01*
X136890500Y-101727000D01*
X137524540Y-101727000D01*
X137544326Y-101915256D01*
X137544327Y-101915259D01*
X137602818Y-102095277D01*
X137602821Y-102095284D01*
X137697467Y-102259216D01*
X137788616Y-102360447D01*
X137824129Y-102399888D01*
X137977265Y-102511148D01*
X137977270Y-102511151D01*
X138150192Y-102588142D01*
X138150197Y-102588144D01*
X138335354Y-102627500D01*
X138335355Y-102627500D01*
X138524644Y-102627500D01*
X138524646Y-102627500D01*
X138709803Y-102588144D01*
X138882730Y-102511151D01*
X139035871Y-102399888D01*
X139162533Y-102259216D01*
X139257179Y-102095284D01*
X139315674Y-101915256D01*
X139335460Y-101727000D01*
X139315674Y-101538744D01*
X139257179Y-101358716D01*
X139162533Y-101194784D01*
X139035871Y-101054112D01*
X139035870Y-101054111D01*
X138882734Y-100942851D01*
X138882729Y-100942848D01*
X138709807Y-100865857D01*
X138709802Y-100865855D01*
X138559056Y-100833814D01*
X138524646Y-100826500D01*
X138335354Y-100826500D01*
X138302897Y-100833398D01*
X138150197Y-100865855D01*
X138150192Y-100865857D01*
X137977270Y-100942848D01*
X137977265Y-100942851D01*
X137824129Y-101054111D01*
X137697466Y-101194785D01*
X137602821Y-101358715D01*
X137602818Y-101358722D01*
X137552875Y-101512432D01*
X137544326Y-101538744D01*
X137524540Y-101727000D01*
X136890500Y-101727000D01*
X136890500Y-96647000D01*
X137224859Y-96647000D01*
X137245378Y-96868439D01*
X137306240Y-97082350D01*
X137405369Y-97281428D01*
X137421137Y-97302308D01*
X137421138Y-97302308D01*
X137929447Y-96794000D01*
X137990770Y-96760515D01*
X138060462Y-96765499D01*
X138116395Y-96807371D01*
X138120933Y-96813854D01*
X138168936Y-96887327D01*
X138215259Y-96923381D01*
X138268600Y-96964898D01*
X138309413Y-97021609D01*
X138313088Y-97091382D01*
X138280119Y-97150433D01*
X137776672Y-97653879D01*
X137776672Y-97653880D01*
X137892821Y-97725797D01*
X137892822Y-97725798D01*
X138100195Y-97806134D01*
X138318807Y-97847000D01*
X138541193Y-97847000D01*
X138759809Y-97806133D01*
X138967168Y-97725801D01*
X138967181Y-97725795D01*
X139083326Y-97653879D01*
X138576406Y-97146958D01*
X138542921Y-97085635D01*
X138547905Y-97015943D01*
X138589777Y-96960010D01*
X138605062Y-96950227D01*
X138647947Y-96927019D01*
X138727060Y-96841079D01*
X138730555Y-96833110D01*
X138775510Y-96779624D01*
X138842246Y-96758934D01*
X138909574Y-96777608D01*
X138931792Y-96795239D01*
X139438861Y-97302308D01*
X139454631Y-97281425D01*
X139454633Y-97281422D01*
X139553759Y-97082350D01*
X139614621Y-96868439D01*
X139635141Y-96647000D01*
X139635141Y-96646999D01*
X139614621Y-96425560D01*
X139553759Y-96211649D01*
X139454635Y-96012580D01*
X139454630Y-96012572D01*
X139438860Y-95991690D01*
X138930552Y-96499999D01*
X138869229Y-96533484D01*
X138799537Y-96528500D01*
X138743604Y-96486628D01*
X138739062Y-96480139D01*
X138691065Y-96406674D01*
X138691062Y-96406671D01*
X138591399Y-96329100D01*
X138550586Y-96272390D01*
X138546911Y-96202617D01*
X138579880Y-96143566D01*
X139083327Y-95640119D01*
X138967178Y-95568202D01*
X138967177Y-95568201D01*
X138759804Y-95487865D01*
X138541193Y-95447000D01*
X138318807Y-95447000D01*
X138100195Y-95487865D01*
X137892824Y-95568200D01*
X137892823Y-95568201D01*
X137776671Y-95640119D01*
X138283594Y-96147041D01*
X138317079Y-96208364D01*
X138312095Y-96278055D01*
X138270224Y-96333989D01*
X138254931Y-96343776D01*
X138212056Y-96366979D01*
X138212052Y-96366981D01*
X138132939Y-96452922D01*
X138129441Y-96460896D01*
X138084481Y-96514379D01*
X138017744Y-96535065D01*
X137950417Y-96516386D01*
X137928207Y-96498760D01*
X137421138Y-95991691D01*
X137421137Y-95991691D01*
X137405368Y-96012574D01*
X137306240Y-96211649D01*
X137245378Y-96425560D01*
X137224859Y-96646999D01*
X137224859Y-96647000D01*
X136890500Y-96647000D01*
X136890500Y-91567000D01*
X137524540Y-91567000D01*
X137544326Y-91755256D01*
X137544327Y-91755259D01*
X137602818Y-91935277D01*
X137602821Y-91935284D01*
X137697467Y-92099216D01*
X137800150Y-92213257D01*
X137824129Y-92239888D01*
X137977265Y-92351148D01*
X137977270Y-92351151D01*
X138150191Y-92428142D01*
X138150193Y-92428142D01*
X138150197Y-92428144D01*
X138305130Y-92461075D01*
X138366607Y-92494266D01*
X138367025Y-92494682D01*
X142998399Y-97126056D01*
X143000935Y-97128750D01*
X143034054Y-97166134D01*
X143042070Y-97175182D01*
X143093106Y-97210410D01*
X143096122Y-97212630D01*
X143110837Y-97224158D01*
X143144943Y-97250878D01*
X143151845Y-97253984D01*
X143154182Y-97255036D01*
X143173733Y-97266063D01*
X143182070Y-97271818D01*
X143240065Y-97293812D01*
X143243474Y-97295223D01*
X143283250Y-97313125D01*
X143300064Y-97320693D01*
X143300065Y-97320693D01*
X143300069Y-97320695D01*
X143310034Y-97322521D01*
X143331656Y-97328548D01*
X143334777Y-97329731D01*
X143341128Y-97332140D01*
X143386251Y-97337618D01*
X143402674Y-97339613D01*
X143406371Y-97340175D01*
X143467394Y-97351358D01*
X143522752Y-97348009D01*
X143529303Y-97347613D01*
X143533048Y-97347500D01*
X145441844Y-97347500D01*
X145508883Y-97367185D01*
X145514729Y-97371182D01*
X145597265Y-97431148D01*
X145597270Y-97431151D01*
X145770192Y-97508142D01*
X145770197Y-97508144D01*
X145955354Y-97547500D01*
X145955355Y-97547500D01*
X146144644Y-97547500D01*
X146144646Y-97547500D01*
X146329803Y-97508144D01*
X146502730Y-97431151D01*
X146655871Y-97319888D01*
X146782533Y-97179216D01*
X146877179Y-97015284D01*
X146935674Y-96835256D01*
X146940864Y-96785869D01*
X146967447Y-96721258D01*
X146976494Y-96711161D01*
X148372275Y-95315380D01*
X148433596Y-95281897D01*
X148503288Y-95286881D01*
X148525230Y-95297635D01*
X148535049Y-95303715D01*
X148610359Y-95350346D01*
X148610363Y-95350348D01*
X148800544Y-95424024D01*
X149001024Y-95461500D01*
X149001026Y-95461500D01*
X149204974Y-95461500D01*
X149204976Y-95461500D01*
X149405456Y-95424024D01*
X149595637Y-95350348D01*
X149769041Y-95242981D01*
X149919764Y-95105579D01*
X150042673Y-94942821D01*
X150133582Y-94760250D01*
X150189397Y-94564083D01*
X150208215Y-94361000D01*
X150207202Y-94350073D01*
X150189397Y-94157917D01*
X150179140Y-94121867D01*
X150133582Y-93961750D01*
X150108717Y-93911815D01*
X150066879Y-93827792D01*
X150042673Y-93779179D01*
X149919764Y-93616421D01*
X149919762Y-93616418D01*
X149769041Y-93479019D01*
X149769039Y-93479017D01*
X149595642Y-93371655D01*
X149595635Y-93371651D01*
X149453135Y-93316447D01*
X149405456Y-93297976D01*
X149204976Y-93260500D01*
X149001024Y-93260500D01*
X148800544Y-93297976D01*
X148800541Y-93297976D01*
X148800541Y-93297977D01*
X148610364Y-93371651D01*
X148610357Y-93371655D01*
X148436960Y-93479017D01*
X148436958Y-93479019D01*
X148286238Y-93616417D01*
X148280572Y-93623921D01*
X148224460Y-93665553D01*
X148196572Y-93672283D01*
X148167131Y-93675858D01*
X148167125Y-93675860D01*
X148157642Y-93679456D01*
X148136038Y-93685478D01*
X148134535Y-93685754D01*
X148126065Y-93687306D01*
X148069522Y-93712754D01*
X148066063Y-93714187D01*
X148029867Y-93727915D01*
X148008070Y-93736182D01*
X148008068Y-93736183D01*
X148008066Y-93736184D01*
X148008061Y-93736186D01*
X147999722Y-93741942D01*
X147980190Y-93752959D01*
X147970946Y-93757120D01*
X147970944Y-93757121D01*
X147970943Y-93757122D01*
X147942790Y-93779178D01*
X147922124Y-93795368D01*
X147919109Y-93797586D01*
X147868068Y-93832818D01*
X147826942Y-93879240D01*
X147824375Y-93881966D01*
X145987026Y-95719316D01*
X145925703Y-95752801D01*
X145925126Y-95752925D01*
X145770197Y-95785855D01*
X145770192Y-95785857D01*
X145597270Y-95862848D01*
X145597265Y-95862851D01*
X145514729Y-95922818D01*
X145448923Y-95946298D01*
X145441844Y-95946500D01*
X143851519Y-95946500D01*
X143784480Y-95926815D01*
X143763838Y-95910181D01*
X139420657Y-91567000D01*
X144844859Y-91567000D01*
X144865378Y-91788439D01*
X144926240Y-92002350D01*
X145025369Y-92201428D01*
X145041137Y-92222308D01*
X145041138Y-92222308D01*
X145549447Y-91713999D01*
X145610770Y-91680514D01*
X145680461Y-91685498D01*
X145736395Y-91727369D01*
X145740937Y-91733859D01*
X145788934Y-91807325D01*
X145788935Y-91807326D01*
X145788936Y-91807327D01*
X145811837Y-91825151D01*
X145888600Y-91884898D01*
X145929413Y-91941609D01*
X145933088Y-92011382D01*
X145900119Y-92070433D01*
X145396672Y-92573879D01*
X145396672Y-92573880D01*
X145512821Y-92645797D01*
X145512822Y-92645798D01*
X145720195Y-92726134D01*
X145938807Y-92767000D01*
X146161193Y-92767000D01*
X146379809Y-92726133D01*
X146587168Y-92645801D01*
X146587181Y-92645795D01*
X146703326Y-92573879D01*
X146196406Y-92066958D01*
X146162921Y-92005635D01*
X146167905Y-91935943D01*
X146209777Y-91880010D01*
X146225062Y-91870227D01*
X146267947Y-91847019D01*
X146347060Y-91761079D01*
X146350555Y-91753110D01*
X146395508Y-91699625D01*
X146462244Y-91678933D01*
X146529572Y-91697606D01*
X146551792Y-91715238D01*
X147058860Y-92222308D01*
X147074631Y-92201425D01*
X147074633Y-92201422D01*
X147173759Y-92002350D01*
X147234621Y-91788439D01*
X147255140Y-91567000D01*
X147255140Y-91566999D01*
X147234621Y-91345560D01*
X147173759Y-91131649D01*
X147074635Y-90932580D01*
X147074630Y-90932572D01*
X147058860Y-90911690D01*
X146550552Y-91419999D01*
X146489229Y-91453484D01*
X146419537Y-91448500D01*
X146363604Y-91406628D01*
X146359062Y-91400139D01*
X146311065Y-91326674D01*
X146311062Y-91326671D01*
X146211398Y-91249099D01*
X146170585Y-91192389D01*
X146166910Y-91122616D01*
X146199879Y-91063565D01*
X146703327Y-90560119D01*
X146587178Y-90488202D01*
X146587177Y-90488201D01*
X146379804Y-90407865D01*
X146161193Y-90367000D01*
X145938807Y-90367000D01*
X145720195Y-90407865D01*
X145512824Y-90488200D01*
X145512823Y-90488201D01*
X145396671Y-90560119D01*
X145903593Y-91067041D01*
X145937078Y-91128364D01*
X145932094Y-91198056D01*
X145890222Y-91253989D01*
X145874931Y-91263776D01*
X145832054Y-91286980D01*
X145832052Y-91286981D01*
X145752939Y-91372922D01*
X145749443Y-91380892D01*
X145704485Y-91434376D01*
X145637748Y-91455064D01*
X145570421Y-91436387D01*
X145548208Y-91418759D01*
X145041138Y-90911690D01*
X145041137Y-90911691D01*
X145025368Y-90932574D01*
X144926240Y-91131649D01*
X144865378Y-91345560D01*
X144844859Y-91566999D01*
X144844859Y-91567000D01*
X139420657Y-91567000D01*
X139356503Y-91502846D01*
X139323018Y-91441523D01*
X139320865Y-91428143D01*
X139315674Y-91378744D01*
X139313782Y-91372922D01*
X139257181Y-91198722D01*
X139257180Y-91198721D01*
X139257179Y-91198716D01*
X139162533Y-91034784D01*
X139035871Y-90894112D01*
X139026885Y-90887583D01*
X138882734Y-90782851D01*
X138882729Y-90782848D01*
X138709807Y-90705857D01*
X138709802Y-90705855D01*
X138564000Y-90674865D01*
X138524646Y-90666500D01*
X138335354Y-90666500D01*
X138302897Y-90673398D01*
X138150197Y-90705855D01*
X138150192Y-90705857D01*
X137977270Y-90782848D01*
X137977265Y-90782851D01*
X137824129Y-90894111D01*
X137697466Y-91034785D01*
X137602821Y-91198715D01*
X137602818Y-91198722D01*
X137544387Y-91378556D01*
X137544326Y-91378744D01*
X137527620Y-91537698D01*
X137525275Y-91560011D01*
X137524540Y-91567000D01*
X136890500Y-91567000D01*
X136890500Y-87013110D01*
X136910185Y-86946071D01*
X136962989Y-86900316D01*
X137032147Y-86890372D01*
X137095703Y-86919397D01*
X137109009Y-86932835D01*
X137231914Y-87077532D01*
X138307413Y-86002032D01*
X138368736Y-85968547D01*
X138438427Y-85973531D01*
X138489381Y-86009179D01*
X138565130Y-86097870D01*
X138617042Y-86142207D01*
X138653816Y-86173615D01*
X138692009Y-86232122D01*
X138692507Y-86301990D01*
X138660965Y-86355586D01*
X137582625Y-87433926D01*
X137582625Y-87433928D01*
X137592900Y-87443660D01*
X137873460Y-87656938D01*
X137873464Y-87656941D01*
X138175445Y-87838635D01*
X138495273Y-87986603D01*
X138829256Y-88099136D01*
X139173437Y-88174896D01*
X139523788Y-88212999D01*
X139523795Y-88213000D01*
X139876205Y-88213000D01*
X139876211Y-88212999D01*
X140226562Y-88174896D01*
X140570743Y-88099136D01*
X140904726Y-87986603D01*
X141224554Y-87838635D01*
X141526535Y-87656941D01*
X141526539Y-87656938D01*
X141807093Y-87443665D01*
X141807105Y-87443654D01*
X141817373Y-87433927D01*
X141817373Y-87433926D01*
X140739033Y-86355586D01*
X140705548Y-86294263D01*
X140710532Y-86224571D01*
X140746180Y-86173617D01*
X140834870Y-86097870D01*
X140910617Y-86009180D01*
X140969121Y-85970990D01*
X141038989Y-85970490D01*
X141092586Y-86002033D01*
X142168084Y-87077532D01*
X142168085Y-87077531D01*
X142291102Y-86932704D01*
X142488875Y-86641011D01*
X142570523Y-86487006D01*
X144700700Y-86487006D01*
X144719864Y-86718297D01*
X144719866Y-86718308D01*
X144776842Y-86943300D01*
X144870075Y-87155848D01*
X144997016Y-87350147D01*
X144997019Y-87350151D01*
X144997021Y-87350153D01*
X145154216Y-87520913D01*
X145154219Y-87520915D01*
X145154222Y-87520918D01*
X145337365Y-87663464D01*
X145337371Y-87663468D01*
X145337374Y-87663470D01*
X145500320Y-87751652D01*
X145528957Y-87767150D01*
X145541497Y-87773936D01*
X145591809Y-87791208D01*
X145761015Y-87849297D01*
X145761017Y-87849297D01*
X145761019Y-87849298D01*
X145989951Y-87887500D01*
X145989952Y-87887500D01*
X146222048Y-87887500D01*
X146222049Y-87887500D01*
X146450981Y-87849298D01*
X146452572Y-87848752D01*
X146502673Y-87831552D01*
X146670503Y-87773936D01*
X146794648Y-87706752D01*
X148205500Y-87706752D01*
X148217131Y-87765229D01*
X148217132Y-87765230D01*
X148261447Y-87831552D01*
X148327769Y-87875867D01*
X148327770Y-87875868D01*
X148386247Y-87887499D01*
X148386250Y-87887500D01*
X148386252Y-87887500D01*
X150825750Y-87887500D01*
X150825751Y-87887499D01*
X150840568Y-87884552D01*
X150884229Y-87875868D01*
X150884229Y-87875867D01*
X150884231Y-87875867D01*
X150950552Y-87831552D01*
X150994867Y-87765231D01*
X150994867Y-87765229D01*
X150994868Y-87765229D01*
X151006499Y-87706752D01*
X151006500Y-87706750D01*
X151006500Y-85267249D01*
X151006499Y-85267247D01*
X150994868Y-85208770D01*
X150994867Y-85208769D01*
X150950552Y-85142447D01*
X150884230Y-85098132D01*
X150884229Y-85098131D01*
X150825752Y-85086500D01*
X150825748Y-85086500D01*
X148386252Y-85086500D01*
X148386247Y-85086500D01*
X148327770Y-85098131D01*
X148327769Y-85098132D01*
X148261447Y-85142447D01*
X148217132Y-85208769D01*
X148217131Y-85208770D01*
X148205500Y-85267247D01*
X148205500Y-87706752D01*
X146794648Y-87706752D01*
X146874626Y-87663470D01*
X146881806Y-87657882D01*
X147000560Y-87565452D01*
X147057784Y-87520913D01*
X147214979Y-87350153D01*
X147341924Y-87155849D01*
X147435157Y-86943300D01*
X147492134Y-86718305D01*
X147493874Y-86697310D01*
X147511300Y-86487006D01*
X147511300Y-86486993D01*
X147492135Y-86255702D01*
X147492133Y-86255691D01*
X147435157Y-86030699D01*
X147341924Y-85818151D01*
X147214983Y-85623852D01*
X147214980Y-85623849D01*
X147214979Y-85623847D01*
X147057784Y-85453087D01*
X147057779Y-85453083D01*
X147057777Y-85453081D01*
X146874634Y-85310535D01*
X146874628Y-85310531D01*
X146670504Y-85200064D01*
X146670495Y-85200061D01*
X146450984Y-85124702D01*
X146279282Y-85096050D01*
X146222049Y-85086500D01*
X145989951Y-85086500D01*
X145944164Y-85094140D01*
X145761015Y-85124702D01*
X145541504Y-85200061D01*
X145541495Y-85200064D01*
X145337371Y-85310531D01*
X145337365Y-85310535D01*
X145154222Y-85453081D01*
X145154219Y-85453084D01*
X144997016Y-85623852D01*
X144870075Y-85818151D01*
X144776842Y-86030699D01*
X144719866Y-86255691D01*
X144719864Y-86255702D01*
X144700700Y-86486993D01*
X144700700Y-86487006D01*
X142570523Y-86487006D01*
X142653947Y-86329652D01*
X142653956Y-86329634D01*
X142784397Y-86002250D01*
X142784399Y-86002243D01*
X142878674Y-85662693D01*
X142878680Y-85662667D01*
X142935691Y-85314917D01*
X142935693Y-85314900D01*
X142954773Y-84963002D01*
X142954773Y-84962997D01*
X142935693Y-84611099D01*
X142935691Y-84611082D01*
X142878680Y-84263332D01*
X142878674Y-84263306D01*
X142784399Y-83923756D01*
X142784397Y-83923749D01*
X142653956Y-83596365D01*
X142653947Y-83596347D01*
X142488875Y-83284988D01*
X142291099Y-82993291D01*
X142168085Y-82848467D01*
X142168084Y-82848466D01*
X141092586Y-83923965D01*
X141031263Y-83957450D01*
X140961571Y-83952466D01*
X140910615Y-83916816D01*
X140884070Y-83885736D01*
X140834870Y-83828130D01*
X140746179Y-83752381D01*
X140707989Y-83693878D01*
X140707489Y-83624010D01*
X140739032Y-83570413D01*
X141817374Y-82492072D01*
X141807099Y-82482340D01*
X141807087Y-82482330D01*
X141667496Y-82376215D01*
X141626039Y-82319974D01*
X141621570Y-82250247D01*
X141655507Y-82189173D01*
X141717076Y-82156142D01*
X141742538Y-82153500D01*
X185285070Y-82153500D01*
X185352109Y-82173185D01*
G37*
G04 #@! TD.AperFunction*
G04 #@! TA.AperFunction,Conductor*
G36*
X137724501Y-82173185D02*
G01*
X137770256Y-82225989D01*
X137780200Y-82295147D01*
X137751175Y-82358703D01*
X137732504Y-82376215D01*
X137592906Y-82482334D01*
X137582625Y-82492071D01*
X137582625Y-82492073D01*
X138660966Y-83570413D01*
X138694451Y-83631736D01*
X138689467Y-83701428D01*
X138653817Y-83752384D01*
X138565130Y-83828130D01*
X138489384Y-83916817D01*
X138430877Y-83955010D01*
X138361009Y-83955508D01*
X138307413Y-83923966D01*
X137231914Y-82848466D01*
X137231913Y-82848466D01*
X137109009Y-82993164D01*
X137050606Y-83031516D01*
X136980740Y-83032205D01*
X136921592Y-82995012D01*
X136891942Y-82931745D01*
X136890500Y-82912889D01*
X136890500Y-82277500D01*
X136910185Y-82210461D01*
X136962989Y-82164706D01*
X137014500Y-82153500D01*
X137657462Y-82153500D01*
X137724501Y-82173185D01*
G37*
G04 #@! TD.AperFunction*
M02*
