G04 #@! TF.GenerationSoftware,KiCad,Pcbnew,7.0.7*
G04 #@! TF.CreationDate,2023-10-16T19:16:16+02:00*
G04 #@! TF.ProjectId,WaterValve,57617465-7256-4616-9c76-652e6b696361,Rev 6.1*
G04 #@! TF.SameCoordinates,Original*
G04 #@! TF.FileFunction,Legend,Top*
G04 #@! TF.FilePolarity,Positive*
%FSLAX46Y46*%
G04 Gerber Fmt 4.6, Leading zero omitted, Abs format (unit mm)*
G04 Created by KiCad (PCBNEW 7.0.7) date 2023-10-16 19:16:16*
%MOMM*%
%LPD*%
G01*
G04 APERTURE LIST*
%ADD10C,0.150000*%
%ADD11C,0.250000*%
%ADD12C,0.120000*%
%ADD13C,0.127000*%
G04 APERTURE END LIST*
D10*
X172292189Y-97793819D02*
X172625522Y-98793819D01*
X172625522Y-98793819D02*
X172958855Y-97793819D01*
X173720760Y-98793819D02*
X173720760Y-98270009D01*
X173720760Y-98270009D02*
X173673141Y-98174771D01*
X173673141Y-98174771D02*
X173577903Y-98127152D01*
X173577903Y-98127152D02*
X173387427Y-98127152D01*
X173387427Y-98127152D02*
X173292189Y-98174771D01*
X173720760Y-98746200D02*
X173625522Y-98793819D01*
X173625522Y-98793819D02*
X173387427Y-98793819D01*
X173387427Y-98793819D02*
X173292189Y-98746200D01*
X173292189Y-98746200D02*
X173244570Y-98650961D01*
X173244570Y-98650961D02*
X173244570Y-98555723D01*
X173244570Y-98555723D02*
X173292189Y-98460485D01*
X173292189Y-98460485D02*
X173387427Y-98412866D01*
X173387427Y-98412866D02*
X173625522Y-98412866D01*
X173625522Y-98412866D02*
X173720760Y-98365247D01*
X174339808Y-98793819D02*
X174244570Y-98746200D01*
X174244570Y-98746200D02*
X174196951Y-98650961D01*
X174196951Y-98650961D02*
X174196951Y-97793819D01*
X174625523Y-98127152D02*
X174863618Y-98793819D01*
X174863618Y-98793819D02*
X175101713Y-98127152D01*
X175863618Y-98746200D02*
X175768380Y-98793819D01*
X175768380Y-98793819D02*
X175577904Y-98793819D01*
X175577904Y-98793819D02*
X175482666Y-98746200D01*
X175482666Y-98746200D02*
X175435047Y-98650961D01*
X175435047Y-98650961D02*
X175435047Y-98270009D01*
X175435047Y-98270009D02*
X175482666Y-98174771D01*
X175482666Y-98174771D02*
X175577904Y-98127152D01*
X175577904Y-98127152D02*
X175768380Y-98127152D01*
X175768380Y-98127152D02*
X175863618Y-98174771D01*
X175863618Y-98174771D02*
X175911237Y-98270009D01*
X175911237Y-98270009D02*
X175911237Y-98365247D01*
X175911237Y-98365247D02*
X175435047Y-98460485D01*
X177530285Y-98746200D02*
X177435047Y-98793819D01*
X177435047Y-98793819D02*
X177244571Y-98793819D01*
X177244571Y-98793819D02*
X177149333Y-98746200D01*
X177149333Y-98746200D02*
X177101714Y-98698580D01*
X177101714Y-98698580D02*
X177054095Y-98603342D01*
X177054095Y-98603342D02*
X177054095Y-98317628D01*
X177054095Y-98317628D02*
X177101714Y-98222390D01*
X177101714Y-98222390D02*
X177149333Y-98174771D01*
X177149333Y-98174771D02*
X177244571Y-98127152D01*
X177244571Y-98127152D02*
X177435047Y-98127152D01*
X177435047Y-98127152D02*
X177530285Y-98174771D01*
X177816000Y-98127152D02*
X178196952Y-98127152D01*
X177958857Y-97793819D02*
X177958857Y-98650961D01*
X177958857Y-98650961D02*
X178006476Y-98746200D01*
X178006476Y-98746200D02*
X178101714Y-98793819D01*
X178101714Y-98793819D02*
X178196952Y-98793819D01*
X178673143Y-98793819D02*
X178577905Y-98746200D01*
X178577905Y-98746200D02*
X178530286Y-98650961D01*
X178530286Y-98650961D02*
X178530286Y-97793819D01*
X179054096Y-98412866D02*
X179816001Y-98412866D01*
X180292191Y-98793819D02*
X180292191Y-98127152D01*
X180292191Y-98317628D02*
X180339810Y-98222390D01*
X180339810Y-98222390D02*
X180387429Y-98174771D01*
X180387429Y-98174771D02*
X180482667Y-98127152D01*
X180482667Y-98127152D02*
X180577905Y-98127152D01*
X181292191Y-98746200D02*
X181196953Y-98793819D01*
X181196953Y-98793819D02*
X181006477Y-98793819D01*
X181006477Y-98793819D02*
X180911239Y-98746200D01*
X180911239Y-98746200D02*
X180863620Y-98650961D01*
X180863620Y-98650961D02*
X180863620Y-98270009D01*
X180863620Y-98270009D02*
X180911239Y-98174771D01*
X180911239Y-98174771D02*
X181006477Y-98127152D01*
X181006477Y-98127152D02*
X181196953Y-98127152D01*
X181196953Y-98127152D02*
X181292191Y-98174771D01*
X181292191Y-98174771D02*
X181339810Y-98270009D01*
X181339810Y-98270009D02*
X181339810Y-98365247D01*
X181339810Y-98365247D02*
X180863620Y-98460485D01*
X181673144Y-98127152D02*
X181911239Y-98793819D01*
X181911239Y-98793819D02*
X182149334Y-98127152D01*
X183196954Y-97793819D02*
X183863620Y-97793819D01*
X183863620Y-97793819D02*
X183435049Y-98793819D01*
X184244573Y-98698580D02*
X184292192Y-98746200D01*
X184292192Y-98746200D02*
X184244573Y-98793819D01*
X184244573Y-98793819D02*
X184196954Y-98746200D01*
X184196954Y-98746200D02*
X184244573Y-98698580D01*
X184244573Y-98698580D02*
X184244573Y-98793819D01*
X184911239Y-97793819D02*
X185006477Y-97793819D01*
X185006477Y-97793819D02*
X185101715Y-97841438D01*
X185101715Y-97841438D02*
X185149334Y-97889057D01*
X185149334Y-97889057D02*
X185196953Y-97984295D01*
X185196953Y-97984295D02*
X185244572Y-98174771D01*
X185244572Y-98174771D02*
X185244572Y-98412866D01*
X185244572Y-98412866D02*
X185196953Y-98603342D01*
X185196953Y-98603342D02*
X185149334Y-98698580D01*
X185149334Y-98698580D02*
X185101715Y-98746200D01*
X185101715Y-98746200D02*
X185006477Y-98793819D01*
X185006477Y-98793819D02*
X184911239Y-98793819D01*
X184911239Y-98793819D02*
X184816001Y-98746200D01*
X184816001Y-98746200D02*
X184768382Y-98698580D01*
X184768382Y-98698580D02*
X184720763Y-98603342D01*
X184720763Y-98603342D02*
X184673144Y-98412866D01*
X184673144Y-98412866D02*
X184673144Y-98174771D01*
X184673144Y-98174771D02*
X184720763Y-97984295D01*
X184720763Y-97984295D02*
X184768382Y-97889057D01*
X184768382Y-97889057D02*
X184816001Y-97841438D01*
X184816001Y-97841438D02*
X184911239Y-97793819D01*
X169839808Y-100784771D02*
X169792189Y-100737152D01*
X169792189Y-100737152D02*
X169696951Y-100594295D01*
X169696951Y-100594295D02*
X169649332Y-100499057D01*
X169649332Y-100499057D02*
X169601713Y-100356200D01*
X169601713Y-100356200D02*
X169554094Y-100118104D01*
X169554094Y-100118104D02*
X169554094Y-99927628D01*
X169554094Y-99927628D02*
X169601713Y-99689533D01*
X169601713Y-99689533D02*
X169649332Y-99546676D01*
X169649332Y-99546676D02*
X169696951Y-99451438D01*
X169696951Y-99451438D02*
X169792189Y-99308580D01*
X169792189Y-99308580D02*
X169839808Y-99260961D01*
X170792189Y-100308580D02*
X170744570Y-100356200D01*
X170744570Y-100356200D02*
X170601713Y-100403819D01*
X170601713Y-100403819D02*
X170506475Y-100403819D01*
X170506475Y-100403819D02*
X170363618Y-100356200D01*
X170363618Y-100356200D02*
X170268380Y-100260961D01*
X170268380Y-100260961D02*
X170220761Y-100165723D01*
X170220761Y-100165723D02*
X170173142Y-99975247D01*
X170173142Y-99975247D02*
X170173142Y-99832390D01*
X170173142Y-99832390D02*
X170220761Y-99641914D01*
X170220761Y-99641914D02*
X170268380Y-99546676D01*
X170268380Y-99546676D02*
X170363618Y-99451438D01*
X170363618Y-99451438D02*
X170506475Y-99403819D01*
X170506475Y-99403819D02*
X170601713Y-99403819D01*
X170601713Y-99403819D02*
X170744570Y-99451438D01*
X170744570Y-99451438D02*
X170792189Y-99499057D01*
X171125523Y-100784771D02*
X171173142Y-100737152D01*
X171173142Y-100737152D02*
X171268380Y-100594295D01*
X171268380Y-100594295D02*
X171315999Y-100499057D01*
X171315999Y-100499057D02*
X171363618Y-100356200D01*
X171363618Y-100356200D02*
X171411237Y-100118104D01*
X171411237Y-100118104D02*
X171411237Y-99927628D01*
X171411237Y-99927628D02*
X171363618Y-99689533D01*
X171363618Y-99689533D02*
X171315999Y-99546676D01*
X171315999Y-99546676D02*
X171268380Y-99451438D01*
X171268380Y-99451438D02*
X171173142Y-99308580D01*
X171173142Y-99308580D02*
X171125523Y-99260961D01*
X171839809Y-99499057D02*
X171887428Y-99451438D01*
X171887428Y-99451438D02*
X171982666Y-99403819D01*
X171982666Y-99403819D02*
X172220761Y-99403819D01*
X172220761Y-99403819D02*
X172315999Y-99451438D01*
X172315999Y-99451438D02*
X172363618Y-99499057D01*
X172363618Y-99499057D02*
X172411237Y-99594295D01*
X172411237Y-99594295D02*
X172411237Y-99689533D01*
X172411237Y-99689533D02*
X172363618Y-99832390D01*
X172363618Y-99832390D02*
X171792190Y-100403819D01*
X171792190Y-100403819D02*
X172411237Y-100403819D01*
X173030285Y-99403819D02*
X173125523Y-99403819D01*
X173125523Y-99403819D02*
X173220761Y-99451438D01*
X173220761Y-99451438D02*
X173268380Y-99499057D01*
X173268380Y-99499057D02*
X173315999Y-99594295D01*
X173315999Y-99594295D02*
X173363618Y-99784771D01*
X173363618Y-99784771D02*
X173363618Y-100022866D01*
X173363618Y-100022866D02*
X173315999Y-100213342D01*
X173315999Y-100213342D02*
X173268380Y-100308580D01*
X173268380Y-100308580D02*
X173220761Y-100356200D01*
X173220761Y-100356200D02*
X173125523Y-100403819D01*
X173125523Y-100403819D02*
X173030285Y-100403819D01*
X173030285Y-100403819D02*
X172935047Y-100356200D01*
X172935047Y-100356200D02*
X172887428Y-100308580D01*
X172887428Y-100308580D02*
X172839809Y-100213342D01*
X172839809Y-100213342D02*
X172792190Y-100022866D01*
X172792190Y-100022866D02*
X172792190Y-99784771D01*
X172792190Y-99784771D02*
X172839809Y-99594295D01*
X172839809Y-99594295D02*
X172887428Y-99499057D01*
X172887428Y-99499057D02*
X172935047Y-99451438D01*
X172935047Y-99451438D02*
X173030285Y-99403819D01*
X173744571Y-99499057D02*
X173792190Y-99451438D01*
X173792190Y-99451438D02*
X173887428Y-99403819D01*
X173887428Y-99403819D02*
X174125523Y-99403819D01*
X174125523Y-99403819D02*
X174220761Y-99451438D01*
X174220761Y-99451438D02*
X174268380Y-99499057D01*
X174268380Y-99499057D02*
X174315999Y-99594295D01*
X174315999Y-99594295D02*
X174315999Y-99689533D01*
X174315999Y-99689533D02*
X174268380Y-99832390D01*
X174268380Y-99832390D02*
X173696952Y-100403819D01*
X173696952Y-100403819D02*
X174315999Y-100403819D01*
X174649333Y-99403819D02*
X175268380Y-99403819D01*
X175268380Y-99403819D02*
X174935047Y-99784771D01*
X174935047Y-99784771D02*
X175077904Y-99784771D01*
X175077904Y-99784771D02*
X175173142Y-99832390D01*
X175173142Y-99832390D02*
X175220761Y-99880009D01*
X175220761Y-99880009D02*
X175268380Y-99975247D01*
X175268380Y-99975247D02*
X175268380Y-100213342D01*
X175268380Y-100213342D02*
X175220761Y-100308580D01*
X175220761Y-100308580D02*
X175173142Y-100356200D01*
X175173142Y-100356200D02*
X175077904Y-100403819D01*
X175077904Y-100403819D02*
X174792190Y-100403819D01*
X174792190Y-100403819D02*
X174696952Y-100356200D01*
X174696952Y-100356200D02*
X174649333Y-100308580D01*
X175696952Y-100022866D02*
X176458857Y-100022866D01*
X176935047Y-100403819D02*
X176935047Y-99403819D01*
X176935047Y-99880009D02*
X177506475Y-99880009D01*
X177506475Y-100403819D02*
X177506475Y-99403819D01*
X178411237Y-100403819D02*
X178411237Y-99880009D01*
X178411237Y-99880009D02*
X178363618Y-99784771D01*
X178363618Y-99784771D02*
X178268380Y-99737152D01*
X178268380Y-99737152D02*
X178077904Y-99737152D01*
X178077904Y-99737152D02*
X177982666Y-99784771D01*
X178411237Y-100356200D02*
X178315999Y-100403819D01*
X178315999Y-100403819D02*
X178077904Y-100403819D01*
X178077904Y-100403819D02*
X177982666Y-100356200D01*
X177982666Y-100356200D02*
X177935047Y-100260961D01*
X177935047Y-100260961D02*
X177935047Y-100165723D01*
X177935047Y-100165723D02*
X177982666Y-100070485D01*
X177982666Y-100070485D02*
X178077904Y-100022866D01*
X178077904Y-100022866D02*
X178315999Y-100022866D01*
X178315999Y-100022866D02*
X178411237Y-99975247D01*
X178887428Y-99737152D02*
X178887428Y-100403819D01*
X178887428Y-99832390D02*
X178935047Y-99784771D01*
X178935047Y-99784771D02*
X179030285Y-99737152D01*
X179030285Y-99737152D02*
X179173142Y-99737152D01*
X179173142Y-99737152D02*
X179268380Y-99784771D01*
X179268380Y-99784771D02*
X179315999Y-99880009D01*
X179315999Y-99880009D02*
X179315999Y-100403819D01*
X179744571Y-100356200D02*
X179839809Y-100403819D01*
X179839809Y-100403819D02*
X180030285Y-100403819D01*
X180030285Y-100403819D02*
X180125523Y-100356200D01*
X180125523Y-100356200D02*
X180173142Y-100260961D01*
X180173142Y-100260961D02*
X180173142Y-100213342D01*
X180173142Y-100213342D02*
X180125523Y-100118104D01*
X180125523Y-100118104D02*
X180030285Y-100070485D01*
X180030285Y-100070485D02*
X179887428Y-100070485D01*
X179887428Y-100070485D02*
X179792190Y-100022866D01*
X179792190Y-100022866D02*
X179744571Y-99927628D01*
X179744571Y-99927628D02*
X179744571Y-99880009D01*
X179744571Y-99880009D02*
X179792190Y-99784771D01*
X179792190Y-99784771D02*
X179887428Y-99737152D01*
X179887428Y-99737152D02*
X180030285Y-99737152D01*
X180030285Y-99737152D02*
X180125523Y-99784771D01*
X181935047Y-100403819D02*
X181601714Y-99927628D01*
X181363619Y-100403819D02*
X181363619Y-99403819D01*
X181363619Y-99403819D02*
X181744571Y-99403819D01*
X181744571Y-99403819D02*
X181839809Y-99451438D01*
X181839809Y-99451438D02*
X181887428Y-99499057D01*
X181887428Y-99499057D02*
X181935047Y-99594295D01*
X181935047Y-99594295D02*
X181935047Y-99737152D01*
X181935047Y-99737152D02*
X181887428Y-99832390D01*
X181887428Y-99832390D02*
X181839809Y-99880009D01*
X181839809Y-99880009D02*
X181744571Y-99927628D01*
X181744571Y-99927628D02*
X181363619Y-99927628D01*
X182792190Y-99737152D02*
X182792190Y-100403819D01*
X182363619Y-99737152D02*
X182363619Y-100260961D01*
X182363619Y-100260961D02*
X182411238Y-100356200D01*
X182411238Y-100356200D02*
X182506476Y-100403819D01*
X182506476Y-100403819D02*
X182649333Y-100403819D01*
X182649333Y-100403819D02*
X182744571Y-100356200D01*
X182744571Y-100356200D02*
X182792190Y-100308580D01*
X183268381Y-99737152D02*
X183268381Y-100403819D01*
X183268381Y-99832390D02*
X183316000Y-99784771D01*
X183316000Y-99784771D02*
X183411238Y-99737152D01*
X183411238Y-99737152D02*
X183554095Y-99737152D01*
X183554095Y-99737152D02*
X183649333Y-99784771D01*
X183649333Y-99784771D02*
X183696952Y-99880009D01*
X183696952Y-99880009D02*
X183696952Y-100403819D01*
X184554095Y-100356200D02*
X184458857Y-100403819D01*
X184458857Y-100403819D02*
X184268381Y-100403819D01*
X184268381Y-100403819D02*
X184173143Y-100356200D01*
X184173143Y-100356200D02*
X184125524Y-100260961D01*
X184125524Y-100260961D02*
X184125524Y-99880009D01*
X184125524Y-99880009D02*
X184173143Y-99784771D01*
X184173143Y-99784771D02*
X184268381Y-99737152D01*
X184268381Y-99737152D02*
X184458857Y-99737152D01*
X184458857Y-99737152D02*
X184554095Y-99784771D01*
X184554095Y-99784771D02*
X184601714Y-99880009D01*
X184601714Y-99880009D02*
X184601714Y-99975247D01*
X184601714Y-99975247D02*
X184125524Y-100070485D01*
X186125524Y-99880009D02*
X186268381Y-99927628D01*
X186268381Y-99927628D02*
X186316000Y-99975247D01*
X186316000Y-99975247D02*
X186363619Y-100070485D01*
X186363619Y-100070485D02*
X186363619Y-100213342D01*
X186363619Y-100213342D02*
X186316000Y-100308580D01*
X186316000Y-100308580D02*
X186268381Y-100356200D01*
X186268381Y-100356200D02*
X186173143Y-100403819D01*
X186173143Y-100403819D02*
X185792191Y-100403819D01*
X185792191Y-100403819D02*
X185792191Y-99403819D01*
X185792191Y-99403819D02*
X186125524Y-99403819D01*
X186125524Y-99403819D02*
X186220762Y-99451438D01*
X186220762Y-99451438D02*
X186268381Y-99499057D01*
X186268381Y-99499057D02*
X186316000Y-99594295D01*
X186316000Y-99594295D02*
X186316000Y-99689533D01*
X186316000Y-99689533D02*
X186268381Y-99784771D01*
X186268381Y-99784771D02*
X186220762Y-99832390D01*
X186220762Y-99832390D02*
X186125524Y-99880009D01*
X186125524Y-99880009D02*
X185792191Y-99880009D01*
X187220762Y-99737152D02*
X187220762Y-100403819D01*
X186792191Y-99737152D02*
X186792191Y-100260961D01*
X186792191Y-100260961D02*
X186839810Y-100356200D01*
X186839810Y-100356200D02*
X186935048Y-100403819D01*
X186935048Y-100403819D02*
X187077905Y-100403819D01*
X187077905Y-100403819D02*
X187173143Y-100356200D01*
X187173143Y-100356200D02*
X187220762Y-100308580D01*
X188077905Y-100356200D02*
X187982667Y-100403819D01*
X187982667Y-100403819D02*
X187792191Y-100403819D01*
X187792191Y-100403819D02*
X187696953Y-100356200D01*
X187696953Y-100356200D02*
X187649334Y-100260961D01*
X187649334Y-100260961D02*
X187649334Y-99880009D01*
X187649334Y-99880009D02*
X187696953Y-99784771D01*
X187696953Y-99784771D02*
X187792191Y-99737152D01*
X187792191Y-99737152D02*
X187982667Y-99737152D01*
X187982667Y-99737152D02*
X188077905Y-99784771D01*
X188077905Y-99784771D02*
X188125524Y-99880009D01*
X188125524Y-99880009D02*
X188125524Y-99975247D01*
X188125524Y-99975247D02*
X187649334Y-100070485D01*
X171077905Y-101347152D02*
X170316000Y-101632866D01*
X170316000Y-101632866D02*
X171077905Y-101918580D01*
X171935047Y-101966200D02*
X171839809Y-102013819D01*
X171839809Y-102013819D02*
X171649333Y-102013819D01*
X171649333Y-102013819D02*
X171554095Y-101966200D01*
X171554095Y-101966200D02*
X171506476Y-101870961D01*
X171506476Y-101870961D02*
X171506476Y-101490009D01*
X171506476Y-101490009D02*
X171554095Y-101394771D01*
X171554095Y-101394771D02*
X171649333Y-101347152D01*
X171649333Y-101347152D02*
X171839809Y-101347152D01*
X171839809Y-101347152D02*
X171935047Y-101394771D01*
X171935047Y-101394771D02*
X171982666Y-101490009D01*
X171982666Y-101490009D02*
X171982666Y-101585247D01*
X171982666Y-101585247D02*
X171506476Y-101680485D01*
X172411238Y-102013819D02*
X172411238Y-101347152D01*
X172411238Y-101442390D02*
X172458857Y-101394771D01*
X172458857Y-101394771D02*
X172554095Y-101347152D01*
X172554095Y-101347152D02*
X172696952Y-101347152D01*
X172696952Y-101347152D02*
X172792190Y-101394771D01*
X172792190Y-101394771D02*
X172839809Y-101490009D01*
X172839809Y-101490009D02*
X172839809Y-102013819D01*
X172839809Y-101490009D02*
X172887428Y-101394771D01*
X172887428Y-101394771D02*
X172982666Y-101347152D01*
X172982666Y-101347152D02*
X173125523Y-101347152D01*
X173125523Y-101347152D02*
X173220762Y-101394771D01*
X173220762Y-101394771D02*
X173268381Y-101490009D01*
X173268381Y-101490009D02*
X173268381Y-102013819D01*
X174173142Y-102013819D02*
X174173142Y-101490009D01*
X174173142Y-101490009D02*
X174125523Y-101394771D01*
X174125523Y-101394771D02*
X174030285Y-101347152D01*
X174030285Y-101347152D02*
X173839809Y-101347152D01*
X173839809Y-101347152D02*
X173744571Y-101394771D01*
X174173142Y-101966200D02*
X174077904Y-102013819D01*
X174077904Y-102013819D02*
X173839809Y-102013819D01*
X173839809Y-102013819D02*
X173744571Y-101966200D01*
X173744571Y-101966200D02*
X173696952Y-101870961D01*
X173696952Y-101870961D02*
X173696952Y-101775723D01*
X173696952Y-101775723D02*
X173744571Y-101680485D01*
X173744571Y-101680485D02*
X173839809Y-101632866D01*
X173839809Y-101632866D02*
X174077904Y-101632866D01*
X174077904Y-101632866D02*
X174173142Y-101585247D01*
X174649333Y-102013819D02*
X174649333Y-101347152D01*
X174649333Y-101013819D02*
X174601714Y-101061438D01*
X174601714Y-101061438D02*
X174649333Y-101109057D01*
X174649333Y-101109057D02*
X174696952Y-101061438D01*
X174696952Y-101061438D02*
X174649333Y-101013819D01*
X174649333Y-101013819D02*
X174649333Y-101109057D01*
X175268380Y-102013819D02*
X175173142Y-101966200D01*
X175173142Y-101966200D02*
X175125523Y-101870961D01*
X175125523Y-101870961D02*
X175125523Y-101013819D01*
X176268380Y-101537628D02*
X176220761Y-101490009D01*
X176220761Y-101490009D02*
X176125523Y-101442390D01*
X176125523Y-101442390D02*
X176030285Y-101442390D01*
X176030285Y-101442390D02*
X175935047Y-101490009D01*
X175935047Y-101490009D02*
X175887428Y-101537628D01*
X175887428Y-101537628D02*
X175839809Y-101632866D01*
X175839809Y-101632866D02*
X175839809Y-101728104D01*
X175839809Y-101728104D02*
X175887428Y-101823342D01*
X175887428Y-101823342D02*
X175935047Y-101870961D01*
X175935047Y-101870961D02*
X176030285Y-101918580D01*
X176030285Y-101918580D02*
X176125523Y-101918580D01*
X176125523Y-101918580D02*
X176220761Y-101870961D01*
X176220761Y-101870961D02*
X176268380Y-101823342D01*
X176268380Y-101442390D02*
X176268380Y-101823342D01*
X176268380Y-101823342D02*
X176315999Y-101870961D01*
X176315999Y-101870961D02*
X176363618Y-101870961D01*
X176363618Y-101870961D02*
X176458857Y-101823342D01*
X176458857Y-101823342D02*
X176506476Y-101728104D01*
X176506476Y-101728104D02*
X176506476Y-101490009D01*
X176506476Y-101490009D02*
X176411238Y-101347152D01*
X176411238Y-101347152D02*
X176268380Y-101251914D01*
X176268380Y-101251914D02*
X176077904Y-101204295D01*
X176077904Y-101204295D02*
X175887428Y-101251914D01*
X175887428Y-101251914D02*
X175744571Y-101347152D01*
X175744571Y-101347152D02*
X175649333Y-101490009D01*
X175649333Y-101490009D02*
X175601714Y-101680485D01*
X175601714Y-101680485D02*
X175649333Y-101870961D01*
X175649333Y-101870961D02*
X175744571Y-102013819D01*
X175744571Y-102013819D02*
X175887428Y-102109057D01*
X175887428Y-102109057D02*
X176077904Y-102156676D01*
X176077904Y-102156676D02*
X176268380Y-102109057D01*
X176268380Y-102109057D02*
X176411238Y-102013819D01*
X176935047Y-102013819D02*
X176935047Y-101013819D01*
X177363618Y-102013819D02*
X177363618Y-101490009D01*
X177363618Y-101490009D02*
X177315999Y-101394771D01*
X177315999Y-101394771D02*
X177220761Y-101347152D01*
X177220761Y-101347152D02*
X177077904Y-101347152D01*
X177077904Y-101347152D02*
X176982666Y-101394771D01*
X176982666Y-101394771D02*
X176935047Y-101442390D01*
X178268380Y-102013819D02*
X178268380Y-101490009D01*
X178268380Y-101490009D02*
X178220761Y-101394771D01*
X178220761Y-101394771D02*
X178125523Y-101347152D01*
X178125523Y-101347152D02*
X177935047Y-101347152D01*
X177935047Y-101347152D02*
X177839809Y-101394771D01*
X178268380Y-101966200D02*
X178173142Y-102013819D01*
X178173142Y-102013819D02*
X177935047Y-102013819D01*
X177935047Y-102013819D02*
X177839809Y-101966200D01*
X177839809Y-101966200D02*
X177792190Y-101870961D01*
X177792190Y-101870961D02*
X177792190Y-101775723D01*
X177792190Y-101775723D02*
X177839809Y-101680485D01*
X177839809Y-101680485D02*
X177935047Y-101632866D01*
X177935047Y-101632866D02*
X178173142Y-101632866D01*
X178173142Y-101632866D02*
X178268380Y-101585247D01*
X178744571Y-101347152D02*
X178744571Y-102013819D01*
X178744571Y-101442390D02*
X178792190Y-101394771D01*
X178792190Y-101394771D02*
X178887428Y-101347152D01*
X178887428Y-101347152D02*
X179030285Y-101347152D01*
X179030285Y-101347152D02*
X179125523Y-101394771D01*
X179125523Y-101394771D02*
X179173142Y-101490009D01*
X179173142Y-101490009D02*
X179173142Y-102013819D01*
X179601714Y-101966200D02*
X179696952Y-102013819D01*
X179696952Y-102013819D02*
X179887428Y-102013819D01*
X179887428Y-102013819D02*
X179982666Y-101966200D01*
X179982666Y-101966200D02*
X180030285Y-101870961D01*
X180030285Y-101870961D02*
X180030285Y-101823342D01*
X180030285Y-101823342D02*
X179982666Y-101728104D01*
X179982666Y-101728104D02*
X179887428Y-101680485D01*
X179887428Y-101680485D02*
X179744571Y-101680485D01*
X179744571Y-101680485D02*
X179649333Y-101632866D01*
X179649333Y-101632866D02*
X179601714Y-101537628D01*
X179601714Y-101537628D02*
X179601714Y-101490009D01*
X179601714Y-101490009D02*
X179649333Y-101394771D01*
X179649333Y-101394771D02*
X179744571Y-101347152D01*
X179744571Y-101347152D02*
X179887428Y-101347152D01*
X179887428Y-101347152D02*
X179982666Y-101394771D01*
X180458857Y-102013819D02*
X180458857Y-101347152D01*
X180458857Y-101537628D02*
X180506476Y-101442390D01*
X180506476Y-101442390D02*
X180554095Y-101394771D01*
X180554095Y-101394771D02*
X180649333Y-101347152D01*
X180649333Y-101347152D02*
X180744571Y-101347152D01*
X181506476Y-101347152D02*
X181506476Y-102013819D01*
X181077905Y-101347152D02*
X181077905Y-101870961D01*
X181077905Y-101870961D02*
X181125524Y-101966200D01*
X181125524Y-101966200D02*
X181220762Y-102013819D01*
X181220762Y-102013819D02*
X181363619Y-102013819D01*
X181363619Y-102013819D02*
X181458857Y-101966200D01*
X181458857Y-101966200D02*
X181506476Y-101918580D01*
X181982667Y-101347152D02*
X181982667Y-102013819D01*
X181982667Y-101442390D02*
X182030286Y-101394771D01*
X182030286Y-101394771D02*
X182125524Y-101347152D01*
X182125524Y-101347152D02*
X182268381Y-101347152D01*
X182268381Y-101347152D02*
X182363619Y-101394771D01*
X182363619Y-101394771D02*
X182411238Y-101490009D01*
X182411238Y-101490009D02*
X182411238Y-102013819D01*
X183268381Y-101966200D02*
X183173143Y-102013819D01*
X183173143Y-102013819D02*
X182982667Y-102013819D01*
X182982667Y-102013819D02*
X182887429Y-101966200D01*
X182887429Y-101966200D02*
X182839810Y-101870961D01*
X182839810Y-101870961D02*
X182839810Y-101490009D01*
X182839810Y-101490009D02*
X182887429Y-101394771D01*
X182887429Y-101394771D02*
X182982667Y-101347152D01*
X182982667Y-101347152D02*
X183173143Y-101347152D01*
X183173143Y-101347152D02*
X183268381Y-101394771D01*
X183268381Y-101394771D02*
X183316000Y-101490009D01*
X183316000Y-101490009D02*
X183316000Y-101585247D01*
X183316000Y-101585247D02*
X182839810Y-101680485D01*
X183744572Y-101918580D02*
X183792191Y-101966200D01*
X183792191Y-101966200D02*
X183744572Y-102013819D01*
X183744572Y-102013819D02*
X183696953Y-101966200D01*
X183696953Y-101966200D02*
X183744572Y-101918580D01*
X183744572Y-101918580D02*
X183744572Y-102013819D01*
X184220762Y-101347152D02*
X184220762Y-102013819D01*
X184220762Y-101442390D02*
X184268381Y-101394771D01*
X184268381Y-101394771D02*
X184363619Y-101347152D01*
X184363619Y-101347152D02*
X184506476Y-101347152D01*
X184506476Y-101347152D02*
X184601714Y-101394771D01*
X184601714Y-101394771D02*
X184649333Y-101490009D01*
X184649333Y-101490009D02*
X184649333Y-102013819D01*
X185506476Y-101966200D02*
X185411238Y-102013819D01*
X185411238Y-102013819D02*
X185220762Y-102013819D01*
X185220762Y-102013819D02*
X185125524Y-101966200D01*
X185125524Y-101966200D02*
X185077905Y-101870961D01*
X185077905Y-101870961D02*
X185077905Y-101490009D01*
X185077905Y-101490009D02*
X185125524Y-101394771D01*
X185125524Y-101394771D02*
X185220762Y-101347152D01*
X185220762Y-101347152D02*
X185411238Y-101347152D01*
X185411238Y-101347152D02*
X185506476Y-101394771D01*
X185506476Y-101394771D02*
X185554095Y-101490009D01*
X185554095Y-101490009D02*
X185554095Y-101585247D01*
X185554095Y-101585247D02*
X185077905Y-101680485D01*
X185839810Y-101347152D02*
X186220762Y-101347152D01*
X185982667Y-101013819D02*
X185982667Y-101870961D01*
X185982667Y-101870961D02*
X186030286Y-101966200D01*
X186030286Y-101966200D02*
X186125524Y-102013819D01*
X186125524Y-102013819D02*
X186220762Y-102013819D01*
X186554096Y-101347152D02*
X187316001Y-101632866D01*
X187316001Y-101632866D02*
X186554096Y-101918580D01*
D11*
X169140761Y-84301380D02*
X169093142Y-84349000D01*
X169093142Y-84349000D02*
X168950285Y-84396619D01*
X168950285Y-84396619D02*
X168855047Y-84396619D01*
X168855047Y-84396619D02*
X168712190Y-84349000D01*
X168712190Y-84349000D02*
X168616952Y-84253761D01*
X168616952Y-84253761D02*
X168569333Y-84158523D01*
X168569333Y-84158523D02*
X168521714Y-83968047D01*
X168521714Y-83968047D02*
X168521714Y-83825190D01*
X168521714Y-83825190D02*
X168569333Y-83634714D01*
X168569333Y-83634714D02*
X168616952Y-83539476D01*
X168616952Y-83539476D02*
X168712190Y-83444238D01*
X168712190Y-83444238D02*
X168855047Y-83396619D01*
X168855047Y-83396619D02*
X168950285Y-83396619D01*
X168950285Y-83396619D02*
X169093142Y-83444238D01*
X169093142Y-83444238D02*
X169140761Y-83491857D01*
X170045523Y-84396619D02*
X169569333Y-84396619D01*
X169569333Y-84396619D02*
X169569333Y-83396619D01*
X171093143Y-84110904D02*
X171569333Y-84110904D01*
X170997905Y-84396619D02*
X171331238Y-83396619D01*
X171331238Y-83396619D02*
X171664571Y-84396619D01*
X171997905Y-84396619D02*
X171997905Y-83396619D01*
X171997905Y-83396619D02*
X172236000Y-83396619D01*
X172236000Y-83396619D02*
X172378857Y-83444238D01*
X172378857Y-83444238D02*
X172474095Y-83539476D01*
X172474095Y-83539476D02*
X172521714Y-83634714D01*
X172521714Y-83634714D02*
X172569333Y-83825190D01*
X172569333Y-83825190D02*
X172569333Y-83968047D01*
X172569333Y-83968047D02*
X172521714Y-84158523D01*
X172521714Y-84158523D02*
X172474095Y-84253761D01*
X172474095Y-84253761D02*
X172378857Y-84349000D01*
X172378857Y-84349000D02*
X172236000Y-84396619D01*
X172236000Y-84396619D02*
X171997905Y-84396619D01*
X173664572Y-83396619D02*
X174283619Y-83396619D01*
X174283619Y-83396619D02*
X173950286Y-83777571D01*
X173950286Y-83777571D02*
X174093143Y-83777571D01*
X174093143Y-83777571D02*
X174188381Y-83825190D01*
X174188381Y-83825190D02*
X174236000Y-83872809D01*
X174236000Y-83872809D02*
X174283619Y-83968047D01*
X174283619Y-83968047D02*
X174283619Y-84206142D01*
X174283619Y-84206142D02*
X174236000Y-84301380D01*
X174236000Y-84301380D02*
X174188381Y-84349000D01*
X174188381Y-84349000D02*
X174093143Y-84396619D01*
X174093143Y-84396619D02*
X173807429Y-84396619D01*
X173807429Y-84396619D02*
X173712191Y-84349000D01*
X173712191Y-84349000D02*
X173664572Y-84301380D01*
X174569334Y-83396619D02*
X174902667Y-84396619D01*
X174902667Y-84396619D02*
X175236000Y-83396619D01*
X176855048Y-83444238D02*
X176759810Y-83396619D01*
X176759810Y-83396619D02*
X176616953Y-83396619D01*
X176616953Y-83396619D02*
X176474096Y-83444238D01*
X176474096Y-83444238D02*
X176378858Y-83539476D01*
X176378858Y-83539476D02*
X176331239Y-83634714D01*
X176331239Y-83634714D02*
X176283620Y-83825190D01*
X176283620Y-83825190D02*
X176283620Y-83968047D01*
X176283620Y-83968047D02*
X176331239Y-84158523D01*
X176331239Y-84158523D02*
X176378858Y-84253761D01*
X176378858Y-84253761D02*
X176474096Y-84349000D01*
X176474096Y-84349000D02*
X176616953Y-84396619D01*
X176616953Y-84396619D02*
X176712191Y-84396619D01*
X176712191Y-84396619D02*
X176855048Y-84349000D01*
X176855048Y-84349000D02*
X176902667Y-84301380D01*
X176902667Y-84301380D02*
X176902667Y-83968047D01*
X176902667Y-83968047D02*
X176712191Y-83968047D01*
X177331239Y-84396619D02*
X177331239Y-83396619D01*
X177331239Y-83396619D02*
X177902667Y-84396619D01*
X177902667Y-84396619D02*
X177902667Y-83396619D01*
X178378858Y-84396619D02*
X178378858Y-83396619D01*
X178378858Y-83396619D02*
X178616953Y-83396619D01*
X178616953Y-83396619D02*
X178759810Y-83444238D01*
X178759810Y-83444238D02*
X178855048Y-83539476D01*
X178855048Y-83539476D02*
X178902667Y-83634714D01*
X178902667Y-83634714D02*
X178950286Y-83825190D01*
X178950286Y-83825190D02*
X178950286Y-83968047D01*
X178950286Y-83968047D02*
X178902667Y-84158523D01*
X178902667Y-84158523D02*
X178855048Y-84253761D01*
X178855048Y-84253761D02*
X178759810Y-84349000D01*
X178759810Y-84349000D02*
X178616953Y-84396619D01*
X178616953Y-84396619D02*
X178378858Y-84396619D01*
D10*
X149629905Y-92021819D02*
X149629905Y-91021819D01*
X149629905Y-91021819D02*
X149868000Y-91021819D01*
X149868000Y-91021819D02*
X150010857Y-91069438D01*
X150010857Y-91069438D02*
X150106095Y-91164676D01*
X150106095Y-91164676D02*
X150153714Y-91259914D01*
X150153714Y-91259914D02*
X150201333Y-91450390D01*
X150201333Y-91450390D02*
X150201333Y-91593247D01*
X150201333Y-91593247D02*
X150153714Y-91783723D01*
X150153714Y-91783723D02*
X150106095Y-91878961D01*
X150106095Y-91878961D02*
X150010857Y-91974200D01*
X150010857Y-91974200D02*
X149868000Y-92021819D01*
X149868000Y-92021819D02*
X149629905Y-92021819D01*
X150534667Y-91021819D02*
X151201333Y-91021819D01*
X151201333Y-91021819D02*
X150772762Y-92021819D01*
X173585333Y-91893819D02*
X173252000Y-91417628D01*
X173013905Y-91893819D02*
X173013905Y-90893819D01*
X173013905Y-90893819D02*
X173394857Y-90893819D01*
X173394857Y-90893819D02*
X173490095Y-90941438D01*
X173490095Y-90941438D02*
X173537714Y-90989057D01*
X173537714Y-90989057D02*
X173585333Y-91084295D01*
X173585333Y-91084295D02*
X173585333Y-91227152D01*
X173585333Y-91227152D02*
X173537714Y-91322390D01*
X173537714Y-91322390D02*
X173490095Y-91370009D01*
X173490095Y-91370009D02*
X173394857Y-91417628D01*
X173394857Y-91417628D02*
X173013905Y-91417628D01*
X174156762Y-91322390D02*
X174061524Y-91274771D01*
X174061524Y-91274771D02*
X174013905Y-91227152D01*
X174013905Y-91227152D02*
X173966286Y-91131914D01*
X173966286Y-91131914D02*
X173966286Y-91084295D01*
X173966286Y-91084295D02*
X174013905Y-90989057D01*
X174013905Y-90989057D02*
X174061524Y-90941438D01*
X174061524Y-90941438D02*
X174156762Y-90893819D01*
X174156762Y-90893819D02*
X174347238Y-90893819D01*
X174347238Y-90893819D02*
X174442476Y-90941438D01*
X174442476Y-90941438D02*
X174490095Y-90989057D01*
X174490095Y-90989057D02*
X174537714Y-91084295D01*
X174537714Y-91084295D02*
X174537714Y-91131914D01*
X174537714Y-91131914D02*
X174490095Y-91227152D01*
X174490095Y-91227152D02*
X174442476Y-91274771D01*
X174442476Y-91274771D02*
X174347238Y-91322390D01*
X174347238Y-91322390D02*
X174156762Y-91322390D01*
X174156762Y-91322390D02*
X174061524Y-91370009D01*
X174061524Y-91370009D02*
X174013905Y-91417628D01*
X174013905Y-91417628D02*
X173966286Y-91512866D01*
X173966286Y-91512866D02*
X173966286Y-91703342D01*
X173966286Y-91703342D02*
X174013905Y-91798580D01*
X174013905Y-91798580D02*
X174061524Y-91846200D01*
X174061524Y-91846200D02*
X174156762Y-91893819D01*
X174156762Y-91893819D02*
X174347238Y-91893819D01*
X174347238Y-91893819D02*
X174442476Y-91846200D01*
X174442476Y-91846200D02*
X174490095Y-91798580D01*
X174490095Y-91798580D02*
X174537714Y-91703342D01*
X174537714Y-91703342D02*
X174537714Y-91512866D01*
X174537714Y-91512866D02*
X174490095Y-91417628D01*
X174490095Y-91417628D02*
X174442476Y-91370009D01*
X174442476Y-91370009D02*
X174347238Y-91322390D01*
X161998819Y-107291094D02*
X160998819Y-107291094D01*
X160998819Y-107291094D02*
X160998819Y-107052999D01*
X160998819Y-107052999D02*
X161046438Y-106910142D01*
X161046438Y-106910142D02*
X161141676Y-106814904D01*
X161141676Y-106814904D02*
X161236914Y-106767285D01*
X161236914Y-106767285D02*
X161427390Y-106719666D01*
X161427390Y-106719666D02*
X161570247Y-106719666D01*
X161570247Y-106719666D02*
X161760723Y-106767285D01*
X161760723Y-106767285D02*
X161855961Y-106814904D01*
X161855961Y-106814904D02*
X161951200Y-106910142D01*
X161951200Y-106910142D02*
X161998819Y-107052999D01*
X161998819Y-107052999D02*
X161998819Y-107291094D01*
X161094057Y-106338713D02*
X161046438Y-106291094D01*
X161046438Y-106291094D02*
X160998819Y-106195856D01*
X160998819Y-106195856D02*
X160998819Y-105957761D01*
X160998819Y-105957761D02*
X161046438Y-105862523D01*
X161046438Y-105862523D02*
X161094057Y-105814904D01*
X161094057Y-105814904D02*
X161189295Y-105767285D01*
X161189295Y-105767285D02*
X161284533Y-105767285D01*
X161284533Y-105767285D02*
X161427390Y-105814904D01*
X161427390Y-105814904D02*
X161998819Y-106386332D01*
X161998819Y-106386332D02*
X161998819Y-105767285D01*
X163750666Y-111456819D02*
X163750666Y-112171104D01*
X163750666Y-112171104D02*
X163703047Y-112313961D01*
X163703047Y-112313961D02*
X163607809Y-112409200D01*
X163607809Y-112409200D02*
X163464952Y-112456819D01*
X163464952Y-112456819D02*
X163369714Y-112456819D01*
X164274476Y-112456819D02*
X164464952Y-112456819D01*
X164464952Y-112456819D02*
X164560190Y-112409200D01*
X164560190Y-112409200D02*
X164607809Y-112361580D01*
X164607809Y-112361580D02*
X164703047Y-112218723D01*
X164703047Y-112218723D02*
X164750666Y-112028247D01*
X164750666Y-112028247D02*
X164750666Y-111647295D01*
X164750666Y-111647295D02*
X164703047Y-111552057D01*
X164703047Y-111552057D02*
X164655428Y-111504438D01*
X164655428Y-111504438D02*
X164560190Y-111456819D01*
X164560190Y-111456819D02*
X164369714Y-111456819D01*
X164369714Y-111456819D02*
X164274476Y-111504438D01*
X164274476Y-111504438D02*
X164226857Y-111552057D01*
X164226857Y-111552057D02*
X164179238Y-111647295D01*
X164179238Y-111647295D02*
X164179238Y-111885390D01*
X164179238Y-111885390D02*
X164226857Y-111980628D01*
X164226857Y-111980628D02*
X164274476Y-112028247D01*
X164274476Y-112028247D02*
X164369714Y-112075866D01*
X164369714Y-112075866D02*
X164560190Y-112075866D01*
X164560190Y-112075866D02*
X164655428Y-112028247D01*
X164655428Y-112028247D02*
X164703047Y-111980628D01*
X164703047Y-111980628D02*
X164750666Y-111885390D01*
X159345333Y-95990580D02*
X159297714Y-96038200D01*
X159297714Y-96038200D02*
X159154857Y-96085819D01*
X159154857Y-96085819D02*
X159059619Y-96085819D01*
X159059619Y-96085819D02*
X158916762Y-96038200D01*
X158916762Y-96038200D02*
X158821524Y-95942961D01*
X158821524Y-95942961D02*
X158773905Y-95847723D01*
X158773905Y-95847723D02*
X158726286Y-95657247D01*
X158726286Y-95657247D02*
X158726286Y-95514390D01*
X158726286Y-95514390D02*
X158773905Y-95323914D01*
X158773905Y-95323914D02*
X158821524Y-95228676D01*
X158821524Y-95228676D02*
X158916762Y-95133438D01*
X158916762Y-95133438D02*
X159059619Y-95085819D01*
X159059619Y-95085819D02*
X159154857Y-95085819D01*
X159154857Y-95085819D02*
X159297714Y-95133438D01*
X159297714Y-95133438D02*
X159345333Y-95181057D01*
X159726286Y-95181057D02*
X159773905Y-95133438D01*
X159773905Y-95133438D02*
X159869143Y-95085819D01*
X159869143Y-95085819D02*
X160107238Y-95085819D01*
X160107238Y-95085819D02*
X160202476Y-95133438D01*
X160202476Y-95133438D02*
X160250095Y-95181057D01*
X160250095Y-95181057D02*
X160297714Y-95276295D01*
X160297714Y-95276295D02*
X160297714Y-95371533D01*
X160297714Y-95371533D02*
X160250095Y-95514390D01*
X160250095Y-95514390D02*
X159678667Y-96085819D01*
X159678667Y-96085819D02*
X160297714Y-96085819D01*
X180951333Y-87704819D02*
X180618000Y-87228628D01*
X180379905Y-87704819D02*
X180379905Y-86704819D01*
X180379905Y-86704819D02*
X180760857Y-86704819D01*
X180760857Y-86704819D02*
X180856095Y-86752438D01*
X180856095Y-86752438D02*
X180903714Y-86800057D01*
X180903714Y-86800057D02*
X180951333Y-86895295D01*
X180951333Y-86895295D02*
X180951333Y-87038152D01*
X180951333Y-87038152D02*
X180903714Y-87133390D01*
X180903714Y-87133390D02*
X180856095Y-87181009D01*
X180856095Y-87181009D02*
X180760857Y-87228628D01*
X180760857Y-87228628D02*
X180379905Y-87228628D01*
X181903714Y-87704819D02*
X181332286Y-87704819D01*
X181618000Y-87704819D02*
X181618000Y-86704819D01*
X181618000Y-86704819D02*
X181522762Y-86847676D01*
X181522762Y-86847676D02*
X181427524Y-86942914D01*
X181427524Y-86942914D02*
X181332286Y-86990533D01*
X168171905Y-90751819D02*
X168171905Y-89751819D01*
X168171905Y-89751819D02*
X168410000Y-89751819D01*
X168410000Y-89751819D02*
X168552857Y-89799438D01*
X168552857Y-89799438D02*
X168648095Y-89894676D01*
X168648095Y-89894676D02*
X168695714Y-89989914D01*
X168695714Y-89989914D02*
X168743333Y-90180390D01*
X168743333Y-90180390D02*
X168743333Y-90323247D01*
X168743333Y-90323247D02*
X168695714Y-90513723D01*
X168695714Y-90513723D02*
X168648095Y-90608961D01*
X168648095Y-90608961D02*
X168552857Y-90704200D01*
X168552857Y-90704200D02*
X168410000Y-90751819D01*
X168410000Y-90751819D02*
X168171905Y-90751819D01*
X169076667Y-89751819D02*
X169695714Y-89751819D01*
X169695714Y-89751819D02*
X169362381Y-90132771D01*
X169362381Y-90132771D02*
X169505238Y-90132771D01*
X169505238Y-90132771D02*
X169600476Y-90180390D01*
X169600476Y-90180390D02*
X169648095Y-90228009D01*
X169648095Y-90228009D02*
X169695714Y-90323247D01*
X169695714Y-90323247D02*
X169695714Y-90561342D01*
X169695714Y-90561342D02*
X169648095Y-90656580D01*
X169648095Y-90656580D02*
X169600476Y-90704200D01*
X169600476Y-90704200D02*
X169505238Y-90751819D01*
X169505238Y-90751819D02*
X169219524Y-90751819D01*
X169219524Y-90751819D02*
X169124286Y-90704200D01*
X169124286Y-90704200D02*
X169076667Y-90656580D01*
X151304666Y-105245819D02*
X151304666Y-105960104D01*
X151304666Y-105960104D02*
X151257047Y-106102961D01*
X151257047Y-106102961D02*
X151161809Y-106198200D01*
X151161809Y-106198200D02*
X151018952Y-106245819D01*
X151018952Y-106245819D02*
X150923714Y-106245819D01*
X151923714Y-105674390D02*
X151828476Y-105626771D01*
X151828476Y-105626771D02*
X151780857Y-105579152D01*
X151780857Y-105579152D02*
X151733238Y-105483914D01*
X151733238Y-105483914D02*
X151733238Y-105436295D01*
X151733238Y-105436295D02*
X151780857Y-105341057D01*
X151780857Y-105341057D02*
X151828476Y-105293438D01*
X151828476Y-105293438D02*
X151923714Y-105245819D01*
X151923714Y-105245819D02*
X152114190Y-105245819D01*
X152114190Y-105245819D02*
X152209428Y-105293438D01*
X152209428Y-105293438D02*
X152257047Y-105341057D01*
X152257047Y-105341057D02*
X152304666Y-105436295D01*
X152304666Y-105436295D02*
X152304666Y-105483914D01*
X152304666Y-105483914D02*
X152257047Y-105579152D01*
X152257047Y-105579152D02*
X152209428Y-105626771D01*
X152209428Y-105626771D02*
X152114190Y-105674390D01*
X152114190Y-105674390D02*
X151923714Y-105674390D01*
X151923714Y-105674390D02*
X151828476Y-105722009D01*
X151828476Y-105722009D02*
X151780857Y-105769628D01*
X151780857Y-105769628D02*
X151733238Y-105864866D01*
X151733238Y-105864866D02*
X151733238Y-106055342D01*
X151733238Y-106055342D02*
X151780857Y-106150580D01*
X151780857Y-106150580D02*
X151828476Y-106198200D01*
X151828476Y-106198200D02*
X151923714Y-106245819D01*
X151923714Y-106245819D02*
X152114190Y-106245819D01*
X152114190Y-106245819D02*
X152209428Y-106198200D01*
X152209428Y-106198200D02*
X152257047Y-106150580D01*
X152257047Y-106150580D02*
X152304666Y-106055342D01*
X152304666Y-106055342D02*
X152304666Y-105864866D01*
X152304666Y-105864866D02*
X152257047Y-105769628D01*
X152257047Y-105769628D02*
X152209428Y-105722009D01*
X152209428Y-105722009D02*
X152114190Y-105674390D01*
X153108819Y-98559857D02*
X152632628Y-98893190D01*
X153108819Y-99131285D02*
X152108819Y-99131285D01*
X152108819Y-99131285D02*
X152108819Y-98750333D01*
X152108819Y-98750333D02*
X152156438Y-98655095D01*
X152156438Y-98655095D02*
X152204057Y-98607476D01*
X152204057Y-98607476D02*
X152299295Y-98559857D01*
X152299295Y-98559857D02*
X152442152Y-98559857D01*
X152442152Y-98559857D02*
X152537390Y-98607476D01*
X152537390Y-98607476D02*
X152585009Y-98655095D01*
X152585009Y-98655095D02*
X152632628Y-98750333D01*
X152632628Y-98750333D02*
X152632628Y-99131285D01*
X153108819Y-97607476D02*
X153108819Y-98178904D01*
X153108819Y-97893190D02*
X152108819Y-97893190D01*
X152108819Y-97893190D02*
X152251676Y-97988428D01*
X152251676Y-97988428D02*
X152346914Y-98083666D01*
X152346914Y-98083666D02*
X152394533Y-98178904D01*
X152108819Y-97274142D02*
X152108819Y-96655095D01*
X152108819Y-96655095D02*
X152489771Y-96988428D01*
X152489771Y-96988428D02*
X152489771Y-96845571D01*
X152489771Y-96845571D02*
X152537390Y-96750333D01*
X152537390Y-96750333D02*
X152585009Y-96702714D01*
X152585009Y-96702714D02*
X152680247Y-96655095D01*
X152680247Y-96655095D02*
X152918342Y-96655095D01*
X152918342Y-96655095D02*
X153013580Y-96702714D01*
X153013580Y-96702714D02*
X153061200Y-96750333D01*
X153061200Y-96750333D02*
X153108819Y-96845571D01*
X153108819Y-96845571D02*
X153108819Y-97131285D01*
X153108819Y-97131285D02*
X153061200Y-97226523D01*
X153061200Y-97226523D02*
X153013580Y-97274142D01*
X149018666Y-102451819D02*
X149018666Y-103166104D01*
X149018666Y-103166104D02*
X148971047Y-103308961D01*
X148971047Y-103308961D02*
X148875809Y-103404200D01*
X148875809Y-103404200D02*
X148732952Y-103451819D01*
X148732952Y-103451819D02*
X148637714Y-103451819D01*
X149399619Y-102451819D02*
X150066285Y-102451819D01*
X150066285Y-102451819D02*
X149637714Y-103451819D01*
X170932819Y-114403094D02*
X169932819Y-114403094D01*
X169932819Y-114403094D02*
X169932819Y-114164999D01*
X169932819Y-114164999D02*
X169980438Y-114022142D01*
X169980438Y-114022142D02*
X170075676Y-113926904D01*
X170075676Y-113926904D02*
X170170914Y-113879285D01*
X170170914Y-113879285D02*
X170361390Y-113831666D01*
X170361390Y-113831666D02*
X170504247Y-113831666D01*
X170504247Y-113831666D02*
X170694723Y-113879285D01*
X170694723Y-113879285D02*
X170789961Y-113926904D01*
X170789961Y-113926904D02*
X170885200Y-114022142D01*
X170885200Y-114022142D02*
X170932819Y-114164999D01*
X170932819Y-114164999D02*
X170932819Y-114403094D01*
X169932819Y-112926904D02*
X169932819Y-113403094D01*
X169932819Y-113403094D02*
X170409009Y-113450713D01*
X170409009Y-113450713D02*
X170361390Y-113403094D01*
X170361390Y-113403094D02*
X170313771Y-113307856D01*
X170313771Y-113307856D02*
X170313771Y-113069761D01*
X170313771Y-113069761D02*
X170361390Y-112974523D01*
X170361390Y-112974523D02*
X170409009Y-112926904D01*
X170409009Y-112926904D02*
X170504247Y-112879285D01*
X170504247Y-112879285D02*
X170742342Y-112879285D01*
X170742342Y-112879285D02*
X170837580Y-112926904D01*
X170837580Y-112926904D02*
X170885200Y-112974523D01*
X170885200Y-112974523D02*
X170932819Y-113069761D01*
X170932819Y-113069761D02*
X170932819Y-113307856D01*
X170932819Y-113307856D02*
X170885200Y-113403094D01*
X170885200Y-113403094D02*
X170837580Y-113450713D01*
X180546476Y-116421819D02*
X180546476Y-117136104D01*
X180546476Y-117136104D02*
X180498857Y-117278961D01*
X180498857Y-117278961D02*
X180403619Y-117374200D01*
X180403619Y-117374200D02*
X180260762Y-117421819D01*
X180260762Y-117421819D02*
X180165524Y-117421819D01*
X181546476Y-117421819D02*
X180975048Y-117421819D01*
X181260762Y-117421819D02*
X181260762Y-116421819D01*
X181260762Y-116421819D02*
X181165524Y-116564676D01*
X181165524Y-116564676D02*
X181070286Y-116659914D01*
X181070286Y-116659914D02*
X180975048Y-116707533D01*
X182165524Y-116421819D02*
X182260762Y-116421819D01*
X182260762Y-116421819D02*
X182356000Y-116469438D01*
X182356000Y-116469438D02*
X182403619Y-116517057D01*
X182403619Y-116517057D02*
X182451238Y-116612295D01*
X182451238Y-116612295D02*
X182498857Y-116802771D01*
X182498857Y-116802771D02*
X182498857Y-117040866D01*
X182498857Y-117040866D02*
X182451238Y-117231342D01*
X182451238Y-117231342D02*
X182403619Y-117326580D01*
X182403619Y-117326580D02*
X182356000Y-117374200D01*
X182356000Y-117374200D02*
X182260762Y-117421819D01*
X182260762Y-117421819D02*
X182165524Y-117421819D01*
X182165524Y-117421819D02*
X182070286Y-117374200D01*
X182070286Y-117374200D02*
X182022667Y-117326580D01*
X182022667Y-117326580D02*
X181975048Y-117231342D01*
X181975048Y-117231342D02*
X181927429Y-117040866D01*
X181927429Y-117040866D02*
X181927429Y-116802771D01*
X181927429Y-116802771D02*
X181975048Y-116612295D01*
X181975048Y-116612295D02*
X182022667Y-116517057D01*
X182022667Y-116517057D02*
X182070286Y-116469438D01*
X182070286Y-116469438D02*
X182165524Y-116421819D01*
X155956095Y-100419819D02*
X155956095Y-101229342D01*
X155956095Y-101229342D02*
X156003714Y-101324580D01*
X156003714Y-101324580D02*
X156051333Y-101372200D01*
X156051333Y-101372200D02*
X156146571Y-101419819D01*
X156146571Y-101419819D02*
X156337047Y-101419819D01*
X156337047Y-101419819D02*
X156432285Y-101372200D01*
X156432285Y-101372200D02*
X156479904Y-101324580D01*
X156479904Y-101324580D02*
X156527523Y-101229342D01*
X156527523Y-101229342D02*
X156527523Y-100419819D01*
X157527523Y-101419819D02*
X156956095Y-101419819D01*
X157241809Y-101419819D02*
X157241809Y-100419819D01*
X157241809Y-100419819D02*
X157146571Y-100562676D01*
X157146571Y-100562676D02*
X157051333Y-100657914D01*
X157051333Y-100657914D02*
X156956095Y-100705533D01*
X159345333Y-99292580D02*
X159297714Y-99340200D01*
X159297714Y-99340200D02*
X159154857Y-99387819D01*
X159154857Y-99387819D02*
X159059619Y-99387819D01*
X159059619Y-99387819D02*
X158916762Y-99340200D01*
X158916762Y-99340200D02*
X158821524Y-99244961D01*
X158821524Y-99244961D02*
X158773905Y-99149723D01*
X158773905Y-99149723D02*
X158726286Y-98959247D01*
X158726286Y-98959247D02*
X158726286Y-98816390D01*
X158726286Y-98816390D02*
X158773905Y-98625914D01*
X158773905Y-98625914D02*
X158821524Y-98530676D01*
X158821524Y-98530676D02*
X158916762Y-98435438D01*
X158916762Y-98435438D02*
X159059619Y-98387819D01*
X159059619Y-98387819D02*
X159154857Y-98387819D01*
X159154857Y-98387819D02*
X159297714Y-98435438D01*
X159297714Y-98435438D02*
X159345333Y-98483057D01*
X159678667Y-98387819D02*
X160297714Y-98387819D01*
X160297714Y-98387819D02*
X159964381Y-98768771D01*
X159964381Y-98768771D02*
X160107238Y-98768771D01*
X160107238Y-98768771D02*
X160202476Y-98816390D01*
X160202476Y-98816390D02*
X160250095Y-98864009D01*
X160250095Y-98864009D02*
X160297714Y-98959247D01*
X160297714Y-98959247D02*
X160297714Y-99197342D01*
X160297714Y-99197342D02*
X160250095Y-99292580D01*
X160250095Y-99292580D02*
X160202476Y-99340200D01*
X160202476Y-99340200D02*
X160107238Y-99387819D01*
X160107238Y-99387819D02*
X159821524Y-99387819D01*
X159821524Y-99387819D02*
X159726286Y-99340200D01*
X159726286Y-99340200D02*
X159678667Y-99292580D01*
X141247905Y-107515819D02*
X141247905Y-106515819D01*
X141819333Y-107515819D02*
X141390762Y-106944390D01*
X141819333Y-106515819D02*
X141247905Y-107087247D01*
X142771714Y-107515819D02*
X142200286Y-107515819D01*
X142486000Y-107515819D02*
X142486000Y-106515819D01*
X142486000Y-106515819D02*
X142390762Y-106658676D01*
X142390762Y-106658676D02*
X142295524Y-106753914D01*
X142295524Y-106753914D02*
X142200286Y-106801533D01*
X166444819Y-95146666D02*
X165968628Y-95479999D01*
X166444819Y-95718094D02*
X165444819Y-95718094D01*
X165444819Y-95718094D02*
X165444819Y-95337142D01*
X165444819Y-95337142D02*
X165492438Y-95241904D01*
X165492438Y-95241904D02*
X165540057Y-95194285D01*
X165540057Y-95194285D02*
X165635295Y-95146666D01*
X165635295Y-95146666D02*
X165778152Y-95146666D01*
X165778152Y-95146666D02*
X165873390Y-95194285D01*
X165873390Y-95194285D02*
X165921009Y-95241904D01*
X165921009Y-95241904D02*
X165968628Y-95337142D01*
X165968628Y-95337142D02*
X165968628Y-95718094D01*
X165540057Y-94765713D02*
X165492438Y-94718094D01*
X165492438Y-94718094D02*
X165444819Y-94622856D01*
X165444819Y-94622856D02*
X165444819Y-94384761D01*
X165444819Y-94384761D02*
X165492438Y-94289523D01*
X165492438Y-94289523D02*
X165540057Y-94241904D01*
X165540057Y-94241904D02*
X165635295Y-94194285D01*
X165635295Y-94194285D02*
X165730533Y-94194285D01*
X165730533Y-94194285D02*
X165873390Y-94241904D01*
X165873390Y-94241904D02*
X166444819Y-94813332D01*
X166444819Y-94813332D02*
X166444819Y-94194285D01*
X162901333Y-103197819D02*
X162568000Y-102721628D01*
X162329905Y-103197819D02*
X162329905Y-102197819D01*
X162329905Y-102197819D02*
X162710857Y-102197819D01*
X162710857Y-102197819D02*
X162806095Y-102245438D01*
X162806095Y-102245438D02*
X162853714Y-102293057D01*
X162853714Y-102293057D02*
X162901333Y-102388295D01*
X162901333Y-102388295D02*
X162901333Y-102531152D01*
X162901333Y-102531152D02*
X162853714Y-102626390D01*
X162853714Y-102626390D02*
X162806095Y-102674009D01*
X162806095Y-102674009D02*
X162710857Y-102721628D01*
X162710857Y-102721628D02*
X162329905Y-102721628D01*
X163377524Y-103197819D02*
X163568000Y-103197819D01*
X163568000Y-103197819D02*
X163663238Y-103150200D01*
X163663238Y-103150200D02*
X163710857Y-103102580D01*
X163710857Y-103102580D02*
X163806095Y-102959723D01*
X163806095Y-102959723D02*
X163853714Y-102769247D01*
X163853714Y-102769247D02*
X163853714Y-102388295D01*
X163853714Y-102388295D02*
X163806095Y-102293057D01*
X163806095Y-102293057D02*
X163758476Y-102245438D01*
X163758476Y-102245438D02*
X163663238Y-102197819D01*
X163663238Y-102197819D02*
X163472762Y-102197819D01*
X163472762Y-102197819D02*
X163377524Y-102245438D01*
X163377524Y-102245438D02*
X163329905Y-102293057D01*
X163329905Y-102293057D02*
X163282286Y-102388295D01*
X163282286Y-102388295D02*
X163282286Y-102626390D01*
X163282286Y-102626390D02*
X163329905Y-102721628D01*
X163329905Y-102721628D02*
X163377524Y-102769247D01*
X163377524Y-102769247D02*
X163472762Y-102816866D01*
X163472762Y-102816866D02*
X163663238Y-102816866D01*
X163663238Y-102816866D02*
X163758476Y-102769247D01*
X163758476Y-102769247D02*
X163806095Y-102721628D01*
X163806095Y-102721628D02*
X163853714Y-102626390D01*
X174887142Y-112469819D02*
X174553809Y-111993628D01*
X174315714Y-112469819D02*
X174315714Y-111469819D01*
X174315714Y-111469819D02*
X174696666Y-111469819D01*
X174696666Y-111469819D02*
X174791904Y-111517438D01*
X174791904Y-111517438D02*
X174839523Y-111565057D01*
X174839523Y-111565057D02*
X174887142Y-111660295D01*
X174887142Y-111660295D02*
X174887142Y-111803152D01*
X174887142Y-111803152D02*
X174839523Y-111898390D01*
X174839523Y-111898390D02*
X174791904Y-111946009D01*
X174791904Y-111946009D02*
X174696666Y-111993628D01*
X174696666Y-111993628D02*
X174315714Y-111993628D01*
X175839523Y-112469819D02*
X175268095Y-112469819D01*
X175553809Y-112469819D02*
X175553809Y-111469819D01*
X175553809Y-111469819D02*
X175458571Y-111612676D01*
X175458571Y-111612676D02*
X175363333Y-111707914D01*
X175363333Y-111707914D02*
X175268095Y-111755533D01*
X176220476Y-111565057D02*
X176268095Y-111517438D01*
X176268095Y-111517438D02*
X176363333Y-111469819D01*
X176363333Y-111469819D02*
X176601428Y-111469819D01*
X176601428Y-111469819D02*
X176696666Y-111517438D01*
X176696666Y-111517438D02*
X176744285Y-111565057D01*
X176744285Y-111565057D02*
X176791904Y-111660295D01*
X176791904Y-111660295D02*
X176791904Y-111755533D01*
X176791904Y-111755533D02*
X176744285Y-111898390D01*
X176744285Y-111898390D02*
X176172857Y-112469819D01*
X176172857Y-112469819D02*
X176791904Y-112469819D01*
X147520819Y-114657094D02*
X146520819Y-114657094D01*
X146520819Y-114657094D02*
X146520819Y-114418999D01*
X146520819Y-114418999D02*
X146568438Y-114276142D01*
X146568438Y-114276142D02*
X146663676Y-114180904D01*
X146663676Y-114180904D02*
X146758914Y-114133285D01*
X146758914Y-114133285D02*
X146949390Y-114085666D01*
X146949390Y-114085666D02*
X147092247Y-114085666D01*
X147092247Y-114085666D02*
X147282723Y-114133285D01*
X147282723Y-114133285D02*
X147377961Y-114180904D01*
X147377961Y-114180904D02*
X147473200Y-114276142D01*
X147473200Y-114276142D02*
X147520819Y-114418999D01*
X147520819Y-114418999D02*
X147520819Y-114657094D01*
X146949390Y-113514237D02*
X146901771Y-113609475D01*
X146901771Y-113609475D02*
X146854152Y-113657094D01*
X146854152Y-113657094D02*
X146758914Y-113704713D01*
X146758914Y-113704713D02*
X146711295Y-113704713D01*
X146711295Y-113704713D02*
X146616057Y-113657094D01*
X146616057Y-113657094D02*
X146568438Y-113609475D01*
X146568438Y-113609475D02*
X146520819Y-113514237D01*
X146520819Y-113514237D02*
X146520819Y-113323761D01*
X146520819Y-113323761D02*
X146568438Y-113228523D01*
X146568438Y-113228523D02*
X146616057Y-113180904D01*
X146616057Y-113180904D02*
X146711295Y-113133285D01*
X146711295Y-113133285D02*
X146758914Y-113133285D01*
X146758914Y-113133285D02*
X146854152Y-113180904D01*
X146854152Y-113180904D02*
X146901771Y-113228523D01*
X146901771Y-113228523D02*
X146949390Y-113323761D01*
X146949390Y-113323761D02*
X146949390Y-113514237D01*
X146949390Y-113514237D02*
X146997009Y-113609475D01*
X146997009Y-113609475D02*
X147044628Y-113657094D01*
X147044628Y-113657094D02*
X147139866Y-113704713D01*
X147139866Y-113704713D02*
X147330342Y-113704713D01*
X147330342Y-113704713D02*
X147425580Y-113657094D01*
X147425580Y-113657094D02*
X147473200Y-113609475D01*
X147473200Y-113609475D02*
X147520819Y-113514237D01*
X147520819Y-113514237D02*
X147520819Y-113323761D01*
X147520819Y-113323761D02*
X147473200Y-113228523D01*
X147473200Y-113228523D02*
X147425580Y-113180904D01*
X147425580Y-113180904D02*
X147330342Y-113133285D01*
X147330342Y-113133285D02*
X147139866Y-113133285D01*
X147139866Y-113133285D02*
X147044628Y-113180904D01*
X147044628Y-113180904D02*
X146997009Y-113228523D01*
X146997009Y-113228523D02*
X146949390Y-113323761D01*
X147046476Y-88227819D02*
X147046476Y-88942104D01*
X147046476Y-88942104D02*
X146998857Y-89084961D01*
X146998857Y-89084961D02*
X146903619Y-89180200D01*
X146903619Y-89180200D02*
X146760762Y-89227819D01*
X146760762Y-89227819D02*
X146665524Y-89227819D01*
X148046476Y-89227819D02*
X147475048Y-89227819D01*
X147760762Y-89227819D02*
X147760762Y-88227819D01*
X147760762Y-88227819D02*
X147665524Y-88370676D01*
X147665524Y-88370676D02*
X147570286Y-88465914D01*
X147570286Y-88465914D02*
X147475048Y-88513533D01*
X148998857Y-89227819D02*
X148427429Y-89227819D01*
X148713143Y-89227819D02*
X148713143Y-88227819D01*
X148713143Y-88227819D02*
X148617905Y-88370676D01*
X148617905Y-88370676D02*
X148522667Y-88465914D01*
X148522667Y-88465914D02*
X148427429Y-88513533D01*
X187922819Y-102488904D02*
X188732342Y-102488904D01*
X188732342Y-102488904D02*
X188827580Y-102441285D01*
X188827580Y-102441285D02*
X188875200Y-102393666D01*
X188875200Y-102393666D02*
X188922819Y-102298428D01*
X188922819Y-102298428D02*
X188922819Y-102107952D01*
X188922819Y-102107952D02*
X188875200Y-102012714D01*
X188875200Y-102012714D02*
X188827580Y-101965095D01*
X188827580Y-101965095D02*
X188732342Y-101917476D01*
X188732342Y-101917476D02*
X187922819Y-101917476D01*
X188018057Y-101488904D02*
X187970438Y-101441285D01*
X187970438Y-101441285D02*
X187922819Y-101346047D01*
X187922819Y-101346047D02*
X187922819Y-101107952D01*
X187922819Y-101107952D02*
X187970438Y-101012714D01*
X187970438Y-101012714D02*
X188018057Y-100965095D01*
X188018057Y-100965095D02*
X188113295Y-100917476D01*
X188113295Y-100917476D02*
X188208533Y-100917476D01*
X188208533Y-100917476D02*
X188351390Y-100965095D01*
X188351390Y-100965095D02*
X188922819Y-101536523D01*
X188922819Y-101536523D02*
X188922819Y-100917476D01*
X166544666Y-100165819D02*
X166544666Y-100880104D01*
X166544666Y-100880104D02*
X166497047Y-101022961D01*
X166497047Y-101022961D02*
X166401809Y-101118200D01*
X166401809Y-101118200D02*
X166258952Y-101165819D01*
X166258952Y-101165819D02*
X166163714Y-101165819D01*
X167449428Y-100165819D02*
X167258952Y-100165819D01*
X167258952Y-100165819D02*
X167163714Y-100213438D01*
X167163714Y-100213438D02*
X167116095Y-100261057D01*
X167116095Y-100261057D02*
X167020857Y-100403914D01*
X167020857Y-100403914D02*
X166973238Y-100594390D01*
X166973238Y-100594390D02*
X166973238Y-100975342D01*
X166973238Y-100975342D02*
X167020857Y-101070580D01*
X167020857Y-101070580D02*
X167068476Y-101118200D01*
X167068476Y-101118200D02*
X167163714Y-101165819D01*
X167163714Y-101165819D02*
X167354190Y-101165819D01*
X167354190Y-101165819D02*
X167449428Y-101118200D01*
X167449428Y-101118200D02*
X167497047Y-101070580D01*
X167497047Y-101070580D02*
X167544666Y-100975342D01*
X167544666Y-100975342D02*
X167544666Y-100737247D01*
X167544666Y-100737247D02*
X167497047Y-100642009D01*
X167497047Y-100642009D02*
X167449428Y-100594390D01*
X167449428Y-100594390D02*
X167354190Y-100546771D01*
X167354190Y-100546771D02*
X167163714Y-100546771D01*
X167163714Y-100546771D02*
X167068476Y-100594390D01*
X167068476Y-100594390D02*
X167020857Y-100642009D01*
X167020857Y-100642009D02*
X166973238Y-100737247D01*
X152728819Y-91733666D02*
X152252628Y-92066999D01*
X152728819Y-92305094D02*
X151728819Y-92305094D01*
X151728819Y-92305094D02*
X151728819Y-91924142D01*
X151728819Y-91924142D02*
X151776438Y-91828904D01*
X151776438Y-91828904D02*
X151824057Y-91781285D01*
X151824057Y-91781285D02*
X151919295Y-91733666D01*
X151919295Y-91733666D02*
X152062152Y-91733666D01*
X152062152Y-91733666D02*
X152157390Y-91781285D01*
X152157390Y-91781285D02*
X152205009Y-91828904D01*
X152205009Y-91828904D02*
X152252628Y-91924142D01*
X152252628Y-91924142D02*
X152252628Y-92305094D01*
X151728819Y-90876523D02*
X151728819Y-91066999D01*
X151728819Y-91066999D02*
X151776438Y-91162237D01*
X151776438Y-91162237D02*
X151824057Y-91209856D01*
X151824057Y-91209856D02*
X151966914Y-91305094D01*
X151966914Y-91305094D02*
X152157390Y-91352713D01*
X152157390Y-91352713D02*
X152538342Y-91352713D01*
X152538342Y-91352713D02*
X152633580Y-91305094D01*
X152633580Y-91305094D02*
X152681200Y-91257475D01*
X152681200Y-91257475D02*
X152728819Y-91162237D01*
X152728819Y-91162237D02*
X152728819Y-90971761D01*
X152728819Y-90971761D02*
X152681200Y-90876523D01*
X152681200Y-90876523D02*
X152633580Y-90828904D01*
X152633580Y-90828904D02*
X152538342Y-90781285D01*
X152538342Y-90781285D02*
X152300247Y-90781285D01*
X152300247Y-90781285D02*
X152205009Y-90828904D01*
X152205009Y-90828904D02*
X152157390Y-90876523D01*
X152157390Y-90876523D02*
X152109771Y-90971761D01*
X152109771Y-90971761D02*
X152109771Y-91162237D01*
X152109771Y-91162237D02*
X152157390Y-91257475D01*
X152157390Y-91257475D02*
X152205009Y-91305094D01*
X152205009Y-91305094D02*
X152300247Y-91352713D01*
X156410819Y-109323094D02*
X155410819Y-109323094D01*
X155410819Y-109323094D02*
X155410819Y-109084999D01*
X155410819Y-109084999D02*
X155458438Y-108942142D01*
X155458438Y-108942142D02*
X155553676Y-108846904D01*
X155553676Y-108846904D02*
X155648914Y-108799285D01*
X155648914Y-108799285D02*
X155839390Y-108751666D01*
X155839390Y-108751666D02*
X155982247Y-108751666D01*
X155982247Y-108751666D02*
X156172723Y-108799285D01*
X156172723Y-108799285D02*
X156267961Y-108846904D01*
X156267961Y-108846904D02*
X156363200Y-108942142D01*
X156363200Y-108942142D02*
X156410819Y-109084999D01*
X156410819Y-109084999D02*
X156410819Y-109323094D01*
X155744152Y-107894523D02*
X156410819Y-107894523D01*
X155363200Y-108132618D02*
X156077485Y-108370713D01*
X156077485Y-108370713D02*
X156077485Y-107751666D01*
X142240095Y-82877819D02*
X142240095Y-81877819D01*
X142240095Y-82354009D02*
X142811523Y-82354009D01*
X142811523Y-82877819D02*
X142811523Y-81877819D01*
X143811523Y-82877819D02*
X143240095Y-82877819D01*
X143525809Y-82877819D02*
X143525809Y-81877819D01*
X143525809Y-81877819D02*
X143430571Y-82020676D01*
X143430571Y-82020676D02*
X143335333Y-82115914D01*
X143335333Y-82115914D02*
X143240095Y-82163533D01*
X159458819Y-92749666D02*
X158982628Y-93082999D01*
X159458819Y-93321094D02*
X158458819Y-93321094D01*
X158458819Y-93321094D02*
X158458819Y-92940142D01*
X158458819Y-92940142D02*
X158506438Y-92844904D01*
X158506438Y-92844904D02*
X158554057Y-92797285D01*
X158554057Y-92797285D02*
X158649295Y-92749666D01*
X158649295Y-92749666D02*
X158792152Y-92749666D01*
X158792152Y-92749666D02*
X158887390Y-92797285D01*
X158887390Y-92797285D02*
X158935009Y-92844904D01*
X158935009Y-92844904D02*
X158982628Y-92940142D01*
X158982628Y-92940142D02*
X158982628Y-93321094D01*
X158792152Y-91892523D02*
X159458819Y-91892523D01*
X158411200Y-92130618D02*
X159125485Y-92368713D01*
X159125485Y-92368713D02*
X159125485Y-91749666D01*
X151050666Y-116421819D02*
X151050666Y-117136104D01*
X151050666Y-117136104D02*
X151003047Y-117278961D01*
X151003047Y-117278961D02*
X150907809Y-117374200D01*
X150907809Y-117374200D02*
X150764952Y-117421819D01*
X150764952Y-117421819D02*
X150669714Y-117421819D01*
X151479238Y-116517057D02*
X151526857Y-116469438D01*
X151526857Y-116469438D02*
X151622095Y-116421819D01*
X151622095Y-116421819D02*
X151860190Y-116421819D01*
X151860190Y-116421819D02*
X151955428Y-116469438D01*
X151955428Y-116469438D02*
X152003047Y-116517057D01*
X152003047Y-116517057D02*
X152050666Y-116612295D01*
X152050666Y-116612295D02*
X152050666Y-116707533D01*
X152050666Y-116707533D02*
X152003047Y-116850390D01*
X152003047Y-116850390D02*
X151431619Y-117421819D01*
X151431619Y-117421819D02*
X152050666Y-117421819D01*
X157172819Y-114403094D02*
X156172819Y-114403094D01*
X156172819Y-114403094D02*
X156172819Y-114164999D01*
X156172819Y-114164999D02*
X156220438Y-114022142D01*
X156220438Y-114022142D02*
X156315676Y-113926904D01*
X156315676Y-113926904D02*
X156410914Y-113879285D01*
X156410914Y-113879285D02*
X156601390Y-113831666D01*
X156601390Y-113831666D02*
X156744247Y-113831666D01*
X156744247Y-113831666D02*
X156934723Y-113879285D01*
X156934723Y-113879285D02*
X157029961Y-113926904D01*
X157029961Y-113926904D02*
X157125200Y-114022142D01*
X157125200Y-114022142D02*
X157172819Y-114164999D01*
X157172819Y-114164999D02*
X157172819Y-114403094D01*
X157172819Y-112879285D02*
X157172819Y-113450713D01*
X157172819Y-113164999D02*
X156172819Y-113164999D01*
X156172819Y-113164999D02*
X156315676Y-113260237D01*
X156315676Y-113260237D02*
X156410914Y-113355475D01*
X156410914Y-113355475D02*
X156458533Y-113450713D01*
X141732095Y-117929819D02*
X141732095Y-116929819D01*
X141732095Y-117406009D02*
X142303523Y-117406009D01*
X142303523Y-117929819D02*
X142303523Y-116929819D01*
X143208285Y-117263152D02*
X143208285Y-117929819D01*
X142970190Y-116882200D02*
X142732095Y-117596485D01*
X142732095Y-117596485D02*
X143351142Y-117596485D01*
X164242761Y-90633057D02*
X164147523Y-90585438D01*
X164147523Y-90585438D02*
X164052285Y-90490200D01*
X164052285Y-90490200D02*
X163909428Y-90347342D01*
X163909428Y-90347342D02*
X163814190Y-90299723D01*
X163814190Y-90299723D02*
X163718952Y-90299723D01*
X163766571Y-90537819D02*
X163671333Y-90490200D01*
X163671333Y-90490200D02*
X163576095Y-90394961D01*
X163576095Y-90394961D02*
X163528476Y-90204485D01*
X163528476Y-90204485D02*
X163528476Y-89871152D01*
X163528476Y-89871152D02*
X163576095Y-89680676D01*
X163576095Y-89680676D02*
X163671333Y-89585438D01*
X163671333Y-89585438D02*
X163766571Y-89537819D01*
X163766571Y-89537819D02*
X163957047Y-89537819D01*
X163957047Y-89537819D02*
X164052285Y-89585438D01*
X164052285Y-89585438D02*
X164147523Y-89680676D01*
X164147523Y-89680676D02*
X164195142Y-89871152D01*
X164195142Y-89871152D02*
X164195142Y-90204485D01*
X164195142Y-90204485D02*
X164147523Y-90394961D01*
X164147523Y-90394961D02*
X164052285Y-90490200D01*
X164052285Y-90490200D02*
X163957047Y-90537819D01*
X163957047Y-90537819D02*
X163766571Y-90537819D01*
X165147523Y-90537819D02*
X164576095Y-90537819D01*
X164861809Y-90537819D02*
X164861809Y-89537819D01*
X164861809Y-89537819D02*
X164766571Y-89680676D01*
X164766571Y-89680676D02*
X164671333Y-89775914D01*
X164671333Y-89775914D02*
X164576095Y-89823533D01*
X178935142Y-112469819D02*
X178601809Y-111993628D01*
X178363714Y-112469819D02*
X178363714Y-111469819D01*
X178363714Y-111469819D02*
X178744666Y-111469819D01*
X178744666Y-111469819D02*
X178839904Y-111517438D01*
X178839904Y-111517438D02*
X178887523Y-111565057D01*
X178887523Y-111565057D02*
X178935142Y-111660295D01*
X178935142Y-111660295D02*
X178935142Y-111803152D01*
X178935142Y-111803152D02*
X178887523Y-111898390D01*
X178887523Y-111898390D02*
X178839904Y-111946009D01*
X178839904Y-111946009D02*
X178744666Y-111993628D01*
X178744666Y-111993628D02*
X178363714Y-111993628D01*
X179887523Y-112469819D02*
X179316095Y-112469819D01*
X179601809Y-112469819D02*
X179601809Y-111469819D01*
X179601809Y-111469819D02*
X179506571Y-111612676D01*
X179506571Y-111612676D02*
X179411333Y-111707914D01*
X179411333Y-111707914D02*
X179316095Y-111755533D01*
X180839904Y-112469819D02*
X180268476Y-112469819D01*
X180554190Y-112469819D02*
X180554190Y-111469819D01*
X180554190Y-111469819D02*
X180458952Y-111612676D01*
X180458952Y-111612676D02*
X180363714Y-111707914D01*
X180363714Y-111707914D02*
X180268476Y-111755533D01*
X149018666Y-106769819D02*
X149018666Y-107484104D01*
X149018666Y-107484104D02*
X148971047Y-107626961D01*
X148971047Y-107626961D02*
X148875809Y-107722200D01*
X148875809Y-107722200D02*
X148732952Y-107769819D01*
X148732952Y-107769819D02*
X148637714Y-107769819D01*
X149971047Y-106769819D02*
X149494857Y-106769819D01*
X149494857Y-106769819D02*
X149447238Y-107246009D01*
X149447238Y-107246009D02*
X149494857Y-107198390D01*
X149494857Y-107198390D02*
X149590095Y-107150771D01*
X149590095Y-107150771D02*
X149828190Y-107150771D01*
X149828190Y-107150771D02*
X149923428Y-107198390D01*
X149923428Y-107198390D02*
X149971047Y-107246009D01*
X149971047Y-107246009D02*
X150018666Y-107341247D01*
X150018666Y-107341247D02*
X150018666Y-107579342D01*
X150018666Y-107579342D02*
X149971047Y-107674580D01*
X149971047Y-107674580D02*
X149923428Y-107722200D01*
X149923428Y-107722200D02*
X149828190Y-107769819D01*
X149828190Y-107769819D02*
X149590095Y-107769819D01*
X149590095Y-107769819D02*
X149494857Y-107722200D01*
X149494857Y-107722200D02*
X149447238Y-107674580D01*
X168830666Y-84671819D02*
X168830666Y-85386104D01*
X168830666Y-85386104D02*
X168783047Y-85528961D01*
X168783047Y-85528961D02*
X168687809Y-85624200D01*
X168687809Y-85624200D02*
X168544952Y-85671819D01*
X168544952Y-85671819D02*
X168449714Y-85671819D01*
X169211619Y-84671819D02*
X169830666Y-84671819D01*
X169830666Y-84671819D02*
X169497333Y-85052771D01*
X169497333Y-85052771D02*
X169640190Y-85052771D01*
X169640190Y-85052771D02*
X169735428Y-85100390D01*
X169735428Y-85100390D02*
X169783047Y-85148009D01*
X169783047Y-85148009D02*
X169830666Y-85243247D01*
X169830666Y-85243247D02*
X169830666Y-85481342D01*
X169830666Y-85481342D02*
X169783047Y-85576580D01*
X169783047Y-85576580D02*
X169735428Y-85624200D01*
X169735428Y-85624200D02*
X169640190Y-85671819D01*
X169640190Y-85671819D02*
X169354476Y-85671819D01*
X169354476Y-85671819D02*
X169259238Y-85624200D01*
X169259238Y-85624200D02*
X169211619Y-85576580D01*
X183983333Y-91513819D02*
X183650000Y-91037628D01*
X183411905Y-91513819D02*
X183411905Y-90513819D01*
X183411905Y-90513819D02*
X183792857Y-90513819D01*
X183792857Y-90513819D02*
X183888095Y-90561438D01*
X183888095Y-90561438D02*
X183935714Y-90609057D01*
X183935714Y-90609057D02*
X183983333Y-90704295D01*
X183983333Y-90704295D02*
X183983333Y-90847152D01*
X183983333Y-90847152D02*
X183935714Y-90942390D01*
X183935714Y-90942390D02*
X183888095Y-90990009D01*
X183888095Y-90990009D02*
X183792857Y-91037628D01*
X183792857Y-91037628D02*
X183411905Y-91037628D01*
X184316667Y-90513819D02*
X184935714Y-90513819D01*
X184935714Y-90513819D02*
X184602381Y-90894771D01*
X184602381Y-90894771D02*
X184745238Y-90894771D01*
X184745238Y-90894771D02*
X184840476Y-90942390D01*
X184840476Y-90942390D02*
X184888095Y-90990009D01*
X184888095Y-90990009D02*
X184935714Y-91085247D01*
X184935714Y-91085247D02*
X184935714Y-91323342D01*
X184935714Y-91323342D02*
X184888095Y-91418580D01*
X184888095Y-91418580D02*
X184840476Y-91466200D01*
X184840476Y-91466200D02*
X184745238Y-91513819D01*
X184745238Y-91513819D02*
X184459524Y-91513819D01*
X184459524Y-91513819D02*
X184364286Y-91466200D01*
X184364286Y-91466200D02*
X184316667Y-91418580D01*
X165441333Y-85799819D02*
X165108000Y-85323628D01*
X164869905Y-85799819D02*
X164869905Y-84799819D01*
X164869905Y-84799819D02*
X165250857Y-84799819D01*
X165250857Y-84799819D02*
X165346095Y-84847438D01*
X165346095Y-84847438D02*
X165393714Y-84895057D01*
X165393714Y-84895057D02*
X165441333Y-84990295D01*
X165441333Y-84990295D02*
X165441333Y-85133152D01*
X165441333Y-85133152D02*
X165393714Y-85228390D01*
X165393714Y-85228390D02*
X165346095Y-85276009D01*
X165346095Y-85276009D02*
X165250857Y-85323628D01*
X165250857Y-85323628D02*
X164869905Y-85323628D01*
X165774667Y-84799819D02*
X166441333Y-84799819D01*
X166441333Y-84799819D02*
X166012762Y-85799819D01*
X185189905Y-115897819D02*
X185189905Y-114897819D01*
X185189905Y-114897819D02*
X185428000Y-114897819D01*
X185428000Y-114897819D02*
X185570857Y-114945438D01*
X185570857Y-114945438D02*
X185666095Y-115040676D01*
X185666095Y-115040676D02*
X185713714Y-115135914D01*
X185713714Y-115135914D02*
X185761333Y-115326390D01*
X185761333Y-115326390D02*
X185761333Y-115469247D01*
X185761333Y-115469247D02*
X185713714Y-115659723D01*
X185713714Y-115659723D02*
X185666095Y-115754961D01*
X185666095Y-115754961D02*
X185570857Y-115850200D01*
X185570857Y-115850200D02*
X185428000Y-115897819D01*
X185428000Y-115897819D02*
X185189905Y-115897819D01*
X186618476Y-114897819D02*
X186428000Y-114897819D01*
X186428000Y-114897819D02*
X186332762Y-114945438D01*
X186332762Y-114945438D02*
X186285143Y-114993057D01*
X186285143Y-114993057D02*
X186189905Y-115135914D01*
X186189905Y-115135914D02*
X186142286Y-115326390D01*
X186142286Y-115326390D02*
X186142286Y-115707342D01*
X186142286Y-115707342D02*
X186189905Y-115802580D01*
X186189905Y-115802580D02*
X186237524Y-115850200D01*
X186237524Y-115850200D02*
X186332762Y-115897819D01*
X186332762Y-115897819D02*
X186523238Y-115897819D01*
X186523238Y-115897819D02*
X186618476Y-115850200D01*
X186618476Y-115850200D02*
X186666095Y-115802580D01*
X186666095Y-115802580D02*
X186713714Y-115707342D01*
X186713714Y-115707342D02*
X186713714Y-115469247D01*
X186713714Y-115469247D02*
X186666095Y-115374009D01*
X186666095Y-115374009D02*
X186618476Y-115326390D01*
X186618476Y-115326390D02*
X186523238Y-115278771D01*
X186523238Y-115278771D02*
X186332762Y-115278771D01*
X186332762Y-115278771D02*
X186237524Y-115326390D01*
X186237524Y-115326390D02*
X186189905Y-115374009D01*
X186189905Y-115374009D02*
X186142286Y-115469247D01*
X137496057Y-114268238D02*
X137448438Y-114363476D01*
X137448438Y-114363476D02*
X137353200Y-114458714D01*
X137353200Y-114458714D02*
X137210342Y-114601571D01*
X137210342Y-114601571D02*
X137162723Y-114696809D01*
X137162723Y-114696809D02*
X137162723Y-114792047D01*
X137400819Y-114744428D02*
X137353200Y-114839666D01*
X137353200Y-114839666D02*
X137257961Y-114934904D01*
X137257961Y-114934904D02*
X137067485Y-114982523D01*
X137067485Y-114982523D02*
X136734152Y-114982523D01*
X136734152Y-114982523D02*
X136543676Y-114934904D01*
X136543676Y-114934904D02*
X136448438Y-114839666D01*
X136448438Y-114839666D02*
X136400819Y-114744428D01*
X136400819Y-114744428D02*
X136400819Y-114553952D01*
X136400819Y-114553952D02*
X136448438Y-114458714D01*
X136448438Y-114458714D02*
X136543676Y-114363476D01*
X136543676Y-114363476D02*
X136734152Y-114315857D01*
X136734152Y-114315857D02*
X137067485Y-114315857D01*
X137067485Y-114315857D02*
X137257961Y-114363476D01*
X137257961Y-114363476D02*
X137353200Y-114458714D01*
X137353200Y-114458714D02*
X137400819Y-114553952D01*
X137400819Y-114553952D02*
X137400819Y-114744428D01*
X136496057Y-113934904D02*
X136448438Y-113887285D01*
X136448438Y-113887285D02*
X136400819Y-113792047D01*
X136400819Y-113792047D02*
X136400819Y-113553952D01*
X136400819Y-113553952D02*
X136448438Y-113458714D01*
X136448438Y-113458714D02*
X136496057Y-113411095D01*
X136496057Y-113411095D02*
X136591295Y-113363476D01*
X136591295Y-113363476D02*
X136686533Y-113363476D01*
X136686533Y-113363476D02*
X136829390Y-113411095D01*
X136829390Y-113411095D02*
X137400819Y-113982523D01*
X137400819Y-113982523D02*
X137400819Y-113363476D01*
X181610095Y-84147819D02*
X181610095Y-83147819D01*
X181610095Y-83624009D02*
X182181523Y-83624009D01*
X182181523Y-84147819D02*
X182181523Y-83147819D01*
X182562476Y-83147819D02*
X183181523Y-83147819D01*
X183181523Y-83147819D02*
X182848190Y-83528771D01*
X182848190Y-83528771D02*
X182991047Y-83528771D01*
X182991047Y-83528771D02*
X183086285Y-83576390D01*
X183086285Y-83576390D02*
X183133904Y-83624009D01*
X183133904Y-83624009D02*
X183181523Y-83719247D01*
X183181523Y-83719247D02*
X183181523Y-83957342D01*
X183181523Y-83957342D02*
X183133904Y-84052580D01*
X183133904Y-84052580D02*
X183086285Y-84100200D01*
X183086285Y-84100200D02*
X182991047Y-84147819D01*
X182991047Y-84147819D02*
X182705333Y-84147819D01*
X182705333Y-84147819D02*
X182610095Y-84100200D01*
X182610095Y-84100200D02*
X182562476Y-84052580D01*
X165528666Y-116421819D02*
X165528666Y-117136104D01*
X165528666Y-117136104D02*
X165481047Y-117278961D01*
X165481047Y-117278961D02*
X165385809Y-117374200D01*
X165385809Y-117374200D02*
X165242952Y-117421819D01*
X165242952Y-117421819D02*
X165147714Y-117421819D01*
X166433428Y-116755152D02*
X166433428Y-117421819D01*
X166195333Y-116374200D02*
X165957238Y-117088485D01*
X165957238Y-117088485D02*
X166576285Y-117088485D01*
X169110819Y-104147857D02*
X168634628Y-104481190D01*
X169110819Y-104719285D02*
X168110819Y-104719285D01*
X168110819Y-104719285D02*
X168110819Y-104338333D01*
X168110819Y-104338333D02*
X168158438Y-104243095D01*
X168158438Y-104243095D02*
X168206057Y-104195476D01*
X168206057Y-104195476D02*
X168301295Y-104147857D01*
X168301295Y-104147857D02*
X168444152Y-104147857D01*
X168444152Y-104147857D02*
X168539390Y-104195476D01*
X168539390Y-104195476D02*
X168587009Y-104243095D01*
X168587009Y-104243095D02*
X168634628Y-104338333D01*
X168634628Y-104338333D02*
X168634628Y-104719285D01*
X169110819Y-103195476D02*
X169110819Y-103766904D01*
X169110819Y-103481190D02*
X168110819Y-103481190D01*
X168110819Y-103481190D02*
X168253676Y-103576428D01*
X168253676Y-103576428D02*
X168348914Y-103671666D01*
X168348914Y-103671666D02*
X168396533Y-103766904D01*
X168110819Y-102576428D02*
X168110819Y-102481190D01*
X168110819Y-102481190D02*
X168158438Y-102385952D01*
X168158438Y-102385952D02*
X168206057Y-102338333D01*
X168206057Y-102338333D02*
X168301295Y-102290714D01*
X168301295Y-102290714D02*
X168491771Y-102243095D01*
X168491771Y-102243095D02*
X168729866Y-102243095D01*
X168729866Y-102243095D02*
X168920342Y-102290714D01*
X168920342Y-102290714D02*
X169015580Y-102338333D01*
X169015580Y-102338333D02*
X169063200Y-102385952D01*
X169063200Y-102385952D02*
X169110819Y-102481190D01*
X169110819Y-102481190D02*
X169110819Y-102576428D01*
X169110819Y-102576428D02*
X169063200Y-102671666D01*
X169063200Y-102671666D02*
X169015580Y-102719285D01*
X169015580Y-102719285D02*
X168920342Y-102766904D01*
X168920342Y-102766904D02*
X168729866Y-102814523D01*
X168729866Y-102814523D02*
X168491771Y-102814523D01*
X168491771Y-102814523D02*
X168301295Y-102766904D01*
X168301295Y-102766904D02*
X168206057Y-102719285D01*
X168206057Y-102719285D02*
X168158438Y-102671666D01*
X168158438Y-102671666D02*
X168110819Y-102576428D01*
X156030819Y-92241666D02*
X155554628Y-92574999D01*
X156030819Y-92813094D02*
X155030819Y-92813094D01*
X155030819Y-92813094D02*
X155030819Y-92432142D01*
X155030819Y-92432142D02*
X155078438Y-92336904D01*
X155078438Y-92336904D02*
X155126057Y-92289285D01*
X155126057Y-92289285D02*
X155221295Y-92241666D01*
X155221295Y-92241666D02*
X155364152Y-92241666D01*
X155364152Y-92241666D02*
X155459390Y-92289285D01*
X155459390Y-92289285D02*
X155507009Y-92336904D01*
X155507009Y-92336904D02*
X155554628Y-92432142D01*
X155554628Y-92432142D02*
X155554628Y-92813094D01*
X155030819Y-91336904D02*
X155030819Y-91813094D01*
X155030819Y-91813094D02*
X155507009Y-91860713D01*
X155507009Y-91860713D02*
X155459390Y-91813094D01*
X155459390Y-91813094D02*
X155411771Y-91717856D01*
X155411771Y-91717856D02*
X155411771Y-91479761D01*
X155411771Y-91479761D02*
X155459390Y-91384523D01*
X155459390Y-91384523D02*
X155507009Y-91336904D01*
X155507009Y-91336904D02*
X155602247Y-91289285D01*
X155602247Y-91289285D02*
X155840342Y-91289285D01*
X155840342Y-91289285D02*
X155935580Y-91336904D01*
X155935580Y-91336904D02*
X155983200Y-91384523D01*
X155983200Y-91384523D02*
X156030819Y-91479761D01*
X156030819Y-91479761D02*
X156030819Y-91717856D01*
X156030819Y-91717856D02*
X155983200Y-91813094D01*
X155983200Y-91813094D02*
X155935580Y-91860713D01*
X163409333Y-99194580D02*
X163361714Y-99242200D01*
X163361714Y-99242200D02*
X163218857Y-99289819D01*
X163218857Y-99289819D02*
X163123619Y-99289819D01*
X163123619Y-99289819D02*
X162980762Y-99242200D01*
X162980762Y-99242200D02*
X162885524Y-99146961D01*
X162885524Y-99146961D02*
X162837905Y-99051723D01*
X162837905Y-99051723D02*
X162790286Y-98861247D01*
X162790286Y-98861247D02*
X162790286Y-98718390D01*
X162790286Y-98718390D02*
X162837905Y-98527914D01*
X162837905Y-98527914D02*
X162885524Y-98432676D01*
X162885524Y-98432676D02*
X162980762Y-98337438D01*
X162980762Y-98337438D02*
X163123619Y-98289819D01*
X163123619Y-98289819D02*
X163218857Y-98289819D01*
X163218857Y-98289819D02*
X163361714Y-98337438D01*
X163361714Y-98337438D02*
X163409333Y-98385057D01*
X164361714Y-99289819D02*
X163790286Y-99289819D01*
X164076000Y-99289819D02*
X164076000Y-98289819D01*
X164076000Y-98289819D02*
X163980762Y-98432676D01*
X163980762Y-98432676D02*
X163885524Y-98527914D01*
X163885524Y-98527914D02*
X163790286Y-98575533D01*
X155876666Y-88227819D02*
X155876666Y-88942104D01*
X155876666Y-88942104D02*
X155829047Y-89084961D01*
X155829047Y-89084961D02*
X155733809Y-89180200D01*
X155733809Y-89180200D02*
X155590952Y-89227819D01*
X155590952Y-89227819D02*
X155495714Y-89227819D01*
X156876666Y-89227819D02*
X156305238Y-89227819D01*
X156590952Y-89227819D02*
X156590952Y-88227819D01*
X156590952Y-88227819D02*
X156495714Y-88370676D01*
X156495714Y-88370676D02*
X156400476Y-88465914D01*
X156400476Y-88465914D02*
X156305238Y-88513533D01*
X189815580Y-113323666D02*
X189863200Y-113371285D01*
X189863200Y-113371285D02*
X189910819Y-113514142D01*
X189910819Y-113514142D02*
X189910819Y-113609380D01*
X189910819Y-113609380D02*
X189863200Y-113752237D01*
X189863200Y-113752237D02*
X189767961Y-113847475D01*
X189767961Y-113847475D02*
X189672723Y-113895094D01*
X189672723Y-113895094D02*
X189482247Y-113942713D01*
X189482247Y-113942713D02*
X189339390Y-113942713D01*
X189339390Y-113942713D02*
X189148914Y-113895094D01*
X189148914Y-113895094D02*
X189053676Y-113847475D01*
X189053676Y-113847475D02*
X188958438Y-113752237D01*
X188958438Y-113752237D02*
X188910819Y-113609380D01*
X188910819Y-113609380D02*
X188910819Y-113514142D01*
X188910819Y-113514142D02*
X188958438Y-113371285D01*
X188958438Y-113371285D02*
X189006057Y-113323666D01*
X189244152Y-112466523D02*
X189910819Y-112466523D01*
X188863200Y-112704618D02*
X189577485Y-112942713D01*
X189577485Y-112942713D02*
X189577485Y-112323666D01*
D12*
X151933000Y-95597000D02*
X151933000Y-95441000D01*
X151933000Y-93281000D02*
X151933000Y-93125000D01*
X148700666Y-95439608D02*
G75*
G03*
X151932999Y-95596515I1672334J1078608D01*
G01*
X149331871Y-95440836D02*
G75*
G03*
X151413960Y-95440999I1041129J1079836D01*
G01*
X151413960Y-93281001D02*
G75*
G03*
X149331871Y-93281164I-1040960J-1079999D01*
G01*
X151932999Y-93125485D02*
G75*
G03*
X148700666Y-93282392I-1559999J-1235515D01*
G01*
X173979064Y-90524000D02*
X173524936Y-90524000D01*
X173979064Y-89054000D02*
X173524936Y-89054000D01*
X162440000Y-105443000D02*
X162440000Y-107663000D01*
X162440000Y-107663000D02*
X166850000Y-107663000D01*
X166850000Y-105443000D02*
X162440000Y-105443000D01*
X165414000Y-111002000D02*
X164084000Y-111002000D01*
X165414000Y-109672000D02*
X165414000Y-111002000D01*
X165414000Y-108402000D02*
X165414000Y-108342000D01*
X165414000Y-108402000D02*
X162754000Y-108402000D01*
X165414000Y-108342000D02*
X162754000Y-108342000D01*
X162754000Y-108402000D02*
X162754000Y-108342000D01*
X153471000Y-94696000D02*
X153471000Y-96566000D01*
X153471000Y-96566000D02*
X157556000Y-96566000D01*
X157556000Y-94696000D02*
X153471000Y-94696000D01*
X180890936Y-88165000D02*
X181345064Y-88165000D01*
X180890936Y-89635000D02*
X181345064Y-89635000D01*
X166250000Y-89060000D02*
X166250000Y-91280000D01*
X166250000Y-91280000D02*
X170660000Y-91280000D01*
X170660000Y-89060000D02*
X166250000Y-89060000D01*
X150308000Y-104835000D02*
X150308000Y-103505000D01*
X151638000Y-104835000D02*
X150308000Y-104835000D01*
X152908000Y-104835000D02*
X152968000Y-104835000D01*
X152908000Y-104835000D02*
X152908000Y-102175000D01*
X152968000Y-104835000D02*
X152968000Y-102175000D01*
X152908000Y-102175000D02*
X152968000Y-102175000D01*
X149886936Y-97182000D02*
X150341064Y-97182000D01*
X149886936Y-98652000D02*
X150341064Y-98652000D01*
X150682000Y-102112000D02*
X149352000Y-102112000D01*
X150682000Y-100782000D02*
X150682000Y-102112000D01*
X150682000Y-99512000D02*
X150682000Y-99452000D01*
X150682000Y-99512000D02*
X148022000Y-99512000D01*
X150682000Y-99452000D02*
X148022000Y-99452000D01*
X148022000Y-99512000D02*
X148022000Y-99452000D01*
X173138000Y-114775000D02*
X173138000Y-112555000D01*
X173138000Y-112555000D02*
X168728000Y-112555000D01*
X168728000Y-114775000D02*
X173138000Y-114775000D01*
X174170000Y-123413000D02*
X174170000Y-124053000D01*
X174170000Y-124053000D02*
X174570000Y-124053000D01*
X174410000Y-116093000D02*
X174410000Y-123813000D01*
X174410000Y-116093000D02*
X188530000Y-116093000D01*
X174410000Y-122253000D02*
X188530000Y-122253000D01*
X174410000Y-123353000D02*
X188530000Y-123353000D01*
X174410000Y-123813000D02*
X188530000Y-123813000D01*
X178575000Y-120194000D02*
X178446000Y-120322000D01*
X178745000Y-120434000D02*
X178651000Y-120527000D01*
X180790000Y-117978000D02*
X180696000Y-118072000D01*
X180995000Y-118184000D02*
X180866000Y-118312000D01*
X182075000Y-120194000D02*
X181946000Y-120322000D01*
X182245000Y-120434000D02*
X182151000Y-120527000D01*
X184290000Y-117978000D02*
X184196000Y-118072000D01*
X184495000Y-118184000D02*
X184366000Y-118312000D01*
X185575000Y-120194000D02*
X185446000Y-120322000D01*
X185745000Y-120434000D02*
X185651000Y-120527000D01*
X187790000Y-117978000D02*
X187696000Y-118072000D01*
X187995000Y-118184000D02*
X187866000Y-118312000D01*
X188530000Y-116093000D02*
X188530000Y-123813000D01*
X174780000Y-118387000D02*
G75*
G03*
X174794642Y-120142894I1439998J-866000D01*
G01*
X177086000Y-117813000D02*
G75*
G03*
X175330106Y-117827642I-866000J-1439998D01*
G01*
X175354000Y-120693000D02*
G75*
G03*
X176248674Y-120933098I866003J1440014D01*
G01*
X176220000Y-120932999D02*
G75*
G03*
X177110264Y-120677720I3J1679989D01*
G01*
X177644999Y-120143999D02*
G75*
G03*
X177645503Y-118362808I-1425002J890999D01*
G01*
X181400000Y-119253000D02*
G75*
G03*
X181400000Y-119253000I-1680000J0D01*
G01*
X184900000Y-119253000D02*
G75*
G03*
X184900000Y-119253000I-1680000J0D01*
G01*
X188400000Y-119253000D02*
G75*
G03*
X188400000Y-119253000I-1680000J0D01*
G01*
X151598000Y-100235000D02*
X151598000Y-104876000D01*
X151598000Y-100235000D02*
X161838000Y-100235000D01*
X151598000Y-101745000D02*
X161838000Y-101745000D01*
X151598000Y-104876000D02*
X161838000Y-104876000D01*
X154868000Y-100235000D02*
X154868000Y-101745000D01*
X158569000Y-100235000D02*
X158569000Y-101745000D01*
X161838000Y-100235000D02*
X161838000Y-104876000D01*
X153471000Y-97998000D02*
X153471000Y-99868000D01*
X153471000Y-99868000D02*
X157556000Y-99868000D01*
X157556000Y-97998000D02*
X153471000Y-97998000D01*
X147590000Y-110897000D02*
X146380000Y-110897000D01*
X147590000Y-109597000D02*
X147590000Y-110897000D01*
X147430000Y-110747000D02*
X147430000Y-90157000D01*
X147430000Y-90157000D02*
X137050000Y-90157000D01*
X143750000Y-110747000D02*
X143750000Y-109707000D01*
X143750000Y-109687000D02*
X140750000Y-109687000D01*
X142580000Y-109537000D02*
X142580000Y-108337000D01*
X142580000Y-108907000D02*
X143680000Y-108907000D01*
X142580000Y-108737000D02*
X141880000Y-109137000D01*
X142580000Y-108337000D02*
X141880000Y-108337000D01*
X141880000Y-109537000D02*
X142580000Y-109537000D01*
X141880000Y-108907000D02*
X140780000Y-108907000D01*
X141880000Y-108337000D02*
X141880000Y-109537000D01*
X140750000Y-109687000D02*
X140750000Y-110747000D01*
X137050000Y-110747000D02*
X147430000Y-110747000D01*
X137050000Y-90157000D02*
X137050000Y-110747000D01*
X166905000Y-95207064D02*
X166905000Y-94752936D01*
X168375000Y-95207064D02*
X168375000Y-94752936D01*
X164311064Y-105002000D02*
X163856936Y-105002000D01*
X164311064Y-103532000D02*
X163856936Y-103532000D01*
X175302936Y-112930000D02*
X175757064Y-112930000D01*
X175302936Y-114400000D02*
X175757064Y-114400000D01*
X151776000Y-115815000D02*
X151776000Y-111515000D01*
X151776000Y-115815000D02*
X144366000Y-115815000D01*
X151776000Y-111515000D02*
X144366000Y-111515000D01*
X151656000Y-82327000D02*
X151656000Y-81687000D01*
X151656000Y-81687000D02*
X151256000Y-81687000D01*
X151416000Y-89647000D02*
X151416000Y-81927000D01*
X151416000Y-89647000D02*
X144296000Y-89647000D01*
X151416000Y-83487000D02*
X144296000Y-83487000D01*
X151416000Y-82387000D02*
X144296000Y-82387000D01*
X151416000Y-81927000D02*
X144296000Y-81927000D01*
X147251000Y-85546000D02*
X147380000Y-85418000D01*
X147081000Y-85306000D02*
X147175000Y-85213000D01*
X145036000Y-87762000D02*
X145130000Y-87668000D01*
X144831000Y-87556000D02*
X144960000Y-87428000D01*
X144296000Y-89647000D02*
X144296000Y-81927000D01*
X151046000Y-87353000D02*
G75*
G03*
X151031358Y-85597106I-1439998J866000D01*
G01*
X148740000Y-87927000D02*
G75*
G03*
X150495894Y-87912358I866000J1439998D01*
G01*
X150472000Y-85047000D02*
G75*
G03*
X149577326Y-84806902I-866003J-1440014D01*
G01*
X149606000Y-84807001D02*
G75*
G03*
X148715736Y-85062280I-3J-1679989D01*
G01*
X148181001Y-85596001D02*
G75*
G03*
X148180497Y-87377192I1425002J-890999D01*
G01*
X147786000Y-86487000D02*
G75*
G03*
X147786000Y-86487000I-1680000J0D01*
G01*
D13*
X189406500Y-92604700D02*
X169078000Y-92604700D01*
X169078000Y-92604700D02*
X169078000Y-110404700D01*
X190078000Y-93276241D02*
X189406500Y-92604700D01*
X184150000Y-97000700D02*
X191503000Y-97000700D01*
X191502000Y-97004700D02*
X191502000Y-105999700D01*
X191502000Y-105999700D02*
X184150000Y-105999700D01*
X184150000Y-105999700D02*
X184150000Y-97000700D01*
X190078000Y-110404700D02*
X190078000Y-93276241D01*
X169078000Y-110404700D02*
X190078000Y-110404700D01*
D12*
X165414000Y-102112000D02*
X164084000Y-102112000D01*
X165414000Y-100782000D02*
X165414000Y-102112000D01*
X165414000Y-99512000D02*
X165414000Y-99452000D01*
X165414000Y-99512000D02*
X162754000Y-99512000D01*
X165414000Y-99452000D02*
X162754000Y-99452000D01*
X162754000Y-99512000D02*
X162754000Y-99452000D01*
X153189000Y-92302064D02*
X153189000Y-91847936D01*
X154659000Y-92302064D02*
X154659000Y-91847936D01*
X160666000Y-110552000D02*
X160666000Y-106252000D01*
X160666000Y-110552000D02*
X153256000Y-110552000D01*
X160666000Y-106252000D02*
X153256000Y-106252000D01*
X161263000Y-92355936D02*
X161263000Y-92810064D01*
X159793000Y-92355936D02*
X159793000Y-92810064D01*
X144000000Y-123413000D02*
X144000000Y-124053000D01*
X144000000Y-124053000D02*
X144400000Y-124053000D01*
X144240000Y-116093000D02*
X144240000Y-123813000D01*
X144240000Y-116093000D02*
X158360000Y-116093000D01*
X144240000Y-122253000D02*
X158360000Y-122253000D01*
X144240000Y-123353000D02*
X158360000Y-123353000D01*
X144240000Y-123813000D02*
X158360000Y-123813000D01*
X148405000Y-120194000D02*
X148276000Y-120322000D01*
X148575000Y-120434000D02*
X148481000Y-120527000D01*
X150620000Y-117978000D02*
X150526000Y-118072000D01*
X150825000Y-118184000D02*
X150696000Y-118312000D01*
X151905000Y-120194000D02*
X151776000Y-120322000D01*
X152075000Y-120434000D02*
X151981000Y-120527000D01*
X154120000Y-117978000D02*
X154026000Y-118072000D01*
X154325000Y-118184000D02*
X154196000Y-118312000D01*
X155405000Y-120194000D02*
X155276000Y-120322000D01*
X155575000Y-120434000D02*
X155481000Y-120527000D01*
X157620000Y-117978000D02*
X157526000Y-118072000D01*
X157825000Y-118184000D02*
X157696000Y-118312000D01*
X158360000Y-116093000D02*
X158360000Y-123813000D01*
X144610000Y-118387000D02*
G75*
G03*
X144624642Y-120142894I1439998J-866000D01*
G01*
X146916000Y-117813000D02*
G75*
G03*
X145160106Y-117827642I-866000J-1439998D01*
G01*
X145184000Y-120693000D02*
G75*
G03*
X146078674Y-120933098I866003J1440014D01*
G01*
X146050000Y-120932999D02*
G75*
G03*
X146940264Y-120677720I3J1679989D01*
G01*
X147474999Y-120143999D02*
G75*
G03*
X147475503Y-118362808I-1425002J890999D01*
G01*
X151230000Y-119253000D02*
G75*
G03*
X151230000Y-119253000I-1680000J0D01*
G01*
X154730000Y-119253000D02*
G75*
G03*
X154730000Y-119253000I-1680000J0D01*
G01*
X158230000Y-119253000D02*
G75*
G03*
X158230000Y-119253000I-1680000J0D01*
G01*
X152008000Y-111515000D02*
X152008000Y-115815000D01*
X152008000Y-111515000D02*
X159418000Y-111515000D01*
X152008000Y-115815000D02*
X159418000Y-115815000D01*
X165098000Y-91003000D02*
X161938000Y-91003000D01*
X165098000Y-91003000D02*
X165098000Y-91933000D01*
X165098000Y-94163000D02*
X163638000Y-94163000D01*
X165098000Y-94163000D02*
X165098000Y-93233000D01*
X179350936Y-112930000D02*
X179805064Y-112930000D01*
X179350936Y-114400000D02*
X179805064Y-114400000D01*
X150682000Y-111002000D02*
X149352000Y-111002000D01*
X150682000Y-109672000D02*
X150682000Y-111002000D01*
X150682000Y-108402000D02*
X150682000Y-108342000D01*
X150682000Y-108402000D02*
X148022000Y-108402000D01*
X150682000Y-108342000D02*
X148022000Y-108342000D01*
X148022000Y-108402000D02*
X148022000Y-108342000D01*
X168088000Y-88309000D02*
X168088000Y-86979000D01*
X169418000Y-88309000D02*
X168088000Y-88309000D01*
X170688000Y-88309000D02*
X178368000Y-88309000D01*
X170688000Y-88309000D02*
X170688000Y-85649000D01*
X178368000Y-88309000D02*
X178368000Y-85649000D01*
X170688000Y-85649000D02*
X178368000Y-85649000D01*
X187425064Y-91794000D02*
X186970936Y-91794000D01*
X187425064Y-90324000D02*
X186970936Y-90324000D01*
X165380936Y-86260000D02*
X165835064Y-86260000D01*
X165380936Y-87730000D02*
X165835064Y-87730000D01*
X182660000Y-114722000D02*
X182816000Y-114722000D01*
X184976000Y-114722000D02*
X185132000Y-114722000D01*
X182817392Y-111489666D02*
G75*
G03*
X182660485Y-114721999I1078608J-1672334D01*
G01*
X182816164Y-112120871D02*
G75*
G03*
X182816001Y-114202960I1079836J-1041129D01*
G01*
X184975999Y-114202960D02*
G75*
G03*
X184975836Y-112120871I-1079999J1040960D01*
G01*
X185131515Y-114721999D02*
G75*
G03*
X184974608Y-111489666I-1235515J1559999D01*
G01*
X137866000Y-113413000D02*
X137866000Y-116573000D01*
X137866000Y-113413000D02*
X138796000Y-113413000D01*
X141026000Y-113413000D02*
X141026000Y-114873000D01*
X141026000Y-113413000D02*
X140096000Y-113413000D01*
X158732000Y-123413000D02*
X158732000Y-124053000D01*
X158732000Y-124053000D02*
X159132000Y-124053000D01*
X158972000Y-116093000D02*
X158972000Y-123813000D01*
X158972000Y-116093000D02*
X173092000Y-116093000D01*
X158972000Y-122253000D02*
X173092000Y-122253000D01*
X158972000Y-123353000D02*
X173092000Y-123353000D01*
X158972000Y-123813000D02*
X173092000Y-123813000D01*
X163137000Y-120194000D02*
X163008000Y-120322000D01*
X163307000Y-120434000D02*
X163213000Y-120527000D01*
X165352000Y-117978000D02*
X165258000Y-118072000D01*
X165557000Y-118184000D02*
X165428000Y-118312000D01*
X166637000Y-120194000D02*
X166508000Y-120322000D01*
X166807000Y-120434000D02*
X166713000Y-120527000D01*
X168852000Y-117978000D02*
X168758000Y-118072000D01*
X169057000Y-118184000D02*
X168928000Y-118312000D01*
X170137000Y-120194000D02*
X170008000Y-120322000D01*
X170307000Y-120434000D02*
X170213000Y-120527000D01*
X172352000Y-117978000D02*
X172258000Y-118072000D01*
X172557000Y-118184000D02*
X172428000Y-118312000D01*
X173092000Y-116093000D02*
X173092000Y-123813000D01*
X159342000Y-118387000D02*
G75*
G03*
X159356642Y-120142894I1439998J-866000D01*
G01*
X161648000Y-117813000D02*
G75*
G03*
X159892106Y-117827642I-866000J-1439998D01*
G01*
X159916000Y-120693000D02*
G75*
G03*
X160810674Y-120933098I866003J1440014D01*
G01*
X160782000Y-120932999D02*
G75*
G03*
X161672264Y-120677720I3J1679989D01*
G01*
X162206999Y-120143999D02*
G75*
G03*
X162207503Y-118362808I-1425002J890999D01*
G01*
X165962000Y-119253000D02*
G75*
G03*
X165962000Y-119253000I-1680000J0D01*
G01*
X169462000Y-119253000D02*
G75*
G03*
X169462000Y-119253000I-1680000J0D01*
G01*
X172962000Y-119253000D02*
G75*
G03*
X172962000Y-119253000I-1680000J0D01*
G01*
X167867000Y-103277936D02*
X167867000Y-103732064D01*
X166397000Y-103277936D02*
X166397000Y-103732064D01*
X156491000Y-92302064D02*
X156491000Y-91847936D01*
X157961000Y-92302064D02*
X157961000Y-91847936D01*
X163837252Y-97890000D02*
X163314748Y-97890000D01*
X163837252Y-96420000D02*
X163314748Y-96420000D01*
X163482000Y-82327000D02*
X163482000Y-81687000D01*
X163482000Y-81687000D02*
X163082000Y-81687000D01*
X163242000Y-89647000D02*
X163242000Y-81927000D01*
X163242000Y-89647000D02*
X152622000Y-89647000D01*
X163242000Y-83487000D02*
X152622000Y-83487000D01*
X163242000Y-82387000D02*
X152622000Y-82387000D01*
X163242000Y-81927000D02*
X152622000Y-81927000D01*
X159077000Y-85546000D02*
X159206000Y-85418000D01*
X158907000Y-85306000D02*
X159001000Y-85213000D01*
X156862000Y-87762000D02*
X156956000Y-87668000D01*
X156657000Y-87556000D02*
X156786000Y-87428000D01*
X155577000Y-85546000D02*
X155706000Y-85418000D01*
X155407000Y-85306000D02*
X155501000Y-85213000D01*
X153362000Y-87762000D02*
X153456000Y-87668000D01*
X153157000Y-87556000D02*
X153286000Y-87428000D01*
X152622000Y-89647000D02*
X152622000Y-81927000D01*
X162872000Y-87353000D02*
G75*
G03*
X162857358Y-85597106I-1439998J866000D01*
G01*
X160566000Y-87927000D02*
G75*
G03*
X162321894Y-87912358I866000J1439998D01*
G01*
X162298000Y-85047000D02*
G75*
G03*
X161403326Y-84806902I-866003J-1440014D01*
G01*
X161432000Y-84807001D02*
G75*
G03*
X160541736Y-85062280I-3J-1679989D01*
G01*
X160007001Y-85596001D02*
G75*
G03*
X160006497Y-87377192I1425002J-890999D01*
G01*
X159612000Y-86487000D02*
G75*
G03*
X159612000Y-86487000I-1680000J0D01*
G01*
X156112000Y-86487000D02*
G75*
G03*
X156112000Y-86487000I-1680000J0D01*
G01*
X188641000Y-110672000D02*
X186771000Y-110672000D01*
X186771000Y-110672000D02*
X186771000Y-114757000D01*
X188641000Y-114757000D02*
X188641000Y-110672000D01*
M02*
